<svg width="1073" height="268" viewBox="0 0 1073 268" fill="none" xmlns="http://www.w3.org/2000/svg">
<path d="M122.622 237.224C118.545 237.208 115.124 234.146 114.654 230.093C114.185 226.04 116.816 222.276 120.781 221.326C123.015 220.786 125.249 220.196 127.435 219.533C138.473 216.171 148.919 211.106 158.396 204.52C165.664 199.429 172.263 193.444 178.039 186.705C178.039 186.705 181.672 182.282 183.146 180.243C190.313 170.379 195.66 159.311 198.933 147.563C200.48 142.108 201.806 136.432 202.935 130.682C203.824 126.336 208.03 123.504 212.388 124.318C214.486 124.728 216.334 125.955 217.527 127.73C218.719 129.504 219.159 131.68 218.748 133.778C217.545 139.946 216.096 146.064 214.451 151.912C210.653 165.503 204.468 178.308 196.183 189.728C194.514 192.013 190.389 197.099 190.389 197.099C183.666 204.929 175.977 211.873 167.505 217.764C156.633 225.32 144.645 231.124 131.977 234.964C129.44 235.734 126.886 236.422 124.316 237.028C123.76 237.155 123.192 237.221 122.622 237.224Z" fill="url(#paint0_linear_8_303)"/>
<path d="M210.989 140.314C210.502 140.314 210.017 140.264 209.54 140.167C207.436 139.785 205.57 138.58 204.354 136.819C203.138 135.059 202.672 132.886 203.058 130.781C204.286 124.097 205.784 114.22 206.373 107.217L206.692 102.818C207.55 90.9688 207.089 79.0604 205.317 67.3127C203.855 56.1063 200.075 45.3278 194.219 35.6647C190.724 30.1596 186.032 25.5148 180.494 22.0766C177.882 20.6696 176.255 17.9396 176.258 14.9711C176.261 12.0026 177.895 9.27629 180.51 7.87506C183.125 6.47384 186.298 6.62461 188.768 8.26748C196.432 12.9792 202.916 19.3839 207.723 26.9909C214.807 38.5442 219.406 51.4485 221.228 64.8801C223.181 77.8308 223.7 90.9578 222.774 104.022L222.431 108.666C221.792 116.234 220.196 126.751 218.92 133.803C218.169 137.59 214.847 140.318 210.989 140.314Z" fill="url(#paint1_linear_8_303)"/>
<path d="M138.238 264.99C137.087 264.996 135.948 264.753 134.899 264.277C132.906 263.358 130.986 262.29 129.153 261.083C121.57 255.843 114.928 249.354 109.511 241.893C102.988 233.414 97.2363 224.368 92.3237 214.864C80.5207 191.696 74.4655 166.024 74.6701 140.02C74.6768 133.749 75.0129 127.483 75.6767 121.247C75.8722 118.302 77.6608 115.699 80.339 114.463C83.0173 113.226 86.1566 113.554 88.5222 115.317C90.8879 117.08 92.1014 119.996 91.6854 122.918C91.0961 128.643 90.8014 134.417 90.7769 140.118C90.7343 152.542 92.2354 164.922 95.2456 176.975C97.9638 187.523 101.851 197.735 106.835 207.419C111.286 216.109 116.495 224.389 122.401 232.163C126.703 238.141 131.983 243.349 138.017 247.569C139.172 248.345 140.387 249.027 141.651 249.608C145.085 251.188 146.958 254.946 146.156 258.642C145.354 262.338 142.091 264.978 138.312 264.99H138.238Z" fill="url(#paint2_linear_8_303)"/>
<path d="M171.213 174.911H170.673C156.443 173.714 142.294 171.704 128.294 168.891L123.531 167.834C112.629 165.377 101.065 162.158 89.1565 158.35C76.0697 154.222 63.6949 149.627 52.3268 144.762C42.6756 140.675 33.3082 135.946 24.2872 130.609L23.1577 129.896C17.8238 126.973 12.937 123.299 8.64683 118.986C6.22187 117 5.16892 113.785 5.94782 110.747C6.72672 107.709 9.19598 105.4 12.2773 104.827C15.3585 104.254 18.4921 105.522 20.3096 108.077C23.5973 111.246 27.2972 113.957 31.3093 116.136L32.4879 116.849C40.8624 121.805 49.5664 126.18 58.5387 129.945C69.3421 134.589 81.2013 138.988 93.797 142.968C105.362 146.629 116.656 149.701 126.968 152.084L131.535 153.092C144.863 155.761 158.332 157.672 171.876 158.817C176.195 159.155 179.474 162.852 179.295 167.184C179.117 171.516 175.545 174.93 171.213 174.911Z" fill="url(#paint3_linear_8_303)"/>
<path d="M83.7793 129.38H82.8954C80.7469 129.146 78.7817 128.061 77.439 126.366C76.0963 124.672 75.4881 122.509 75.7504 120.362C76.819 110.908 78.5087 101.534 80.8084 92.3019C84.5158 76.8206 90.3669 61.9337 98.192 48.0732C104.518 36.8314 112.695 26.7383 122.377 18.2189C130.361 11.1646 139.788 5.94018 149.999 2.91091C158.959 0.230334 168.513 0.273093 177.449 3.03376C180.905 4.13791 184.243 5.57812 187.418 7.33377C189.927 8.7515 191.489 11.401 191.517 14.2841C191.544 17.1673 190.033 19.8461 187.551 21.3116C185.07 22.777 181.996 22.8064 179.487 21.3886C177.239 20.124 174.87 19.0868 172.416 18.2926C166.518 16.4967 160.219 16.4967 154.32 18.2926C146.379 20.725 139.058 24.8492 132.861 30.3818C124.548 37.6934 117.54 46.3682 112.138 56.0344C105.073 68.5814 99.7925 82.0536 96.4487 96.0613C94.2981 104.609 92.7394 113.295 91.7836 122.058C91.3924 126.195 87.9313 129.361 83.7793 129.38Z" fill="url(#paint4_linear_8_303)"/>
<path d="M17.6333 192.701C14.1612 192.704 11.0803 190.474 9.9973 187.172C6.57891 176.72 5.8443 165.574 7.86118 154.762C10.1648 143.176 15.2173 132.314 22.593 123.09C30.1313 113.555 39.0334 105.184 49.0122 98.2482C57.1296 92.503 65.6932 87.4169 74.6211 83.0384C77.2001 81.7612 80.264 81.9578 82.6588 83.5543C85.0536 85.1507 86.4155 87.9045 86.2313 90.7783C86.0472 93.652 84.345 96.2092 81.766 97.4864C73.5999 101.489 65.767 106.14 58.3424 111.394C49.6995 117.384 41.9672 124.592 35.3852 132.796C29.566 139.976 25.5651 148.455 23.7225 157.515C22.1619 165.706 22.7025 174.16 25.2939 182.086C26.6828 186.313 24.3857 190.867 20.1623 192.259C19.3476 192.538 18.4942 192.687 17.6333 192.701Z" fill="url(#paint5_linear_8_303)"/>
<path d="M184.349 175.304C179.856 175.304 175.313 175.304 170.722 174.911C166.329 174.571 163.025 170.761 163.307 166.36C163.647 161.953 167.414 158.607 171.827 158.792C181.158 159.385 190.521 159.311 199.842 158.571H201.438C211.578 157.76 220.319 157.048 230.337 153.387C238.317 150.487 252.115 143.73 255.062 131.076C257.517 120.461 251.158 109.821 248.285 105.743C243.035 98.5867 236.182 92.7629 228.274 88.7391C220.085 84.475 211.389 81.2635 202.395 79.1808C198.639 78.3208 194.833 77.6328 191.003 77.1414C186.591 76.543 183.488 72.494 184.054 68.0745C184.323 65.9513 185.429 64.024 187.127 62.7223C188.824 61.4205 190.971 60.8527 193.09 61.1454C197.46 61.7105 201.806 62.5214 206.029 63.4796C216.359 65.86 226.343 69.551 235.738 74.4631C245.93 79.6576 254.748 87.1937 261.47 96.4545C266.577 103.826 274.582 118.397 270.751 134.737C265.939 154.763 246.787 164.395 235.714 168.424C223.658 172.823 213.444 173.633 202.616 174.518H201.02C195.594 175.083 190.021 175.304 184.349 175.304Z" fill="url(#paint6_linear_8_303)"/>
<path d="M84.0004 95.6437C80.1951 95.6687 76.8916 93.025 76.0793 89.3046C75.267 85.5842 77.1676 81.8025 80.6366 80.2371C90.8031 75.5908 101.32 71.754 112.089 68.7623C122.476 65.9127 133.019 63.6648 143.664 62.0297C154.061 60.4147 164.572 59.6504 175.092 59.7446C180.533 59.8194 185.966 60.1721 191.371 60.8011C195.787 61.339 198.937 65.3484 198.418 69.7697C198.192 71.9063 197.112 73.8606 195.424 75.1886C193.736 76.5166 191.584 77.1056 189.456 76.8217C184.614 76.2498 179.746 75.9299 174.871 75.8634C165.245 75.7395 155.625 76.4465 146.12 77.9766C136.111 79.5274 126.2 81.6523 116.435 84.3406C106.51 87.0807 96.8217 90.6139 87.4624 94.9063C86.3755 95.4005 85.1942 95.6521 84.0004 95.6437Z" fill="url(#paint7_linear_8_303)"/>
<path d="M146.586 267.03C143.492 266.982 140.428 266.409 137.526 265.334C133.578 263.657 131.628 259.186 133.084 255.149C134.539 251.111 138.893 248.916 143.001 250.149C144.465 250.767 146.066 250.988 147.642 250.788C148.477 250.616 150.097 250.247 153.019 242.311C155.966 233.981 154.713 173.51 123.555 135.228C120.742 131.774 121.258 126.692 124.709 123.876C128.161 121.06 133.239 121.577 136.053 125.031C172.342 169.751 172.392 235.848 168.218 247.741C165.198 256.267 160.999 264.474 151.03 266.587C149.569 266.89 148.079 267.038 146.586 267.03Z" fill="url(#paint8_linear_8_303)"/>
<path d="M97.5291 240.468H93.085C80.4795 240.311 68.0048 237.889 56.2553 233.318C45.5361 229.21 35.7627 222.965 27.5281 214.963C19.666 207.375 13.7165 198.027 10.1691 187.688C8.73848 183.468 10.9975 178.886 15.2148 177.454C19.432 176.023 24.0105 178.283 25.4411 182.504C28.1685 190.438 32.7475 197.606 38.798 203.414C45.5232 209.847 53.4723 214.86 62.1726 218.157C72.1253 222.052 82.6943 224.132 93.3796 224.3C103.017 224.811 112.672 223.732 121.959 221.106C126.217 219.81 130.719 222.213 132.014 226.474C133.309 230.735 130.907 235.24 126.649 236.536C117.2 239.325 107.379 240.651 97.5291 240.468Z" fill="url(#paint9_linear_8_303)"/>
<path d="M129.743 138.226C127.315 138.23 125.014 137.138 123.482 135.253C87.9288 91.5401 47.9072 80.6796 24.1398 89.2304C20.4479 90.2074 17.495 92.9778 16.2828 96.6019C15.6346 100.75 17.0885 104.949 20.1622 107.806C23.2811 110.995 23.2261 116.111 20.0394 119.232C16.8527 122.353 11.7411 122.298 8.62223 119.109C1.67739 112.358 -1.35728 102.535 0.568806 93.039C2.60671 84.2916 9.01508 77.559 18.689 74.0698C45.6974 64.2413 92.643 71.8093 135.979 125.056C138.784 128.512 138.268 133.587 134.825 136.408C133.394 137.586 131.596 138.229 129.743 138.226Z" fill="url(#paint10_linear_8_303)"/>
<path d="M206.422 148.497C203.951 148.458 201.487 148.211 199.056 147.76C195.777 159.429 190.448 170.42 183.318 180.219C181.845 182.258 178.186 186.705 178.211 186.705C178.235 186.705 177.744 187.148 177.548 187.393C181.461 191.381 184.453 196.179 186.313 201.448C187.688 199.999 189.211 198.672 190.512 197.148C190.512 197.148 194.661 192.087 196.331 189.777C204.624 178.372 210.811 165.573 214.598 151.986C214.991 150.585 215.261 149.062 215.63 147.612C212.601 148.233 209.514 148.53 206.422 148.497Z" fill="url(#paint11_linear_8_303)"/>
<path d="M315.236 102.007C315.236 97.9367 316.555 94.7834 319.192 92.5474C321.887 90.3114 325.699 89.1934 330.63 89.1934C335.561 89.1934 339.574 89.7094 342.67 90.7414V98.4814C339.574 97.2774 335.819 96.6754 331.404 96.6754C326.072 96.6754 323.406 98.6534 323.406 102.609V105.963C323.406 107.798 323.75 109.26 324.438 110.349C325.183 111.381 326.473 112.413 328.308 113.445L338.284 119.035C342.928 121.558 345.25 125.371 345.25 130.473V135.289C345.25 139.475 343.788 142.714 340.864 145.007C337.94 147.243 333.812 148.361 328.48 148.361C323.205 148.361 318.963 147.759 315.752 146.555V138.815C319.536 140.191 323.521 140.879 327.706 140.879C333.955 140.879 337.08 138.758 337.08 134.515V131.591C337.08 129.871 336.765 128.553 336.134 127.635C335.503 126.661 334.328 125.715 332.608 124.797L322.89 119.465C317.787 116.713 315.236 112.614 315.236 107.167V102.007ZM352.158 111.123C352.158 102.409 357.203 98.0514 367.294 98.0514C370.906 98.0514 374.116 98.4527 376.926 99.2554V106.737C374.059 105.935 371.135 105.533 368.154 105.533C365.23 105.533 363.166 106.021 361.962 106.995C360.815 107.97 360.242 109.518 360.242 111.639V134.859C360.242 136.981 360.815 138.529 361.962 139.503C363.166 140.478 365.287 140.965 368.326 140.965C371.364 140.965 374.26 140.507 377.012 139.589V147.157C373.686 147.96 370.447 148.361 367.294 148.361C357.203 148.361 352.158 144.004 352.158 135.289V111.123ZM393.788 89.4514C393.788 92.6047 392.211 94.1814 389.058 94.1814C385.904 94.1814 384.328 92.6047 384.328 89.4514C384.328 86.2407 385.904 84.6354 389.058 84.6354C392.211 84.6354 393.788 86.2407 393.788 89.4514ZM385.016 99.0834H393.1V147.931H385.016V99.0834ZM402.884 134.859V111.123C402.884 106.995 404.088 103.727 406.496 101.319C408.904 98.8541 412.573 97.6214 417.504 97.6214C422.435 97.6214 426.075 98.8541 428.426 101.319C430.777 103.727 431.952 106.995 431.952 111.123V126.861H410.796V134.429C410.796 136.723 411.484 138.414 412.86 139.503C414.293 140.593 416.759 141.137 420.256 141.137C423.811 141.137 427.251 140.621 430.576 139.589V146.985C427.136 147.903 423.467 148.361 419.568 148.361C408.445 148.361 402.884 143.861 402.884 134.859ZM410.796 120.325H424.298V111.209C424.298 106.737 422.033 104.501 417.504 104.501C413.032 104.501 410.796 106.737 410.796 111.209V120.325ZM448.857 100.717C452.526 99.1121 455.938 98.3094 459.091 98.3094C462.302 98.3094 464.91 99.2841 466.917 101.233C468.981 103.125 470.013 105.877 470.013 109.489V147.931H461.757V110.865C461.757 107.483 460.066 105.791 456.683 105.791C454.218 105.791 451.724 106.422 449.201 107.683V147.931H441.117V98.4814H448.857V100.717ZM479.394 111.123C479.394 102.409 484.439 98.0514 494.53 98.0514C498.142 98.0514 501.353 98.4527 504.162 99.2554V106.737C501.295 105.935 498.371 105.533 495.39 105.533C492.466 105.533 490.402 106.021 489.198 106.995C488.051 107.97 487.478 109.518 487.478 111.639V134.859C487.478 136.981 488.051 138.529 489.198 139.503C490.402 140.478 492.523 140.965 495.562 140.965C498.601 140.965 501.496 140.507 504.248 139.589V147.157C500.923 147.96 497.683 148.361 494.53 148.361C484.439 148.361 479.394 144.004 479.394 135.289V111.123ZM511.392 134.859V111.123C511.392 106.995 512.596 103.727 515.004 101.319C517.412 98.8541 521.081 97.6214 526.012 97.6214C530.943 97.6214 534.583 98.8541 536.934 101.319C539.285 103.727 540.46 106.995 540.46 111.123V126.861H519.304V134.429C519.304 136.723 519.992 138.414 521.368 139.503C522.801 140.593 525.267 141.137 528.764 141.137C532.319 141.137 535.759 140.621 539.084 139.589V146.985C535.644 147.903 531.975 148.361 528.076 148.361C516.953 148.361 511.392 143.861 511.392 134.859ZM519.304 120.325H532.806V111.209C532.806 106.737 530.541 104.501 526.012 104.501C521.54 104.501 519.304 106.737 519.304 111.209V120.325ZM546.529 110.521C546.529 106.336 547.733 103.211 550.141 101.147C552.606 99.0834 556.591 98.0514 562.095 98.0514C565.764 98.0514 569.032 98.5101 571.899 99.4274V106.823C569.147 105.791 566.108 105.275 562.783 105.275C559.458 105.275 557.25 105.734 556.161 106.651C555.072 107.511 554.527 108.945 554.527 110.951V112.671C554.527 114.219 554.842 115.395 555.473 116.197C556.104 117 557.308 117.86 559.085 118.777L566.395 122.733C571.326 125.371 573.791 128.925 573.791 133.397V135.633C573.791 144.119 568.287 148.361 557.279 148.361C553.552 148.361 550.026 147.931 546.701 147.071V139.589C549.625 140.564 552.836 141.051 556.333 141.051C559.888 141.051 562.324 140.593 563.643 139.675C565.019 138.758 565.707 137.353 565.707 135.461V133.999C565.707 132.623 565.334 131.534 564.589 130.731C563.901 129.871 562.496 128.897 560.375 127.807L553.409 124.195C548.822 121.845 546.529 118.204 546.529 113.273V110.521ZM596.72 134.859V111.123C596.72 106.995 597.924 103.727 600.332 101.319C602.74 98.8541 606.409 97.6214 611.34 97.6214C616.271 97.6214 619.911 98.8541 622.262 101.319C624.613 103.727 625.788 106.995 625.788 111.123V126.861H604.632V134.429C604.632 136.723 605.32 138.414 606.696 139.503C608.129 140.593 610.595 141.137 614.092 141.137C617.647 141.137 621.087 140.621 624.412 139.589V146.985C620.972 147.903 617.303 148.361 613.404 148.361C602.281 148.361 596.72 143.861 596.72 134.859ZM604.632 120.325H618.134V111.209C618.134 106.737 615.869 104.501 611.34 104.501C606.868 104.501 604.632 106.737 604.632 111.209V120.325ZM643.295 89.6234V98.4814H653.271V105.447H643.295V136.149C643.295 139.475 645.015 141.137 648.455 141.137C650.118 141.137 651.981 140.793 654.045 140.105V147.415C653.988 147.415 653.701 147.473 653.185 147.587C652.726 147.702 652.239 147.817 651.723 147.931C650.175 148.275 648.684 148.447 647.251 148.447C639.224 148.447 635.211 144.549 635.211 136.751V105.447H630.051V98.4814H635.469L637.877 89.6234H643.295ZM702.575 89.6234V96.7614H691.481V147.931H683.311V96.7614H672.217V89.6234H702.575ZM707.663 134.859V111.123C707.663 106.995 708.867 103.727 711.275 101.319C713.683 98.8541 717.353 97.6214 722.283 97.6214C727.214 97.6214 730.855 98.8541 733.205 101.319C735.556 103.727 736.731 106.995 736.731 111.123V126.861H715.575V134.429C715.575 136.723 716.263 138.414 717.639 139.503C719.073 140.593 721.538 141.137 725.035 141.137C728.59 141.137 732.03 140.621 735.355 139.589V146.985C731.915 147.903 728.246 148.361 724.347 148.361C713.225 148.361 707.663 143.861 707.663 134.859ZM715.575 120.325H729.077V111.209C729.077 106.737 726.813 104.501 722.283 104.501C717.811 104.501 715.575 106.737 715.575 111.209V120.325ZM745.036 111.123C745.036 102.409 750.082 98.0514 760.172 98.0514C763.784 98.0514 766.995 98.4527 769.804 99.2554V106.737C766.938 105.935 764.014 105.533 761.032 105.533C758.108 105.533 756.044 106.021 754.84 106.995C753.694 107.97 753.12 109.518 753.12 111.639V134.859C753.12 136.981 753.694 138.529 754.84 139.503C756.044 140.478 758.166 140.965 761.204 140.965C764.243 140.965 767.138 140.507 769.89 139.589V147.157C766.565 147.96 763.326 148.361 760.172 148.361C750.082 148.361 745.036 144.004 745.036 135.289V111.123ZM777.895 85.3234H785.979V100.115C788.903 98.8541 792.027 98.2234 795.353 98.2234C798.735 98.2234 801.487 99.1694 803.609 101.061C805.73 102.953 806.791 105.763 806.791 109.489V147.931H798.535V110.865C798.535 107.483 796.843 105.791 793.461 105.791C790.881 105.791 788.387 106.393 785.979 107.597V147.931H777.895V85.3234ZM824.771 100.717C828.441 99.1121 831.852 98.3094 835.005 98.3094C838.216 98.3094 840.825 99.2841 842.831 101.233C844.895 103.125 845.927 105.877 845.927 109.489V147.931H837.671V110.865C837.671 107.483 835.98 105.791 832.597 105.791C830.132 105.791 827.638 106.422 825.115 107.683V147.931H817.031V98.4814H824.771V100.717ZM876.55 111.295C876.55 106.881 874.343 104.673 869.928 104.673C865.513 104.673 863.306 106.881 863.306 111.295V135.117C863.306 139.532 865.513 141.739 869.928 141.739C874.343 141.739 876.55 139.532 876.55 135.117V111.295ZM855.308 111.123C855.308 106.995 856.512 103.727 858.92 101.319C861.328 98.8541 864.997 97.6214 869.928 97.6214C874.859 97.6214 878.528 98.8541 880.936 101.319C883.401 103.727 884.634 106.995 884.634 111.123V135.289C884.634 139.417 883.401 142.714 880.936 145.179C878.528 147.587 874.859 148.791 869.928 148.791C864.997 148.791 861.328 147.587 858.92 145.179C856.512 142.714 855.308 139.417 855.308 135.289V111.123ZM894.381 85.3234H902.465V147.931H894.381V85.3234ZM933.491 111.295C933.491 106.881 931.284 104.673 926.869 104.673C922.455 104.673 920.247 106.881 920.247 111.295V135.117C920.247 139.532 922.455 141.739 926.869 141.739C931.284 141.739 933.491 139.532 933.491 135.117V111.295ZM912.249 111.123C912.249 106.995 913.453 103.727 915.861 101.319C918.269 98.8541 921.939 97.6214 926.869 97.6214C931.8 97.6214 935.469 98.8541 937.877 101.319C940.343 103.727 941.575 106.995 941.575 111.123V135.289C941.575 139.417 940.343 142.714 937.877 145.179C935.469 147.587 931.8 148.791 926.869 148.791C921.939 148.791 918.269 147.587 915.861 145.179C913.453 142.714 912.249 139.417 912.249 135.289V111.123ZM983.228 101.663H980.304C978.986 101.663 977.868 101.921 976.95 102.437C978.556 104.444 979.358 107.11 979.358 110.435V117.487C979.358 121.501 978.126 124.625 975.66 126.861C973.252 129.097 969.583 130.244 964.652 130.301C961.958 130.301 960.61 131.563 960.61 134.085C960.61 135.289 960.954 136.149 961.642 136.665C962.388 137.181 963.678 137.439 965.512 137.439H970.5C978.642 137.439 982.712 140.851 982.712 147.673V149.135C982.712 156.875 977.237 160.745 966.286 160.745H962.932C956.683 160.745 951.953 159.742 948.742 157.735V150.167C952.526 152.633 957.199 153.865 962.76 153.865H965.512C968.952 153.865 971.389 153.464 972.822 152.661C974.256 151.859 974.972 150.655 974.972 149.049V148.275C974.972 146.899 974.6 145.896 973.854 145.265C973.166 144.577 971.79 144.233 969.726 144.233H964.48C957.084 144.233 953.386 141.739 953.386 136.751V135.375C953.386 132.165 954.906 130.215 957.944 129.527C952.154 127.865 949.258 123.851 949.258 117.487V110.435C949.258 106.365 950.491 103.211 952.956 100.975C955.479 98.7394 958.976 97.6214 963.448 97.6214C967.92 97.6214 971.36 98.3094 973.768 99.6854C974.972 96.0161 977.696 94.1814 981.938 94.1814H983.228V101.663ZM971.274 117.401V110.521C971.274 108.4 970.73 106.852 969.64 105.877C968.551 104.845 966.774 104.329 964.308 104.329C961.843 104.329 960.066 104.845 958.976 105.877C957.887 106.852 957.342 108.4 957.342 110.521V117.401C957.342 119.523 957.887 121.099 958.976 122.131C960.066 123.106 961.843 123.593 964.308 123.593C966.774 123.593 968.551 123.106 969.64 122.131C970.73 121.099 971.274 119.523 971.274 117.401ZM998.727 89.4514C998.727 92.6047 997.15 94.1814 993.997 94.1814C990.844 94.1814 989.267 92.6047 989.267 89.4514C989.267 86.2407 990.844 84.6354 993.997 84.6354C997.15 84.6354 998.727 86.2407 998.727 89.4514ZM989.955 99.0834H998.039V147.931H989.955V99.0834ZM1007.82 134.859V111.123C1007.82 106.995 1009.03 103.727 1011.44 101.319C1013.84 98.8541 1017.51 97.6214 1022.44 97.6214C1027.37 97.6214 1031.01 98.8541 1033.37 101.319C1035.72 103.727 1036.89 106.995 1036.89 111.123V126.861H1015.74V134.429C1015.74 136.723 1016.42 138.414 1017.8 139.503C1019.23 140.593 1021.7 141.137 1025.2 141.137C1028.75 141.137 1032.19 140.621 1035.52 139.589V146.985C1032.08 147.903 1028.41 148.361 1024.51 148.361C1013.38 148.361 1007.82 143.861 1007.82 134.859ZM1015.74 120.325H1029.24V111.209C1029.24 106.737 1026.97 104.501 1022.44 104.501C1017.97 104.501 1015.74 106.737 1015.74 111.209V120.325ZM1042.96 110.521C1042.96 106.336 1044.16 103.211 1046.57 101.147C1049.04 99.0834 1053.02 98.0514 1058.53 98.0514C1062.2 98.0514 1065.46 98.5101 1068.33 99.4274V106.823C1065.58 105.791 1062.54 105.275 1059.21 105.275C1055.89 105.275 1053.68 105.734 1052.59 106.651C1051.5 107.511 1050.96 108.945 1050.96 110.951V112.671C1050.96 114.219 1051.27 115.395 1051.9 116.197C1052.54 117 1053.74 117.86 1055.52 118.777L1062.83 122.733C1067.76 125.371 1070.22 128.925 1070.22 133.397V135.633C1070.22 144.119 1064.72 148.361 1053.71 148.361C1049.98 148.361 1046.46 147.931 1043.13 147.071V139.589C1046.06 140.564 1049.27 141.051 1052.76 141.051C1056.32 141.051 1058.76 140.593 1060.07 139.675C1061.45 138.758 1062.14 137.353 1062.14 135.461V133.999C1062.14 132.623 1061.77 131.534 1061.02 130.731C1060.33 129.871 1058.93 128.897 1056.81 127.807L1049.84 124.195C1045.25 121.845 1042.96 118.204 1042.96 113.273V110.521ZM333.038 233.791C327.935 233.791 324.065 232.501 321.428 229.921C318.791 227.341 317.472 223.93 317.472 219.687V187.953C317.472 183.653 318.762 180.213 321.342 177.633C323.979 175.053 327.849 173.763 332.952 173.763C338.112 173.763 342.011 175.082 344.648 177.719C347.285 180.299 348.604 183.711 348.604 187.953V219.687C348.604 224.79 346.827 228.574 343.272 231.039L352.818 241.273H342.928L335.876 233.619C334.729 233.734 333.783 233.791 333.038 233.791ZM325.556 188.211V219.343C325.556 224.102 328.05 226.481 333.038 226.481C338.026 226.481 340.52 224.102 340.52 219.343V188.211C340.52 183.51 338.026 181.159 333.038 181.159C328.05 181.159 325.556 183.51 325.556 188.211ZM371.809 225.793C374.217 225.793 376.567 225.077 378.861 223.643V183.481H387.031V232.931H379.291V230.609C376.309 232.272 373.013 233.103 369.401 233.103C365.789 233.103 362.979 232.071 360.973 230.007C358.966 227.943 357.963 224.962 357.963 221.063V183.481H366.133V219.945C366.133 223.844 368.025 225.793 371.809 225.793ZM402.687 218.741V221.321C402.687 223.213 403.117 224.618 403.977 225.535C404.895 226.453 406.643 226.911 409.223 226.911C411.861 226.911 414.269 226.023 416.447 224.245V209.883L408.277 212.119C406.041 212.75 404.551 213.553 403.805 214.527C403.06 215.445 402.687 216.849 402.687 218.741ZM397.097 184.685C400.365 183.596 404.522 183.051 409.567 183.051C419.371 183.051 424.273 187.495 424.273 196.381V232.931H416.533V229.405C414.011 231.928 410.685 233.189 406.557 233.189C398.645 233.189 394.689 229.205 394.689 221.235V218.397C394.689 215.187 395.521 212.607 397.183 210.657C398.846 208.651 401.512 207.131 405.181 206.099L416.447 203.003V196.381C416.447 194.26 415.874 192.741 414.727 191.823C413.581 190.849 411.144 190.361 407.417 190.361C403.748 190.361 400.308 190.935 397.097 192.081V184.685ZM442.222 185.717C445.892 184.112 449.303 183.309 452.456 183.309C455.667 183.309 458.276 184.284 460.282 186.233C462.346 188.125 463.378 190.877 463.378 194.489V232.931H455.122V195.865C455.122 192.483 453.431 190.791 450.048 190.791C447.583 190.791 445.089 191.422 442.566 192.683V232.931H434.482V183.481H442.222V185.717ZM481.961 174.623V183.481H491.937V190.447H481.961V221.149C481.961 224.475 483.681 226.137 487.121 226.137C488.784 226.137 490.647 225.793 492.711 225.105V232.415C492.654 232.415 492.367 232.473 491.851 232.587C491.392 232.702 490.905 232.817 490.389 232.931C488.841 233.275 487.35 233.447 485.917 233.447C477.89 233.447 473.877 229.549 473.877 221.751V190.447H468.717V183.481H474.135L476.543 174.623H481.961ZM508.09 174.451C508.09 177.605 506.514 179.181 503.36 179.181C500.207 179.181 498.63 177.605 498.63 174.451C498.63 171.241 500.207 169.635 503.36 169.635C506.514 169.635 508.09 171.241 508.09 174.451ZM499.318 184.083H507.402V232.931H499.318V184.083ZM538.085 190.791H532.409C527.65 190.791 525.271 193.056 525.271 197.585V219.859C525.271 223.815 527.192 225.793 531.033 225.793C533.957 225.793 536.308 225.019 538.085 223.471V190.791ZM531.463 183.481H546.255V245.745H538.171V230.953C535.935 232.387 532.982 233.103 529.313 233.103C521.229 233.103 517.187 228.889 517.187 220.461V197.413C517.187 193.113 518.42 189.731 520.885 187.265C523.408 184.743 526.934 183.481 531.463 183.481ZM570.264 225.793C572.672 225.793 575.022 225.077 577.316 223.643V183.481H585.486V232.931H577.746V230.609C574.764 232.272 571.468 233.103 567.856 233.103C564.244 233.103 561.434 232.071 559.428 230.007C557.421 227.943 556.418 224.962 556.418 221.063V183.481H564.588V219.945C564.588 223.844 566.48 225.793 570.264 225.793ZM595.208 219.859V196.123C595.208 191.995 596.412 188.727 598.82 186.319C601.228 183.854 604.898 182.621 609.828 182.621C614.759 182.621 618.4 183.854 620.75 186.319C623.101 188.727 624.276 191.995 624.276 196.123V211.861H603.12V219.429C603.12 221.723 603.808 223.414 605.184 224.503C606.618 225.593 609.083 226.137 612.58 226.137C616.135 226.137 619.575 225.621 622.9 224.589V231.985C619.46 232.903 615.791 233.361 611.892 233.361C600.77 233.361 595.208 228.861 595.208 219.859ZM603.12 205.325H616.622V196.209C616.622 191.737 614.358 189.501 609.828 189.501C605.356 189.501 603.12 191.737 603.12 196.209V205.325ZM630.345 195.521C630.345 191.336 631.549 188.211 633.957 186.147C636.423 184.083 640.407 183.051 645.911 183.051C649.581 183.051 652.849 183.51 655.715 184.427V191.823C652.963 190.791 649.925 190.275 646.599 190.275C643.274 190.275 641.067 190.734 639.977 191.651C638.888 192.511 638.343 193.945 638.343 195.951V197.671C638.343 199.219 638.659 200.395 639.289 201.197C639.92 202 641.124 202.86 642.901 203.777L650.211 207.733C655.142 210.371 657.607 213.925 657.607 218.397V220.633C657.607 229.119 652.103 233.361 641.095 233.361C637.369 233.361 633.843 232.931 630.517 232.071V224.589C633.441 225.564 636.652 226.051 640.149 226.051C643.704 226.051 646.141 225.593 647.459 224.675C648.835 223.758 649.523 222.353 649.523 220.461V218.999C649.523 217.623 649.151 216.534 648.405 215.731C647.717 214.871 646.313 213.897 644.191 212.807L637.225 209.195C632.639 206.845 630.345 203.204 630.345 198.273V195.521Z" fill="#231F20"/>
<path d="M316.935 33.1324H323.471V57.5134H331.426V62.9314H316.935V33.1324ZM344.916 31.4124C346.665 31.4124 347.539 32.2294 347.539 33.8634C347.539 34.9527 347.109 36.2857 346.249 37.8624C345.418 39.4391 344.543 40.8437 343.626 42.0764H340.874L342.68 31.4124H344.916ZM371.45 62.9314L370.203 56.0514H364.312L363.151 62.9314H357.002L362.85 33.1324H371.837L377.599 62.9314H371.45ZM365.215 50.5904H369.257L367.193 39.0664L365.215 50.5904ZM400.572 33.1324H406.936V62.9314H400.744C396.502 52.0954 394.051 45.5594 393.391 43.3234C393.993 45.5881 394.294 49.4867 394.294 55.0194V62.9314H387.93V33.1324H394.294L398.207 43.1084C399.87 47.3797 400.988 50.6191 401.561 52.8264C400.902 50.0457 400.572 45.9751 400.572 40.6144V33.1324ZM431.628 33.1324H437.992V62.9314H431.8C427.557 52.0954 425.106 45.5594 424.447 43.3234C425.049 45.5881 425.35 49.4867 425.35 55.0194V62.9314H418.986V33.1324H425.35L429.263 43.1084C430.926 47.3797 432.044 50.6191 432.617 52.8264C431.958 50.0457 431.628 45.9751 431.628 40.6144V33.1324ZM450.042 33.1324H465.135V38.7224H456.492V45.0434H463.974V50.6334H456.492V57.3414H465.135V62.9314H450.042V33.1324ZM457.61 26.5104H462.34L459.115 31.4554H455.718L457.61 26.5104ZM476.31 33.1324H491.403V38.7224H482.76V45.0434H490.242V50.6334H482.76V57.3414H491.403V62.9314H476.31V33.1324ZM518.728 33.1324H525.264V62.9314H518.728V33.1324ZM549.954 33.1324H556.318V62.9314H550.126C545.883 52.0954 543.432 45.5594 542.773 43.3234C543.375 45.5881 543.676 49.4867 543.676 55.0194V62.9314H537.312V33.1324H543.676L547.589 43.1084C549.251 47.3797 550.369 50.6191 550.943 52.8264C550.283 50.0457 549.954 45.9751 549.954 40.6144V33.1324ZM583.933 33.1324V38.7224H578.558V62.9314H572.022V38.7224H566.647V33.1324H583.933ZM594.258 33.1324H609.351V38.7224H600.708V45.0434H608.19V50.6334H600.708V57.3414H609.351V62.9314H594.258V33.1324ZM626.977 52.1814V62.9314H620.527V33.1324H630.245C632.595 33.1324 634.43 33.6914 635.749 34.8094C637.067 35.9274 637.727 37.5614 637.727 39.7114V45.2154C637.727 48.6554 636.551 50.8054 634.201 51.6654L638.888 62.9314H631.793L627.794 52.1814H626.977ZM626.977 38.6364V47.0644H629.514C630.173 47.0644 630.632 46.9211 630.89 46.6344C631.148 46.3477 631.277 45.8461 631.277 45.1294V40.2704C631.277 39.6397 631.133 39.2097 630.847 38.9804C630.56 38.7511 630.116 38.6364 629.514 38.6364H626.977ZM662.083 33.1324H668.447V62.9314H662.255C658.012 52.0954 655.561 45.5594 654.902 43.3234C655.504 45.5881 655.805 49.4867 655.805 55.0194V62.9314H649.441V33.1324H655.805L659.718 43.1084C661.381 47.3797 662.499 50.6191 663.072 52.8264C662.413 50.0457 662.083 45.9751 662.083 40.6144V33.1324ZM693.225 62.9314L691.978 56.0514H686.087L684.926 62.9314H678.777L684.625 33.1324H693.612L699.374 62.9314H693.225ZM686.99 50.5904H691.032L688.968 39.0664L686.99 50.5904ZM725.271 33.1324V38.7224H719.896V62.9314H713.36V38.7224H707.985V33.1324H725.271ZM735.595 33.1324H742.131V62.9314H735.595V33.1324ZM765.317 40.7434C765.317 39.3101 764.457 38.5934 762.737 38.5934C761.045 38.5934 760.2 39.3101 760.2 40.7434V55.3204C760.2 56.7537 761.045 57.4704 762.737 57.4704C764.457 57.4704 765.317 56.7537 765.317 55.3204V40.7434ZM753.75 40.3994C753.75 38.0487 754.509 36.1854 756.029 34.8094C757.548 33.4047 759.784 32.7024 762.737 32.7024C765.689 32.7024 767.925 33.4047 769.445 34.8094C770.993 36.1854 771.767 38.0487 771.767 40.3994V55.6644C771.767 58.0151 770.993 59.8927 769.445 61.2974C767.925 62.6734 765.689 63.3614 762.737 63.3614C759.784 63.3614 757.548 62.6734 756.029 61.2974C754.509 59.8927 753.75 58.0151 753.75 55.6644V40.3994ZM796.03 33.1324H802.394V62.9314H796.202C791.959 52.0954 789.508 45.5594 788.849 43.3234C789.451 45.5881 789.752 49.4867 789.752 55.0194V62.9314H783.388V33.1324H789.752L793.665 43.1084C795.327 47.3797 796.445 50.6191 797.019 52.8264C796.359 50.0457 796.03 45.9751 796.03 40.6144V33.1324ZM827.171 62.9314L825.924 56.0514H820.033L818.872 62.9314H812.723L818.571 33.1324H827.558L833.32 62.9314H827.171ZM820.936 50.5904H824.978L822.914 39.0664L820.936 50.5904ZM843.651 33.1324H850.187V57.5134H858.142V62.9314H843.651V33.1324ZM868.45 33.1324H883.543V38.7224H874.9V45.0434H882.382V50.6334H874.9V57.3414H883.543V62.9314H868.45V33.1324ZM922.176 40.0124C922.176 39.4964 922.047 39.1094 921.789 38.8514C921.56 38.5647 921.101 38.4214 920.413 38.4214H917.317V57.3844H920.413C921.589 57.3844 922.176 56.7251 922.176 55.4064V40.0124ZM910.867 33.1324H921.316C923.638 33.1324 925.43 33.6914 926.691 34.8094C927.981 35.9274 928.626 37.5757 928.626 39.7544V55.9224C928.626 60.5951 926.319 62.9314 921.703 62.9314H910.867V33.1324ZM940.244 33.1324H955.337V38.7224H946.694V45.0434H954.176V50.6334H946.694V57.3414H955.337V62.9314H940.244V33.1324ZM965.437 40.0984C965.437 37.8051 966.211 36.0421 967.759 34.8094C969.307 33.5481 971.529 32.9174 974.424 32.9174C977.348 32.9174 979.527 33.2184 980.96 33.8204V40.0124C979.211 39.2671 977.219 38.8944 974.983 38.8944C973.836 38.8944 973.062 39.0807 972.661 39.4534C972.26 39.7974 972.059 40.2991 972.059 40.9584V41.6034C972.059 42.4061 972.188 43.0081 972.446 43.4094C972.733 43.7821 973.335 44.2121 974.252 44.6994L979.154 47.4514C981.505 48.7414 982.68 50.6764 982.68 53.2564V55.9224C982.68 58.2444 981.82 60.0361 980.1 61.2974C978.38 62.5301 975.958 63.1464 972.833 63.1464C969.737 63.1464 967.401 62.8167 965.824 62.1574V55.9224C967.773 56.7537 969.981 57.1694 972.446 57.1694C974.911 57.1694 976.144 56.4671 976.144 55.0624V54.4174C976.144 53.7581 976.001 53.2707 975.714 52.9554C975.456 52.6114 974.954 52.2387 974.209 51.8374L969.608 49.3434C966.827 47.7954 965.437 45.6167 965.437 42.8074V40.0984Z" fill="#231F20"/>
<defs>
<linearGradient id="paint0_linear_8_303" x1="167.703" y1="238.559" x2="167.408" y2="124.139" gradientUnits="userSpaceOnUse">
<stop stop-color="#FDB714"/>
<stop offset="0.24" stop-color="#D2A029"/>
<stop offset="0.56" stop-color="#FDB714"/>
<stop offset="0.88" stop-color="#CF8D2A"/>
</linearGradient>
<linearGradient id="paint1_linear_8_303" x1="199.86" y1="140.844" x2="199.521" y2="7.85912" gradientUnits="userSpaceOnUse">
<stop stop-color="#CF8D2A"/>
<stop offset="0.43" stop-color="#D2A029"/>
<stop offset="0.49" stop-color="#CBA02F"/>
<stop offset="0.57" stop-color="#B6A241"/>
<stop offset="0.68" stop-color="#94A45D"/>
<stop offset="0.79" stop-color="#65A784"/>
<stop offset="0.92" stop-color="#2AAAB6"/>
<stop offset="1" stop-color="#00ADD9"/>
</linearGradient>
<linearGradient id="paint2_linear_8_303" x1="98.6951" y1="170.325" x2="132.735" y2="182.761" gradientUnits="userSpaceOnUse">
<stop offset="0.01" stop-color="#48773D"/>
<stop offset="0.08" stop-color="#447541"/>
<stop offset="0.16" stop-color="#39704E"/>
<stop offset="0.24" stop-color="#266762"/>
<stop offset="0.31" stop-color="#0C5A7F"/>
<stop offset="0.34" stop-color="#02558A"/>
<stop offset="0.58" stop-color="#193669"/>
<stop offset="0.81" stop-color="#02558A"/>
<stop offset="1" stop-color="#193669"/>
</linearGradient>
<linearGradient id="paint3_linear_8_303" x1="7.05087" y1="139.791" x2="179.89" y2="141.518" gradientUnits="userSpaceOnUse">
<stop offset="0.11" stop-color="#CF8D2A"/>
<stop offset="0.23" stop-color="#FDB714"/>
<stop offset="0.58" stop-color="#F36D25"/>
<stop offset="0.88" stop-color="#8E1937"/>
</linearGradient>
<linearGradient id="paint4_linear_8_303" x1="77.3504" y1="113.647" x2="182.609" y2="11.654" gradientUnits="userSpaceOnUse">
<stop offset="0.1" stop-color="#48773D"/>
<stop offset="0.26" stop-color="#269B48"/>
<stop offset="1" stop-color="#00ADD9"/>
</linearGradient>
<linearGradient id="paint5_linear_8_303" x1="26.0368" y1="137.404" x2="67.6487" y2="137.82" gradientUnits="userSpaceOnUse">
<stop stop-color="#017DBC"/>
<stop offset="0.47" stop-color="#02558A"/>
</linearGradient>
<linearGradient id="paint6_linear_8_303" x1="164.13" y1="164.228" x2="252.775" y2="90.0576" gradientUnits="userSpaceOnUse">
<stop stop-color="#8E1937"/>
<stop offset="0.42" stop-color="#EB1C2D"/>
<stop offset="1" stop-color="#E01284"/>
</linearGradient>
<linearGradient id="paint7_linear_8_303" x1="76.3315" y1="77.6877" x2="199.184" y2="78.9153" gradientUnits="userSpaceOnUse">
<stop stop-color="#017DBC"/>
<stop offset="0.53" stop-color="#F36D25"/>
<stop offset="0.99" stop-color="#E01284"/>
</linearGradient>
<linearGradient id="paint8_linear_8_303" x1="141.977" y1="250.522" x2="189.597" y2="167.992" gradientUnits="userSpaceOnUse">
<stop stop-color="#193669"/>
<stop offset="0.12" stop-color="#02558A"/>
<stop offset="0.26" stop-color="#017DBC"/>
<stop offset="0.53" stop-color="#3DB049"/>
<stop offset="0.54" stop-color="#3BAE49"/>
<stop offset="0.68" stop-color="#2BA048"/>
<stop offset="0.8" stop-color="#269B48"/>
<stop offset="1" stop-color="#269B48"/>
</linearGradient>
<linearGradient id="paint9_linear_8_303" x1="10.6086" y1="208.726" x2="133.12" y2="209.951" gradientUnits="userSpaceOnUse">
<stop stop-color="#017DBC"/>
<stop offset="0.53" stop-color="#EB1C2D"/>
<stop offset="0.86" stop-color="#D2A029"/>
<stop offset="1" stop-color="#EFAD14"/>
</linearGradient>
<linearGradient id="paint10_linear_8_303" x1="0.396443" y1="104.204" x2="138.252" y2="105.581" gradientUnits="userSpaceOnUse">
<stop stop-color="#CF8D2A"/>
<stop offset="0.47" stop-color="#D2A029"/>
<stop offset="0.77" stop-color="#48773D"/>
<stop offset="1" stop-color="#269B48"/>
</linearGradient>
<linearGradient id="paint11_linear_8_303" x1="195.709" y1="245.382" x2="196.594" y2="127.418" gradientUnits="userSpaceOnUse">
<stop stop-color="#FDB714"/>
<stop offset="0.24" stop-color="#D2A029"/>
<stop offset="0.56" stop-color="#FDB714"/>
<stop offset="0.88" stop-color="#CF8D2A"/>
</linearGradient>
</defs>
</svg>
