<svg width="857" height="268" viewBox="0 0 857 268" fill="none" xmlns="http://www.w3.org/2000/svg">
<path d="M122.622 237.224C118.545 237.208 115.124 234.146 114.654 230.093C114.185 226.04 116.816 222.276 120.781 221.326C123.015 220.786 125.249 220.196 127.435 219.533C138.473 216.171 148.919 211.106 158.396 204.52C165.664 199.429 172.263 193.444 178.039 186.705C178.039 186.705 181.672 182.282 183.146 180.243C190.313 170.379 195.66 159.311 198.933 147.563C200.48 142.108 201.806 136.432 202.935 130.682C203.824 126.336 208.03 123.504 212.388 124.318C214.486 124.728 216.334 125.955 217.527 127.73C218.719 129.504 219.159 131.68 218.748 133.778C217.545 139.946 216.096 146.064 214.451 151.912C210.653 165.503 204.468 178.308 196.183 189.728C194.514 192.013 190.389 197.099 190.389 197.099C183.666 204.929 175.977 211.873 167.505 217.764C156.633 225.32 144.645 231.124 131.977 234.964C129.44 235.734 126.886 236.422 124.316 237.028C123.76 237.155 123.192 237.221 122.622 237.224Z" fill="url(#paint0_linear_8_285)"/>
<path d="M210.989 140.314C210.502 140.314 210.017 140.264 209.54 140.167C207.436 139.785 205.57 138.58 204.354 136.819C203.138 135.059 202.672 132.886 203.058 130.781C204.286 124.097 205.784 114.22 206.373 107.217L206.692 102.818C207.55 90.9688 207.089 79.0604 205.317 67.3127C203.855 56.1063 200.075 45.3278 194.219 35.6647C190.724 30.1596 186.032 25.5148 180.494 22.0766C177.882 20.6696 176.255 17.9396 176.258 14.9711C176.261 12.0026 177.895 9.27629 180.51 7.87506C183.125 6.47384 186.298 6.62461 188.768 8.26748C196.432 12.9792 202.916 19.3839 207.723 26.9909C214.807 38.5442 219.406 51.4485 221.228 64.8801C223.181 77.8308 223.7 90.9578 222.774 104.022L222.431 108.666C221.792 116.234 220.196 126.751 218.92 133.803C218.169 137.59 214.847 140.318 210.989 140.314Z" fill="url(#paint1_linear_8_285)"/>
<path d="M138.238 264.99C137.087 264.996 135.948 264.753 134.899 264.277C132.906 263.358 130.986 262.29 129.153 261.083C121.57 255.843 114.928 249.354 109.511 241.893C102.988 233.414 97.2363 224.368 92.3237 214.864C80.5207 191.696 74.4655 166.024 74.6701 140.02C74.6768 133.749 75.0129 127.483 75.6767 121.247C75.8722 118.302 77.6608 115.699 80.339 114.463C83.0173 113.226 86.1566 113.554 88.5222 115.317C90.8879 117.08 92.1014 119.996 91.6854 122.918C91.0961 128.643 90.8014 134.417 90.7769 140.118C90.7343 152.542 92.2354 164.922 95.2456 176.975C97.9638 187.523 101.851 197.735 106.835 207.419C111.286 216.109 116.495 224.389 122.401 232.163C126.703 238.141 131.983 243.349 138.017 247.569C139.172 248.345 140.387 249.027 141.651 249.608C145.085 251.188 146.958 254.946 146.156 258.642C145.354 262.338 142.091 264.978 138.312 264.99H138.238Z" fill="url(#paint2_linear_8_285)"/>
<path d="M171.213 174.911H170.673C156.443 173.714 142.294 171.704 128.294 168.891L123.531 167.834C112.629 165.377 101.065 162.158 89.1565 158.35C76.0697 154.222 63.6949 149.627 52.3268 144.762C42.6756 140.675 33.3082 135.946 24.2872 130.609L23.1577 129.896C17.8238 126.973 12.937 123.299 8.64683 118.986C6.22187 117 5.16892 113.785 5.94782 110.747C6.72672 107.709 9.19598 105.4 12.2773 104.827C15.3585 104.254 18.4921 105.522 20.3096 108.077C23.5973 111.246 27.2972 113.957 31.3093 116.136L32.4879 116.849C40.8624 121.805 49.5664 126.18 58.5387 129.945C69.3421 134.589 81.2013 138.988 93.797 142.968C105.362 146.629 116.656 149.701 126.968 152.084L131.535 153.092C144.863 155.761 158.332 157.672 171.876 158.817C176.195 159.155 179.474 162.852 179.295 167.184C179.117 171.516 175.545 174.93 171.213 174.911Z" fill="url(#paint3_linear_8_285)"/>
<path d="M83.7793 129.38H82.8954C80.7469 129.146 78.7817 128.061 77.439 126.366C76.0963 124.672 75.4881 122.509 75.7504 120.362C76.819 110.908 78.5087 101.534 80.8084 92.3019C84.5158 76.8206 90.3669 61.9337 98.192 48.0732C104.518 36.8314 112.695 26.7383 122.377 18.2189C130.361 11.1646 139.788 5.94018 149.999 2.91091C158.959 0.230334 168.513 0.273093 177.449 3.03376C180.905 4.13791 184.243 5.57812 187.418 7.33377C189.927 8.7515 191.489 11.401 191.517 14.2841C191.544 17.1673 190.033 19.8461 187.551 21.3116C185.07 22.777 181.996 22.8064 179.487 21.3886C177.239 20.124 174.87 19.0868 172.416 18.2926C166.518 16.4967 160.219 16.4967 154.32 18.2926C146.379 20.725 139.058 24.8492 132.861 30.3818C124.548 37.6934 117.54 46.3682 112.138 56.0344C105.073 68.5814 99.7925 82.0536 96.4487 96.0613C94.2981 104.609 92.7394 113.295 91.7836 122.058C91.3924 126.195 87.9313 129.361 83.7793 129.38Z" fill="url(#paint4_linear_8_285)"/>
<path d="M17.6333 192.701C14.1612 192.704 11.0803 190.474 9.9973 187.172C6.57891 176.72 5.8443 165.574 7.86118 154.762C10.1648 143.176 15.2173 132.314 22.593 123.09C30.1313 113.555 39.0334 105.184 49.0122 98.2482C57.1296 92.503 65.6932 87.4169 74.6211 83.0384C77.2001 81.7612 80.264 81.9578 82.6588 83.5543C85.0536 85.1507 86.4155 87.9045 86.2313 90.7783C86.0472 93.652 84.345 96.2092 81.766 97.4864C73.5999 101.489 65.767 106.14 58.3424 111.394C49.6995 117.384 41.9672 124.592 35.3852 132.796C29.566 139.976 25.5651 148.455 23.7225 157.515C22.1619 165.706 22.7025 174.16 25.2939 182.086C26.6828 186.313 24.3857 190.867 20.1623 192.259C19.3476 192.538 18.4942 192.687 17.6333 192.701Z" fill="url(#paint5_linear_8_285)"/>
<path d="M184.349 175.304C179.856 175.304 175.313 175.304 170.722 174.911C166.329 174.571 163.025 170.761 163.307 166.36C163.647 161.953 167.414 158.607 171.827 158.792C181.158 159.385 190.521 159.311 199.842 158.571H201.438C211.578 157.76 220.319 157.048 230.337 153.387C238.317 150.487 252.115 143.73 255.062 131.076C257.517 120.461 251.158 109.821 248.285 105.743C243.035 98.5867 236.182 92.7629 228.274 88.7391C220.085 84.475 211.389 81.2635 202.395 79.1808C198.639 78.3208 194.833 77.6328 191.003 77.1414C186.591 76.543 183.488 72.494 184.054 68.0745C184.323 65.9513 185.429 64.024 187.127 62.7223C188.824 61.4205 190.971 60.8527 193.09 61.1454C197.46 61.7105 201.806 62.5214 206.029 63.4796C216.359 65.86 226.343 69.551 235.738 74.4631C245.93 79.6576 254.748 87.1937 261.47 96.4545C266.577 103.826 274.582 118.397 270.751 134.737C265.939 154.763 246.787 164.395 235.714 168.424C223.658 172.823 213.444 173.633 202.616 174.518H201.02C195.594 175.083 190.021 175.304 184.349 175.304Z" fill="url(#paint6_linear_8_285)"/>
<path d="M84.0004 95.6437C80.1951 95.6687 76.8916 93.025 76.0793 89.3046C75.267 85.5842 77.1676 81.8025 80.6366 80.2371C90.8031 75.5908 101.32 71.754 112.089 68.7623C122.476 65.9127 133.019 63.6648 143.664 62.0297C154.061 60.4147 164.572 59.6504 175.092 59.7446C180.533 59.8194 185.966 60.1721 191.371 60.8011C195.787 61.339 198.937 65.3484 198.418 69.7697C198.192 71.9063 197.112 73.8606 195.424 75.1886C193.736 76.5166 191.584 77.1056 189.456 76.8217C184.614 76.2498 179.746 75.9299 174.871 75.8634C165.245 75.7395 155.625 76.4465 146.12 77.9766C136.111 79.5274 126.2 81.6523 116.435 84.3406C106.51 87.0807 96.8217 90.6139 87.4624 94.9063C86.3755 95.4005 85.1942 95.6521 84.0004 95.6437Z" fill="url(#paint7_linear_8_285)"/>
<path d="M146.586 267.03C143.492 266.982 140.428 266.409 137.526 265.334C133.578 263.657 131.628 259.186 133.084 255.149C134.539 251.111 138.893 248.916 143.001 250.149C144.465 250.767 146.066 250.988 147.642 250.788C148.477 250.616 150.097 250.247 153.019 242.311C155.966 233.981 154.713 173.51 123.555 135.228C120.742 131.774 121.258 126.692 124.709 123.876C128.161 121.06 133.239 121.577 136.053 125.031C172.342 169.751 172.392 235.848 168.218 247.741C165.198 256.267 160.999 264.474 151.03 266.587C149.569 266.89 148.079 267.038 146.586 267.03Z" fill="url(#paint8_linear_8_285)"/>
<path d="M97.5291 240.468H93.085C80.4795 240.311 68.0048 237.889 56.2553 233.318C45.5361 229.21 35.7627 222.965 27.5281 214.963C19.666 207.375 13.7165 198.027 10.1691 187.688C8.73848 183.468 10.9975 178.886 15.2148 177.454C19.432 176.023 24.0105 178.283 25.4411 182.504C28.1685 190.438 32.7475 197.606 38.798 203.414C45.5232 209.847 53.4723 214.86 62.1726 218.157C72.1253 222.052 82.6943 224.132 93.3796 224.3C103.017 224.811 112.672 223.732 121.959 221.106C126.217 219.81 130.719 222.213 132.014 226.474C133.309 230.735 130.907 235.24 126.649 236.536C117.2 239.325 107.379 240.651 97.5291 240.468Z" fill="url(#paint9_linear_8_285)"/>
<path d="M129.743 138.226C127.315 138.23 125.014 137.138 123.482 135.253C87.9288 91.5401 47.9072 80.6796 24.1398 89.2304C20.4479 90.2074 17.495 92.9778 16.2828 96.6019C15.6346 100.75 17.0885 104.949 20.1622 107.806C23.2811 110.995 23.2261 116.111 20.0394 119.232C16.8527 122.353 11.7411 122.298 8.62223 119.109C1.67739 112.358 -1.35728 102.535 0.568806 93.039C2.60671 84.2916 9.01508 77.559 18.689 74.0698C45.6974 64.2413 92.643 71.8093 135.979 125.056C138.784 128.512 138.268 133.587 134.825 136.408C133.394 137.586 131.596 138.229 129.743 138.226Z" fill="url(#paint10_linear_8_285)"/>
<path d="M206.422 148.497C203.951 148.458 201.487 148.211 199.056 147.76C195.777 159.429 190.448 170.42 183.318 180.219C181.845 182.258 178.186 186.705 178.211 186.705C178.235 186.705 177.744 187.148 177.548 187.393C181.461 191.381 184.453 196.179 186.313 201.448C187.688 199.999 189.211 198.672 190.512 197.148C190.512 197.148 194.661 192.087 196.331 189.777C204.624 178.372 210.811 165.573 214.598 151.986C214.991 150.585 215.261 149.062 215.63 147.612C212.601 148.233 209.514 148.53 206.422 148.497Z" fill="url(#paint11_linear_8_285)"/>
<path d="M333.038 148.791C327.935 148.791 324.065 147.501 321.428 144.921C318.791 142.341 317.472 138.93 317.472 134.687V102.953C317.472 98.6534 318.762 95.2134 321.342 92.6334C323.979 90.0534 327.849 88.7634 332.952 88.7634C338.112 88.7634 342.011 90.0821 344.648 92.7194C347.285 95.2994 348.604 98.7107 348.604 102.953V134.687C348.604 139.79 346.827 143.574 343.272 146.039L352.818 156.273H342.928L335.876 148.619C334.729 148.734 333.783 148.791 333.038 148.791ZM325.556 103.211V134.343C325.556 139.102 328.05 141.481 333.038 141.481C338.026 141.481 340.52 139.102 340.52 134.343V103.211C340.52 98.5101 338.026 96.1594 333.038 96.1594C328.05 96.1594 325.556 98.5101 325.556 103.211ZM371.809 140.793C374.217 140.793 376.567 140.077 378.861 138.643V98.4814H387.031V147.931H379.291V145.609C376.309 147.272 373.013 148.103 369.401 148.103C365.789 148.103 362.979 147.071 360.973 145.007C358.966 142.943 357.963 139.962 357.963 136.063V98.4814H366.133V134.945C366.133 138.844 368.025 140.793 371.809 140.793ZM402.687 133.741V136.321C402.687 138.213 403.117 139.618 403.977 140.535C404.895 141.453 406.643 141.911 409.223 141.911C411.861 141.911 414.269 141.023 416.447 139.245V124.883L408.277 127.119C406.041 127.75 404.551 128.553 403.805 129.527C403.06 130.445 402.687 131.849 402.687 133.741ZM397.097 99.6854C400.365 98.5961 404.522 98.0514 409.567 98.0514C419.371 98.0514 424.273 102.495 424.273 111.381V147.931H416.533V144.405C414.011 146.928 410.685 148.189 406.557 148.189C398.645 148.189 394.689 144.205 394.689 136.235V133.397C394.689 130.187 395.521 127.607 397.183 125.657C398.846 123.651 401.512 122.131 405.181 121.099L416.447 118.003V111.381C416.447 109.26 415.874 107.741 414.727 106.823C413.581 105.849 411.144 105.361 407.417 105.361C403.748 105.361 400.308 105.935 397.097 107.081V99.6854ZM442.222 100.717C445.892 99.1121 449.303 98.3094 452.456 98.3094C455.667 98.3094 458.276 99.2841 460.282 101.233C462.346 103.125 463.378 105.877 463.378 109.489V147.931H455.122V110.865C455.122 107.483 453.431 105.791 450.048 105.791C447.583 105.791 445.089 106.422 442.566 107.683V147.931H434.482V98.4814H442.222V100.717ZM481.961 89.6234V98.4814H491.937V105.447H481.961V136.149C481.961 139.475 483.681 141.137 487.121 141.137C488.784 141.137 490.647 140.793 492.711 140.105V147.415C492.654 147.415 492.367 147.473 491.851 147.587C491.392 147.702 490.905 147.817 490.389 147.931C488.841 148.275 487.35 148.447 485.917 148.447C477.89 148.447 473.877 144.549 473.877 136.751V105.447H468.717V98.4814H474.135L476.543 89.6234H481.961ZM512.734 140.793C515.142 140.793 517.493 140.077 519.786 138.643V98.4814H527.956V147.931H520.216V145.609C517.235 147.272 513.938 148.103 510.326 148.103C506.714 148.103 503.905 147.071 501.898 145.007C499.892 142.943 498.888 139.962 498.888 136.063V98.4814H507.058V134.945C507.058 138.844 508.95 140.793 512.734 140.793ZM564.769 101.663C568.668 99.4274 572.509 98.3094 576.293 98.3094C580.134 98.3094 583.058 99.2554 585.065 101.147C587.129 103.039 588.161 105.82 588.161 109.489V147.931H579.991V110.865C579.991 107.483 578.271 105.791 574.831 105.791C572.079 105.791 569.47 106.565 567.005 108.113C567.292 108.744 567.435 109.633 567.435 110.779V147.931H559.179V110.865C559.179 107.483 557.488 105.791 554.105 105.791C551.64 105.791 549.146 106.422 546.623 107.683V147.931H538.539V98.4814H546.279V100.717C549.948 99.1121 553.446 98.3094 556.771 98.3094C560.096 98.3094 562.762 99.4274 564.769 101.663ZM611.533 102.007C611.533 97.9367 612.852 94.7834 615.489 92.5474C618.184 90.3114 621.996 89.1934 626.927 89.1934C631.858 89.1934 635.871 89.7094 638.967 90.7414V98.4814C635.871 97.2774 632.116 96.6754 627.701 96.6754C622.369 96.6754 619.703 98.6534 619.703 102.609V105.963C619.703 107.798 620.047 109.26 620.735 110.349C621.48 111.381 622.77 112.413 624.605 113.445L634.581 119.035C639.225 121.558 641.547 125.371 641.547 130.473V135.289C641.547 139.475 640.085 142.714 637.161 145.007C634.237 147.243 630.109 148.361 624.777 148.361C619.502 148.361 615.26 147.759 612.049 146.555V138.815C615.833 140.191 619.818 140.879 624.003 140.879C630.252 140.879 633.377 138.758 633.377 134.515V131.591C633.377 129.871 633.062 128.553 632.431 127.635C631.8 126.661 630.625 125.715 628.905 124.797L619.187 119.465C614.084 116.713 611.533 112.614 611.533 107.167V102.007ZM648.454 111.123C648.454 102.409 653.5 98.0514 663.59 98.0514C667.202 98.0514 670.413 98.4527 673.222 99.2554V106.737C670.356 105.935 667.432 105.533 664.45 105.533C661.526 105.533 659.462 106.021 658.258 106.995C657.112 107.97 656.538 109.518 656.538 111.639V134.859C656.538 136.981 657.112 138.529 658.258 139.503C659.462 140.478 661.584 140.965 664.622 140.965C667.661 140.965 670.556 140.507 673.308 139.589V147.157C669.983 147.96 666.744 148.361 663.59 148.361C653.5 148.361 648.454 144.004 648.454 135.289V111.123ZM690.084 89.4514C690.084 92.6047 688.508 94.1814 685.354 94.1814C682.201 94.1814 680.624 92.6047 680.624 89.4514C680.624 86.2407 682.201 84.6354 685.354 84.6354C688.508 84.6354 690.084 86.2407 690.084 89.4514ZM681.312 99.0834H689.396V147.931H681.312V99.0834ZM699.181 134.859V111.123C699.181 106.995 700.385 103.727 702.793 101.319C705.201 98.8541 708.87 97.6214 713.801 97.6214C718.732 97.6214 722.372 98.8541 724.723 101.319C727.074 103.727 728.249 106.995 728.249 111.123V126.861H707.093V134.429C707.093 136.723 707.781 138.414 709.157 139.503C710.59 140.593 713.056 141.137 716.553 141.137C720.108 141.137 723.548 140.621 726.873 139.589V146.985C723.433 147.903 719.764 148.361 715.865 148.361C704.742 148.361 699.181 143.861 699.181 134.859ZM707.093 120.325H720.595V111.209C720.595 106.737 718.33 104.501 713.801 104.501C709.329 104.501 707.093 106.737 707.093 111.209V120.325ZM745.154 100.717C748.823 99.1121 752.235 98.3094 755.388 98.3094C758.599 98.3094 761.207 99.2841 763.214 101.233C765.278 103.125 766.31 105.877 766.31 109.489V147.931H758.054V110.865C758.054 107.483 756.363 105.791 752.98 105.791C750.515 105.791 748.021 106.422 745.498 107.683V147.931H737.414V98.4814H745.154V100.717ZM775.691 111.123C775.691 102.409 780.736 98.0514 790.827 98.0514C794.439 98.0514 797.649 98.4527 800.459 99.2554V106.737C797.592 105.935 794.668 105.533 791.687 105.533C788.763 105.533 786.699 106.021 785.495 106.995C784.348 107.97 783.775 109.518 783.775 111.639V134.859C783.775 136.981 784.348 138.529 785.495 139.503C786.699 140.478 788.82 140.965 791.859 140.965C794.897 140.965 797.793 140.507 800.545 139.589V147.157C797.219 147.96 793.98 148.361 790.827 148.361C780.736 148.361 775.691 144.004 775.691 135.289V111.123ZM807.689 134.859V111.123C807.689 106.995 808.893 103.727 811.301 101.319C813.709 98.8541 817.378 97.6214 822.309 97.6214C827.239 97.6214 830.88 98.8541 833.231 101.319C835.581 103.727 836.757 106.995 836.757 111.123V126.861H815.601V134.429C815.601 136.723 816.289 138.414 817.665 139.503C819.098 140.593 821.563 141.137 825.061 141.137C828.615 141.137 832.055 140.621 835.381 139.589V146.985C831.941 147.903 828.271 148.361 824.373 148.361C813.25 148.361 807.689 143.861 807.689 134.859ZM815.601 120.325H829.103V111.209C829.103 106.737 826.838 104.501 822.309 104.501C817.837 104.501 815.601 106.737 815.601 111.209V120.325ZM323.406 218.741V221.321C323.406 223.213 323.836 224.618 324.696 225.535C325.613 226.453 327.362 226.911 329.942 226.911C332.579 226.911 334.987 226.023 337.166 224.245V209.883L328.996 212.119C326.76 212.75 325.269 213.553 324.524 214.527C323.779 215.445 323.406 216.849 323.406 218.741ZM317.816 184.685C321.084 183.596 325.241 183.051 330.286 183.051C340.09 183.051 344.992 187.495 344.992 196.381V232.931H337.252V229.405C334.729 231.928 331.404 233.189 327.276 233.189C319.364 233.189 315.408 229.205 315.408 221.235V218.397C315.408 215.187 316.239 212.607 317.902 210.657C319.565 208.651 322.231 207.131 325.9 206.099L337.166 203.003V196.381C337.166 194.26 336.593 192.741 335.446 191.823C334.299 190.849 331.863 190.361 328.136 190.361C324.467 190.361 321.027 190.935 317.816 192.081V184.685ZM362.941 185.717C366.61 184.112 370.022 183.309 373.175 183.309C376.386 183.309 378.994 184.284 381.001 186.233C383.065 188.125 384.097 190.877 384.097 194.489V232.931H375.841V195.865C375.841 192.483 374.15 190.791 370.767 190.791C368.302 190.791 365.808 191.422 363.285 192.683V232.931H355.201V183.481H362.941V185.717ZM414.376 190.791H408.528C403.884 190.791 401.562 192.97 401.562 197.327V220.117C401.562 223.959 403.454 225.879 407.238 225.879C410.277 225.879 412.656 225.077 414.376 223.471V190.791ZM414.376 170.323H422.546V232.931H414.548V229.835C412.197 232.071 409.101 233.189 405.26 233.189C401.419 233.189 398.495 232.157 396.488 230.093C394.481 227.972 393.478 224.962 393.478 221.063V197.069C393.478 192.827 394.711 189.501 397.176 187.093C399.641 184.685 403.081 183.481 407.496 183.481H414.376V170.323ZM475.062 174.623V181.761H463.968V232.931H455.798V181.761H444.704V174.623H475.062ZM480.15 219.859V196.123C480.15 191.995 481.354 188.727 483.762 186.319C486.17 183.854 489.839 182.621 494.77 182.621C499.7 182.621 503.341 183.854 505.692 186.319C508.042 188.727 509.218 191.995 509.218 196.123V211.861H488.062V219.429C488.062 221.723 488.75 223.414 490.126 224.503C491.559 225.593 494.024 226.137 497.522 226.137C501.076 226.137 504.516 225.621 507.842 224.589V231.985C504.402 232.903 500.732 233.361 496.834 233.361C485.711 233.361 480.15 228.861 480.15 219.859ZM488.062 205.325H501.564V196.209C501.564 191.737 499.299 189.501 494.77 189.501C490.298 189.501 488.062 191.737 488.062 196.209V205.325ZM517.523 196.123C517.523 187.409 522.568 183.051 532.659 183.051C536.271 183.051 539.481 183.453 542.291 184.255V191.737C539.424 190.935 536.5 190.533 533.519 190.533C530.595 190.533 528.531 191.021 527.327 191.995C526.18 192.97 525.607 194.518 525.607 196.639V219.859C525.607 221.981 526.18 223.529 527.327 224.503C528.531 225.478 530.652 225.965 533.691 225.965C536.729 225.965 539.625 225.507 542.377 224.589V232.157C539.051 232.96 535.812 233.361 532.659 233.361C522.568 233.361 517.523 229.004 517.523 220.289V196.123ZM550.381 170.323H558.465V185.115C561.389 183.854 564.513 183.223 567.839 183.223C571.221 183.223 573.973 184.169 576.095 186.061C578.216 187.953 579.277 190.763 579.277 194.489V232.931H571.021V195.865C571.021 192.483 569.329 190.791 565.947 190.791C563.367 190.791 560.873 191.393 558.465 192.597V232.931H550.381V170.323ZM597.258 185.717C600.927 184.112 604.338 183.309 607.492 183.309C610.702 183.309 613.311 184.284 615.318 186.233C617.382 188.125 618.414 190.877 618.414 194.489V232.931H610.158V195.865C610.158 192.483 608.466 190.791 605.084 190.791C602.618 190.791 600.124 191.422 597.602 192.683V232.931H589.518V183.481H597.258V185.717ZM649.036 196.295C649.036 191.881 646.829 189.673 642.414 189.673C638 189.673 635.792 191.881 635.792 196.295V220.117C635.792 224.532 638 226.739 642.414 226.739C646.829 226.739 649.036 224.532 649.036 220.117V196.295ZM627.794 196.123C627.794 191.995 628.998 188.727 631.406 186.319C633.814 183.854 637.484 182.621 642.414 182.621C647.345 182.621 651.014 183.854 653.422 186.319C655.888 188.727 657.12 191.995 657.12 196.123V220.289C657.12 224.417 655.888 227.714 653.422 230.179C651.014 232.587 647.345 233.791 642.414 233.791C637.484 233.791 633.814 232.587 631.406 230.179C628.998 227.714 627.794 224.417 627.794 220.289V196.123ZM666.867 170.323H674.951V232.931H666.867V170.323ZM705.978 196.295C705.978 191.881 703.77 189.673 699.356 189.673C694.941 189.673 692.734 191.881 692.734 196.295V220.117C692.734 224.532 694.941 226.739 699.356 226.739C703.77 226.739 705.978 224.532 705.978 220.117V196.295ZM684.736 196.123C684.736 191.995 685.94 188.727 688.348 186.319C690.756 183.854 694.425 182.621 699.356 182.621C704.286 182.621 707.956 183.854 710.364 186.319C712.829 188.727 714.062 191.995 714.062 196.123V220.289C714.062 224.417 712.829 227.714 710.364 230.179C707.956 232.587 704.286 233.791 699.356 233.791C694.425 233.791 690.756 232.587 688.348 230.179C685.94 227.714 684.736 224.417 684.736 220.289V196.123ZM755.715 186.663H752.791C751.472 186.663 750.354 186.921 749.437 187.437C751.042 189.444 751.845 192.11 751.845 195.435V202.487C751.845 206.501 750.612 209.625 748.147 211.861C745.739 214.097 742.069 215.244 737.139 215.301C734.444 215.301 733.097 216.563 733.097 219.085C733.097 220.289 733.441 221.149 734.129 221.665C734.874 222.181 736.164 222.439 737.999 222.439H742.987C751.128 222.439 755.199 225.851 755.199 232.673V234.135C755.199 241.875 749.723 245.745 738.773 245.745H735.419C729.169 245.745 724.439 244.742 721.229 242.735V235.167C725.013 237.633 729.685 238.865 735.247 238.865H737.999C741.439 238.865 743.875 238.464 745.309 237.661C746.742 236.859 747.459 235.655 747.459 234.049V233.275C747.459 231.899 747.086 230.896 746.341 230.265C745.653 229.577 744.277 229.233 742.213 229.233H736.967C729.571 229.233 725.873 226.739 725.873 221.751V220.375C725.873 217.165 727.392 215.215 730.431 214.527C724.64 212.865 721.745 208.851 721.745 202.487V195.435C721.745 191.365 722.977 188.211 725.443 185.975C727.965 183.739 731.463 182.621 735.935 182.621C740.407 182.621 743.847 183.309 746.255 184.685C747.459 181.016 750.182 179.181 754.425 179.181H755.715V186.663ZM743.761 202.401V195.521C743.761 193.4 743.216 191.852 742.127 190.877C741.037 189.845 739.26 189.329 736.795 189.329C734.329 189.329 732.552 189.845 731.463 190.877C730.373 191.852 729.829 193.4 729.829 195.521V202.401C729.829 204.523 730.373 206.099 731.463 207.131C732.552 208.106 734.329 208.593 736.795 208.593C739.26 208.593 741.037 208.106 742.127 207.131C743.216 206.099 743.761 204.523 743.761 202.401ZM782.651 183.481H790.649L777.663 245.745H769.837L772.417 232.931H768.977L758.485 183.481H766.569C770.984 205.096 773.65 219.573 774.567 226.911C775.485 220.089 776.689 212.922 778.179 205.411L782.651 183.481Z" fill="#231F20"/>
<path d="M316.935 33.1324H323.471V62.9314H316.935V33.1324ZM348.161 33.1324H354.525V62.9314H348.333C344.09 52.0954 341.639 45.5594 340.98 43.3234C341.582 45.5881 341.883 49.4867 341.883 55.0194V62.9314H335.519V33.1324H341.883L345.796 43.1084C347.459 47.3797 348.577 50.6191 349.15 52.8264C348.491 50.0457 348.161 45.9751 348.161 40.6144V33.1324ZM382.141 33.1324V38.7224H376.766V62.9314H370.23V38.7224H364.855V33.1324H382.141ZM392.466 33.1324H407.559V38.7224H398.916V45.0434H406.398V50.6334H398.916V57.3414H407.559V62.9314H392.466V33.1324ZM425.184 52.1814V62.9314H418.734V33.1324H428.452C430.803 33.1324 432.637 33.6914 433.956 34.8094C435.275 35.9274 435.934 37.5614 435.934 39.7114V45.2154C435.934 48.6554 434.759 50.8054 432.408 51.6654L437.095 62.9314H430L426.001 52.1814H425.184ZM425.184 38.6364V47.0644H427.721C428.38 47.0644 428.839 46.9211 429.097 46.6344C429.355 46.3477 429.484 45.8461 429.484 45.1294V40.2704C429.484 39.6397 429.341 39.2097 429.054 38.9804C428.767 38.7511 428.323 38.6364 427.721 38.6364H425.184ZM460.29 33.1324H466.654V62.9314H460.462C456.22 52.0954 453.769 45.5594 453.109 43.3234C453.711 45.5881 454.012 49.4867 454.012 55.0194V62.9314H447.648V33.1324H454.012L457.925 43.1084C459.588 47.3797 460.706 50.6191 461.279 52.8264C460.62 50.0457 460.29 45.9751 460.29 40.6144V33.1324ZM491.432 62.9314L490.185 56.0514H484.294L483.133 62.9314H476.984L482.832 33.1324H491.819L497.581 62.9314H491.432ZM485.197 50.5904H489.239L487.175 39.0664L485.197 50.5904ZM523.478 33.1324V38.7224H518.103V62.9314H511.567V38.7224H506.192V33.1324H523.478ZM533.803 33.1324H540.339V62.9314H533.803V33.1324ZM563.524 40.7434C563.524 39.3101 562.664 38.5934 560.944 38.5934C559.253 38.5934 558.407 39.3101 558.407 40.7434V55.3204C558.407 56.7537 559.253 57.4704 560.944 57.4704C562.664 57.4704 563.524 56.7537 563.524 55.3204V40.7434ZM551.957 40.3994C551.957 38.0487 552.717 36.1854 554.236 34.8094C555.755 33.4047 557.991 32.7024 560.944 32.7024C563.897 32.7024 566.133 33.4047 567.652 34.8094C569.2 36.1854 569.974 38.0487 569.974 40.3994V55.6644C569.974 58.0151 569.2 59.8927 567.652 61.2974C566.133 62.6734 563.897 63.3614 560.944 63.3614C557.991 63.3614 555.755 62.6734 554.236 61.2974C552.717 59.8927 551.957 58.0151 551.957 55.6644V40.3994ZM594.237 33.1324H600.601V62.9314H594.409C590.166 52.0954 587.715 45.5594 587.056 43.3234C587.658 45.5881 587.959 49.4867 587.959 55.0194V62.9314H581.595V33.1324H587.959L591.872 43.1084C593.535 47.3797 594.653 50.6191 595.226 52.8264C594.567 50.0457 594.237 45.9751 594.237 40.6144V33.1324ZM625.379 62.9314L624.132 56.0514H618.241L617.08 62.9314H610.931L616.779 33.1324H625.766L631.528 62.9314H625.379ZM619.144 50.5904H623.186L621.122 39.0664L619.144 50.5904ZM641.859 33.1324H648.395V57.5134H656.35V62.9314H641.859V33.1324ZM694.502 62.9314H687.966V53.6864L680.871 33.1324H687.493L688.912 37.6474C690.03 41.1734 690.833 44.2981 691.32 47.0214C691.865 44.2407 692.682 41.0874 693.771 37.5614L695.147 33.1324H701.597L694.502 53.6864V62.9314ZM711.72 33.1324H726.813V38.7224H718.17V45.0434H725.652V50.6334H718.17V57.3414H726.813V62.9314H711.72V33.1324ZM750.717 62.9314L749.47 56.0514H743.579L742.418 62.9314H736.269L742.117 33.1324H751.104L756.866 62.9314H750.717ZM744.482 50.5904H748.524L746.46 39.0664L744.482 50.5904ZM773.647 52.1814V62.9314H767.197V33.1324H776.915C779.266 33.1324 781.1 33.6914 782.419 34.8094C783.738 35.9274 784.397 37.5614 784.397 39.7114V45.2154C784.397 48.6554 783.222 50.8054 780.871 51.6654L785.558 62.9314H778.463L774.464 52.1814H773.647ZM773.647 38.6364V47.0644H776.184C776.843 47.0644 777.302 46.9211 777.56 46.6344C777.818 46.3477 777.947 45.8461 777.947 45.1294V40.2704C777.947 39.6397 777.804 39.2097 777.517 38.9804C777.23 38.7511 776.786 38.6364 776.184 38.6364H773.647ZM823.397 40.7434C823.397 39.3101 822.537 38.5934 820.817 38.5934C819.125 38.5934 818.28 39.3101 818.28 40.7434V55.3204C818.28 56.7537 819.125 57.4704 820.817 57.4704C822.537 57.4704 823.397 56.7537 823.397 55.3204V40.7434ZM811.83 40.3994C811.83 38.0487 812.589 36.1854 814.109 34.8094C815.628 33.4047 817.864 32.7024 820.817 32.7024C823.769 32.7024 826.005 33.4047 827.525 34.8094C829.073 36.1854 829.847 38.0487 829.847 40.3994V55.6644C829.847 58.0151 829.073 59.8927 827.525 61.2974C826.005 62.6734 823.769 63.3614 820.817 63.3614C817.864 63.3614 815.628 62.6734 814.109 61.2974C812.589 59.8927 811.83 58.0151 811.83 55.6644V40.3994ZM841.468 33.1324H856.217V38.7654H848.004V46.1184H855.572V51.8804H848.004V62.9314H841.468V33.1324Z" fill="#231F20"/>
<defs>
<linearGradient id="paint0_linear_8_285" x1="167.703" y1="238.559" x2="167.408" y2="124.139" gradientUnits="userSpaceOnUse">
<stop stop-color="#FDB714"/>
<stop offset="0.24" stop-color="#D2A029"/>
<stop offset="0.56" stop-color="#FDB714"/>
<stop offset="0.88" stop-color="#CF8D2A"/>
</linearGradient>
<linearGradient id="paint1_linear_8_285" x1="199.86" y1="140.844" x2="199.521" y2="7.85912" gradientUnits="userSpaceOnUse">
<stop stop-color="#CF8D2A"/>
<stop offset="0.43" stop-color="#D2A029"/>
<stop offset="0.49" stop-color="#CBA02F"/>
<stop offset="0.57" stop-color="#B6A241"/>
<stop offset="0.68" stop-color="#94A45D"/>
<stop offset="0.79" stop-color="#65A784"/>
<stop offset="0.92" stop-color="#2AAAB6"/>
<stop offset="1" stop-color="#00ADD9"/>
</linearGradient>
<linearGradient id="paint2_linear_8_285" x1="98.6951" y1="170.325" x2="132.735" y2="182.761" gradientUnits="userSpaceOnUse">
<stop offset="0.01" stop-color="#48773D"/>
<stop offset="0.08" stop-color="#447541"/>
<stop offset="0.16" stop-color="#39704E"/>
<stop offset="0.24" stop-color="#266762"/>
<stop offset="0.31" stop-color="#0C5A7F"/>
<stop offset="0.34" stop-color="#02558A"/>
<stop offset="0.58" stop-color="#193669"/>
<stop offset="0.81" stop-color="#02558A"/>
<stop offset="1" stop-color="#193669"/>
</linearGradient>
<linearGradient id="paint3_linear_8_285" x1="7.05087" y1="139.791" x2="179.89" y2="141.518" gradientUnits="userSpaceOnUse">
<stop offset="0.11" stop-color="#CF8D2A"/>
<stop offset="0.23" stop-color="#FDB714"/>
<stop offset="0.58" stop-color="#F36D25"/>
<stop offset="0.88" stop-color="#8E1937"/>
</linearGradient>
<linearGradient id="paint4_linear_8_285" x1="77.3504" y1="113.647" x2="182.609" y2="11.654" gradientUnits="userSpaceOnUse">
<stop offset="0.1" stop-color="#48773D"/>
<stop offset="0.26" stop-color="#269B48"/>
<stop offset="1" stop-color="#00ADD9"/>
</linearGradient>
<linearGradient id="paint5_linear_8_285" x1="26.0368" y1="137.404" x2="67.6487" y2="137.82" gradientUnits="userSpaceOnUse">
<stop stop-color="#017DBC"/>
<stop offset="0.47" stop-color="#02558A"/>
</linearGradient>
<linearGradient id="paint6_linear_8_285" x1="164.13" y1="164.228" x2="252.775" y2="90.0576" gradientUnits="userSpaceOnUse">
<stop stop-color="#8E1937"/>
<stop offset="0.42" stop-color="#EB1C2D"/>
<stop offset="1" stop-color="#E01284"/>
</linearGradient>
<linearGradient id="paint7_linear_8_285" x1="76.3315" y1="77.6877" x2="199.184" y2="78.9153" gradientUnits="userSpaceOnUse">
<stop stop-color="#017DBC"/>
<stop offset="0.53" stop-color="#F36D25"/>
<stop offset="0.99" stop-color="#E01284"/>
</linearGradient>
<linearGradient id="paint8_linear_8_285" x1="141.977" y1="250.522" x2="189.597" y2="167.992" gradientUnits="userSpaceOnUse">
<stop stop-color="#193669"/>
<stop offset="0.12" stop-color="#02558A"/>
<stop offset="0.26" stop-color="#017DBC"/>
<stop offset="0.53" stop-color="#3DB049"/>
<stop offset="0.54" stop-color="#3BAE49"/>
<stop offset="0.68" stop-color="#2BA048"/>
<stop offset="0.8" stop-color="#269B48"/>
<stop offset="1" stop-color="#269B48"/>
</linearGradient>
<linearGradient id="paint9_linear_8_285" x1="10.6086" y1="208.726" x2="133.12" y2="209.951" gradientUnits="userSpaceOnUse">
<stop stop-color="#017DBC"/>
<stop offset="0.53" stop-color="#EB1C2D"/>
<stop offset="0.86" stop-color="#D2A029"/>
<stop offset="1" stop-color="#EFAD14"/>
</linearGradient>
<linearGradient id="paint10_linear_8_285" x1="0.396443" y1="104.204" x2="138.252" y2="105.581" gradientUnits="userSpaceOnUse">
<stop stop-color="#CF8D2A"/>
<stop offset="0.47" stop-color="#D2A029"/>
<stop offset="0.77" stop-color="#48773D"/>
<stop offset="1" stop-color="#269B48"/>
</linearGradient>
<linearGradient id="paint11_linear_8_285" x1="195.709" y1="245.382" x2="196.594" y2="127.418" gradientUnits="userSpaceOnUse">
<stop stop-color="#FDB714"/>
<stop offset="0.24" stop-color="#D2A029"/>
<stop offset="0.56" stop-color="#FDB714"/>
<stop offset="0.88" stop-color="#CF8D2A"/>
</linearGradient>
</defs>
</svg>
