<svg width="980" height="268" viewBox="0 0 980 268" fill="none" xmlns="http://www.w3.org/2000/svg">
<path d="M122.622 237.224C118.545 237.208 115.124 234.146 114.654 230.093C114.185 226.04 116.816 222.276 120.781 221.326C123.015 220.786 125.249 220.196 127.435 219.533C138.473 216.171 148.919 211.106 158.396 204.52C165.664 199.429 172.263 193.444 178.039 186.705C178.039 186.705 181.672 182.282 183.146 180.243C190.313 170.379 195.66 159.311 198.933 147.563C200.48 142.108 201.806 136.432 202.935 130.682C203.824 126.336 208.03 123.504 212.388 124.318C214.486 124.728 216.334 125.955 217.527 127.73C218.719 129.504 219.159 131.68 218.748 133.778C217.545 139.946 216.096 146.064 214.451 151.912C210.653 165.503 204.468 178.308 196.183 189.728C194.514 192.013 190.389 197.099 190.389 197.099C183.666 204.929 175.977 211.873 167.505 217.764C156.633 225.32 144.645 231.124 131.977 234.964C129.44 235.734 126.886 236.422 124.316 237.028C123.76 237.155 123.192 237.221 122.622 237.224Z" fill="url(#paint0_linear_8_286)"/>
<path d="M210.989 140.314C210.502 140.314 210.017 140.264 209.54 140.167C207.436 139.785 205.57 138.58 204.354 136.819C203.138 135.059 202.672 132.886 203.058 130.781C204.286 124.097 205.784 114.22 206.373 107.217L206.692 102.818C207.55 90.9688 207.089 79.0604 205.317 67.3127C203.855 56.1063 200.075 45.3278 194.219 35.6647C190.724 30.1596 186.032 25.5148 180.494 22.0766C177.882 20.6696 176.255 17.9396 176.258 14.9711C176.261 12.0026 177.895 9.27629 180.51 7.87506C183.125 6.47384 186.298 6.62461 188.768 8.26748C196.432 12.9792 202.916 19.3839 207.723 26.9909C214.807 38.5442 219.406 51.4485 221.228 64.8801C223.181 77.8308 223.7 90.9578 222.774 104.022L222.431 108.666C221.792 116.234 220.196 126.751 218.92 133.803C218.169 137.59 214.847 140.318 210.989 140.314Z" fill="url(#paint1_linear_8_286)"/>
<path d="M138.238 264.99C137.087 264.996 135.948 264.753 134.899 264.277C132.906 263.358 130.986 262.29 129.153 261.083C121.57 255.843 114.928 249.354 109.511 241.893C102.988 233.414 97.2363 224.368 92.3237 214.864C80.5207 191.696 74.4655 166.024 74.6701 140.02C74.6768 133.749 75.0129 127.483 75.6767 121.247C75.8722 118.302 77.6608 115.699 80.339 114.463C83.0173 113.226 86.1566 113.554 88.5222 115.317C90.8879 117.08 92.1014 119.996 91.6854 122.918C91.0961 128.643 90.8014 134.417 90.7769 140.118C90.7343 152.542 92.2354 164.922 95.2456 176.975C97.9638 187.523 101.851 197.735 106.835 207.419C111.286 216.109 116.495 224.389 122.401 232.163C126.703 238.141 131.983 243.349 138.017 247.569C139.172 248.345 140.387 249.027 141.651 249.608C145.085 251.188 146.958 254.946 146.156 258.642C145.354 262.338 142.091 264.978 138.312 264.99H138.238Z" fill="url(#paint2_linear_8_286)"/>
<path d="M171.213 174.911H170.673C156.443 173.714 142.294 171.704 128.294 168.891L123.531 167.834C112.629 165.377 101.065 162.158 89.1565 158.35C76.0697 154.222 63.6949 149.627 52.3268 144.762C42.6756 140.675 33.3082 135.946 24.2872 130.609L23.1577 129.896C17.8238 126.973 12.937 123.299 8.64683 118.986C6.22187 117 5.16892 113.785 5.94782 110.747C6.72672 107.709 9.19598 105.4 12.2773 104.827C15.3585 104.254 18.4921 105.522 20.3096 108.077C23.5973 111.246 27.2972 113.957 31.3093 116.136L32.4879 116.849C40.8624 121.805 49.5664 126.18 58.5387 129.945C69.3421 134.589 81.2013 138.988 93.797 142.968C105.362 146.629 116.656 149.701 126.968 152.084L131.535 153.092C144.863 155.761 158.332 157.672 171.876 158.817C176.195 159.155 179.474 162.852 179.295 167.184C179.117 171.516 175.545 174.93 171.213 174.911Z" fill="url(#paint3_linear_8_286)"/>
<path d="M83.7793 129.38H82.8954C80.7469 129.146 78.7817 128.061 77.439 126.366C76.0963 124.672 75.4881 122.509 75.7504 120.362C76.819 110.908 78.5087 101.534 80.8084 92.3019C84.5158 76.8206 90.3669 61.9337 98.192 48.0732C104.518 36.8314 112.695 26.7383 122.377 18.2189C130.361 11.1646 139.788 5.94018 149.999 2.91091C158.959 0.230334 168.513 0.273093 177.449 3.03376C180.905 4.13791 184.243 5.57812 187.418 7.33377C189.927 8.7515 191.489 11.401 191.517 14.2841C191.544 17.1673 190.033 19.8461 187.551 21.3116C185.07 22.777 181.996 22.8064 179.487 21.3886C177.239 20.124 174.87 19.0868 172.416 18.2926C166.518 16.4967 160.219 16.4967 154.32 18.2926C146.379 20.725 139.058 24.8492 132.861 30.3818C124.548 37.6934 117.54 46.3682 112.138 56.0344C105.073 68.5814 99.7925 82.0536 96.4487 96.0613C94.2981 104.609 92.7394 113.295 91.7836 122.058C91.3924 126.195 87.9313 129.361 83.7793 129.38Z" fill="url(#paint4_linear_8_286)"/>
<path d="M17.6333 192.701C14.1612 192.704 11.0803 190.474 9.9973 187.172C6.57891 176.72 5.8443 165.574 7.86118 154.762C10.1648 143.176 15.2173 132.314 22.593 123.09C30.1313 113.555 39.0334 105.184 49.0122 98.2482C57.1296 92.503 65.6932 87.4169 74.6211 83.0384C77.2001 81.7612 80.264 81.9578 82.6588 83.5543C85.0536 85.1507 86.4155 87.9045 86.2313 90.7783C86.0472 93.652 84.345 96.2092 81.766 97.4864C73.5999 101.489 65.767 106.14 58.3424 111.394C49.6995 117.384 41.9672 124.592 35.3852 132.796C29.566 139.976 25.5651 148.455 23.7225 157.515C22.1619 165.706 22.7025 174.16 25.2939 182.086C26.6828 186.313 24.3857 190.867 20.1623 192.259C19.3476 192.538 18.4942 192.687 17.6333 192.701Z" fill="url(#paint5_linear_8_286)"/>
<path d="M184.349 175.304C179.856 175.304 175.313 175.304 170.722 174.911C166.329 174.571 163.025 170.761 163.307 166.36C163.647 161.953 167.414 158.607 171.827 158.792C181.158 159.385 190.521 159.311 199.842 158.571H201.438C211.578 157.76 220.319 157.048 230.337 153.387C238.317 150.487 252.115 143.73 255.062 131.076C257.517 120.461 251.158 109.821 248.285 105.743C243.035 98.5867 236.182 92.7629 228.274 88.7391C220.085 84.475 211.389 81.2635 202.395 79.1808C198.639 78.3208 194.833 77.6328 191.003 77.1414C186.591 76.543 183.488 72.494 184.054 68.0745C184.323 65.9513 185.429 64.024 187.127 62.7223C188.824 61.4205 190.971 60.8527 193.09 61.1454C197.46 61.7105 201.806 62.5214 206.029 63.4796C216.359 65.86 226.343 69.551 235.738 74.4631C245.93 79.6576 254.748 87.1937 261.47 96.4545C266.577 103.826 274.582 118.397 270.751 134.737C265.939 154.763 246.787 164.395 235.714 168.424C223.658 172.823 213.444 173.633 202.616 174.518H201.02C195.594 175.083 190.021 175.304 184.349 175.304Z" fill="url(#paint6_linear_8_286)"/>
<path d="M84.0004 95.6437C80.1951 95.6687 76.8916 93.025 76.0793 89.3046C75.267 85.5842 77.1676 81.8025 80.6366 80.2371C90.8031 75.5908 101.32 71.754 112.089 68.7623C122.476 65.9127 133.019 63.6648 143.664 62.0297C154.061 60.4147 164.572 59.6504 175.092 59.7446C180.533 59.8194 185.966 60.1721 191.371 60.8011C195.787 61.339 198.937 65.3484 198.418 69.7697C198.192 71.9063 197.112 73.8606 195.424 75.1886C193.736 76.5166 191.584 77.1056 189.456 76.8217C184.614 76.2498 179.746 75.9299 174.871 75.8634C165.245 75.7395 155.625 76.4465 146.12 77.9766C136.111 79.5274 126.2 81.6523 116.435 84.3406C106.51 87.0807 96.8217 90.6139 87.4624 94.9063C86.3755 95.4005 85.1942 95.6521 84.0004 95.6437Z" fill="url(#paint7_linear_8_286)"/>
<path d="M146.586 267.03C143.492 266.982 140.428 266.409 137.526 265.334C133.578 263.657 131.628 259.186 133.084 255.149C134.539 251.111 138.893 248.916 143.001 250.149C144.465 250.767 146.066 250.988 147.642 250.788C148.477 250.616 150.097 250.247 153.019 242.311C155.966 233.981 154.713 173.51 123.555 135.228C120.742 131.774 121.258 126.692 124.709 123.876C128.161 121.06 133.239 121.577 136.053 125.031C172.342 169.751 172.392 235.848 168.218 247.741C165.198 256.267 160.999 264.474 151.03 266.587C149.569 266.89 148.079 267.038 146.586 267.03Z" fill="url(#paint8_linear_8_286)"/>
<path d="M97.5291 240.468H93.085C80.4795 240.311 68.0048 237.889 56.2553 233.318C45.5361 229.21 35.7627 222.965 27.5281 214.963C19.666 207.375 13.7165 198.027 10.1691 187.688C8.73848 183.468 10.9975 178.886 15.2148 177.454C19.432 176.023 24.0105 178.283 25.4411 182.504C28.1685 190.438 32.7475 197.606 38.798 203.414C45.5232 209.847 53.4723 214.86 62.1726 218.157C72.1253 222.052 82.6943 224.132 93.3796 224.3C103.017 224.811 112.672 223.732 121.959 221.106C126.217 219.81 130.719 222.213 132.014 226.474C133.309 230.735 130.907 235.24 126.649 236.536C117.2 239.325 107.379 240.651 97.5291 240.468Z" fill="url(#paint9_linear_8_286)"/>
<path d="M129.743 138.226C127.315 138.23 125.014 137.138 123.482 135.253C87.9288 91.5401 47.9072 80.6796 24.1398 89.2304C20.4479 90.2074 17.495 92.9778 16.2828 96.6019C15.6346 100.75 17.0885 104.949 20.1622 107.806C23.2811 110.995 23.2261 116.111 20.0394 119.232C16.8527 122.353 11.7411 122.298 8.62223 119.109C1.67739 112.358 -1.35728 102.535 0.568806 93.039C2.60671 84.2916 9.01508 77.559 18.689 74.0698C45.6974 64.2413 92.643 71.8093 135.979 125.056C138.784 128.512 138.268 133.587 134.825 136.408C133.394 137.586 131.596 138.229 129.743 138.226Z" fill="url(#paint10_linear_8_286)"/>
<path d="M206.422 148.497C203.951 148.458 201.487 148.211 199.056 147.76C195.777 159.429 190.448 170.42 183.318 180.219C181.845 182.258 178.186 186.705 178.211 186.705C178.235 186.705 177.744 187.148 177.548 187.393C181.461 191.381 184.453 196.179 186.313 201.448C187.688 199.999 189.211 198.672 190.512 197.148C190.512 197.148 194.661 192.087 196.331 189.777C204.624 178.372 210.811 165.573 214.598 151.986C214.991 150.585 215.261 149.062 215.63 147.612C212.601 148.233 209.514 148.53 206.422 148.497Z" fill="url(#paint11_linear_8_286)"/>
<path d="M317.472 102.093C317.472 98.0227 318.848 94.8694 321.6 92.6334C324.352 90.3401 328.509 89.1934 334.07 89.1934C337.739 89.1934 341.122 89.6234 344.218 90.4834V97.9654C340.835 96.9907 337.51 96.5034 334.242 96.5034C330.974 96.5034 328.709 97.0194 327.448 98.0514C326.244 99.0834 325.642 100.631 325.642 102.695V134.945C325.642 136.952 326.273 138.471 327.534 139.503C328.795 140.535 331.117 141.051 334.5 141.051C337.883 141.051 341.208 140.593 344.476 139.675V146.985C341.495 147.903 337.997 148.361 333.984 148.361C322.976 148.361 317.472 144.061 317.472 135.461V102.093ZM361.454 89.4514C361.454 92.6047 359.877 94.1814 356.724 94.1814C353.57 94.1814 351.994 92.6047 351.994 89.4514C351.994 86.2407 353.57 84.6354 356.724 84.6354C359.877 84.6354 361.454 86.2407 361.454 89.4514ZM352.682 99.0834H360.766V147.931H352.682V99.0834ZM370.55 134.859V111.123C370.55 106.995 371.754 103.727 374.162 101.319C376.57 98.8541 380.239 97.6214 385.17 97.6214C390.101 97.6214 393.741 98.8541 396.092 101.319C398.443 103.727 399.618 106.995 399.618 111.123V126.861H378.462V134.429C378.462 136.723 379.15 138.414 380.526 139.503C381.959 140.593 384.425 141.137 387.922 141.137C391.477 141.137 394.917 140.621 398.242 139.589V146.985C394.802 147.903 391.133 148.361 387.234 148.361C376.111 148.361 370.55 143.861 370.55 134.859ZM378.462 120.325H391.964V111.209C391.964 106.737 389.699 104.501 385.17 104.501C380.698 104.501 378.462 106.737 378.462 111.209V120.325ZM416.523 100.717C420.193 99.1121 423.604 98.3094 426.757 98.3094C429.968 98.3094 432.577 99.2841 434.583 101.233C436.647 103.125 437.679 105.877 437.679 109.489V147.931H429.423V110.865C429.423 107.483 427.732 105.791 424.349 105.791C421.884 105.791 419.39 106.422 416.867 107.683V147.931H408.783V98.4814H416.523V100.717ZM447.06 111.123C447.06 102.409 452.105 98.0514 462.196 98.0514C465.808 98.0514 469.019 98.4527 471.828 99.2554V106.737C468.961 105.935 466.037 105.533 463.056 105.533C460.132 105.533 458.068 106.021 456.864 106.995C455.717 107.97 455.144 109.518 455.144 111.639V134.859C455.144 136.981 455.717 138.529 456.864 139.503C458.068 140.478 460.189 140.965 463.228 140.965C466.267 140.965 469.162 140.507 471.914 139.589V147.157C468.589 147.96 465.349 148.361 462.196 148.361C452.105 148.361 447.06 144.004 447.06 135.289V111.123ZM488.69 89.4514C488.69 92.6047 487.113 94.1814 483.96 94.1814C480.807 94.1814 479.23 92.6047 479.23 89.4514C479.23 86.2407 480.807 84.6354 483.96 84.6354C487.113 84.6354 488.69 86.2407 488.69 89.4514ZM479.918 99.0834H488.002V147.931H479.918V99.0834ZM503.72 133.741V136.321C503.72 138.213 504.15 139.618 505.01 140.535C505.928 141.453 507.676 141.911 510.256 141.911C512.894 141.911 515.302 141.023 517.48 139.245V124.883L509.31 127.119C507.074 127.75 505.584 128.553 504.838 129.527C504.093 130.445 503.72 131.849 503.72 133.741ZM498.13 99.6854C501.398 98.5961 505.555 98.0514 510.6 98.0514C520.404 98.0514 525.306 102.495 525.306 111.381V147.931H517.566V144.405C515.044 146.928 511.718 148.189 507.59 148.189C499.678 148.189 495.722 144.205 495.722 136.235V133.397C495.722 130.187 496.554 127.607 498.216 125.657C499.879 123.651 502.545 122.131 506.214 121.099L517.48 118.003V111.381C517.48 109.26 516.907 107.741 515.76 106.823C514.614 105.849 512.177 105.361 508.45 105.361C504.781 105.361 501.341 105.935 498.13 107.081V99.6854ZM571.935 98.4814H579.933L566.947 160.745H559.121L561.701 147.931H558.261L547.769 98.4814H555.853C560.267 120.096 562.933 134.573 563.851 141.911C564.768 135.089 565.972 127.922 567.463 120.411L571.935 98.4814ZM628.501 89.6234V96.7614H617.407V147.931H609.237V96.7614H598.143V89.6234H628.501ZM633.589 134.859V111.123C633.589 106.995 634.793 103.727 637.201 101.319C639.609 98.8541 643.279 97.6214 648.209 97.6214C653.14 97.6214 656.781 98.8541 659.131 101.319C661.482 103.727 662.657 106.995 662.657 111.123V126.861H641.501V134.429C641.501 136.723 642.189 138.414 643.565 139.503C644.999 140.593 647.464 141.137 650.961 141.137C654.516 141.137 657.956 140.621 661.281 139.589V146.985C657.841 147.903 654.172 148.361 650.273 148.361C639.151 148.361 633.589 143.861 633.589 134.859ZM641.501 120.325H655.003V111.209C655.003 106.737 652.739 104.501 648.209 104.501C643.737 104.501 641.501 106.737 641.501 111.209V120.325ZM670.962 111.123C670.962 102.409 676.008 98.0514 686.098 98.0514C689.71 98.0514 692.921 98.4527 695.73 99.2554V106.737C692.864 105.935 689.94 105.533 686.958 105.533C684.034 105.533 681.97 106.021 680.766 106.995C679.62 107.97 679.046 109.518 679.046 111.639V134.859C679.046 136.981 679.62 138.529 680.766 139.503C681.97 140.478 684.092 140.965 687.13 140.965C690.169 140.965 693.064 140.507 695.816 139.589V147.157C692.491 147.96 689.252 148.361 686.098 148.361C676.008 148.361 670.962 144.004 670.962 135.289V111.123ZM711.56 100.717C715.23 99.1121 718.641 98.3094 721.794 98.3094C725.005 98.3094 727.614 99.2841 729.62 101.233C731.684 103.125 732.716 105.877 732.716 109.489V147.931H724.46V110.865C724.46 107.483 722.769 105.791 719.386 105.791C716.921 105.791 714.427 106.422 711.904 107.683V147.931H703.82V98.4814H711.56V100.717ZM763.339 111.295C763.339 106.881 761.132 104.673 756.717 104.673C752.302 104.673 750.095 106.881 750.095 111.295V135.117C750.095 139.532 752.302 141.739 756.717 141.739C761.132 141.739 763.339 139.532 763.339 135.117V111.295ZM742.097 111.123C742.097 106.995 743.301 103.727 745.709 101.319C748.117 98.8541 751.786 97.6214 756.717 97.6214C761.648 97.6214 765.317 98.8541 767.725 101.319C770.19 103.727 771.423 106.995 771.423 111.123V135.289C771.423 139.417 770.19 142.714 767.725 145.179C765.317 147.587 761.648 148.791 756.717 148.791C751.786 148.791 748.117 147.587 745.709 145.179C743.301 142.714 742.097 139.417 742.097 135.289V111.123ZM781.17 85.3234H789.254V147.931H781.17V85.3234ZM820.28 111.295C820.28 106.881 818.073 104.673 813.658 104.673C809.244 104.673 807.036 106.881 807.036 111.295V135.117C807.036 139.532 809.244 141.739 813.658 141.739C818.073 141.739 820.28 139.532 820.28 135.117V111.295ZM799.038 111.123C799.038 106.995 800.242 103.727 802.65 101.319C805.058 98.8541 808.728 97.6214 813.658 97.6214C818.589 97.6214 822.258 98.8541 824.666 101.319C827.132 103.727 828.364 106.995 828.364 111.123V135.289C828.364 139.417 827.132 142.714 824.666 145.179C822.258 147.587 818.589 148.791 813.658 148.791C808.728 148.791 805.058 147.587 802.65 145.179C800.242 142.714 799.038 139.417 799.038 135.289V111.123ZM870.017 101.663H867.093C865.775 101.663 864.657 101.921 863.739 102.437C865.345 104.444 866.147 107.11 866.147 110.435V117.487C866.147 121.501 864.915 124.625 862.449 126.861C860.041 129.097 856.372 130.244 851.441 130.301C848.747 130.301 847.399 131.563 847.399 134.085C847.399 135.289 847.743 136.149 848.431 136.665C849.177 137.181 850.467 137.439 852.301 137.439H857.289C865.431 137.439 869.501 140.851 869.501 147.673V149.135C869.501 156.875 864.026 160.745 853.075 160.745H849.721C843.472 160.745 838.742 159.742 835.531 157.735V150.167C839.315 152.633 843.988 153.865 849.549 153.865H852.301C855.741 153.865 858.178 153.464 859.611 152.661C861.045 151.859 861.761 150.655 861.761 149.049V148.275C861.761 146.899 861.389 145.896 860.643 145.265C859.955 144.577 858.579 144.233 856.515 144.233H851.269C843.873 144.233 840.175 141.739 840.175 136.751V135.375C840.175 132.165 841.695 130.215 844.733 129.527C838.943 127.865 836.047 123.851 836.047 117.487V110.435C836.047 106.365 837.28 103.211 839.745 100.975C842.268 98.7394 845.765 97.6214 850.237 97.6214C854.709 97.6214 858.149 98.3094 860.557 99.6854C861.761 96.0161 864.485 94.1814 868.727 94.1814H870.017V101.663ZM858.063 117.401V110.521C858.063 108.4 857.519 106.852 856.429 105.877C855.34 104.845 853.563 104.329 851.097 104.329C848.632 104.329 846.855 104.845 845.765 105.877C844.676 106.852 844.131 108.4 844.131 110.521V117.401C844.131 119.523 844.676 121.099 845.765 122.131C846.855 123.106 848.632 123.593 851.097 123.593C853.563 123.593 855.34 123.106 856.429 122.131C857.519 121.099 858.063 119.523 858.063 117.401ZM881.732 85.3234H888.612L883.108 94.6974H878.292L881.732 85.3234ZM876.744 99.0834H884.828V147.931H876.744V99.0834ZM900.547 133.741V136.321C900.547 138.213 900.977 139.618 901.837 140.535C902.754 141.453 904.503 141.911 907.083 141.911C909.72 141.911 912.128 141.023 914.307 139.245V124.883L906.137 127.119C903.901 127.75 902.41 128.553 901.665 129.527C900.919 130.445 900.547 131.849 900.547 133.741ZM894.957 99.6854C898.225 98.5961 902.381 98.0514 907.427 98.0514C917.231 98.0514 922.133 102.495 922.133 111.381V147.931H914.393V144.405C911.87 146.928 908.545 148.189 904.417 148.189C896.505 148.189 892.549 144.205 892.549 136.235V133.397C892.549 130.187 893.38 127.607 895.043 125.657C896.705 123.651 899.371 122.131 903.041 121.099L914.307 118.003V111.381C914.307 109.26 913.733 107.741 912.587 106.823C911.44 105.849 909.003 105.361 905.277 105.361C901.607 105.361 898.167 105.935 894.957 107.081V99.6854ZM317.472 187.093C317.472 183.023 318.848 179.869 321.6 177.633C324.352 175.34 328.509 174.193 334.07 174.193C337.739 174.193 341.122 174.623 344.218 175.483V182.965C340.835 181.991 337.51 181.503 334.242 181.503C330.974 181.503 328.709 182.019 327.448 183.051C326.244 184.083 325.642 185.631 325.642 187.695V219.945C325.642 221.952 326.273 223.471 327.534 224.503C328.795 225.535 331.117 226.051 334.5 226.051C337.883 226.051 341.208 225.593 344.476 224.675V231.985C341.495 232.903 337.997 233.361 333.984 233.361C322.976 233.361 317.472 229.061 317.472 220.461V187.093ZM366.098 225.793C368.506 225.793 370.856 225.077 373.15 223.643V183.481H381.32V232.931H373.58V230.609C370.598 232.272 367.302 233.103 363.69 233.103C360.078 233.103 357.268 232.071 355.262 230.007C353.255 227.943 352.252 224.962 352.252 221.063V183.481H360.422V219.945C360.422 223.844 362.314 225.793 366.098 225.793ZM405.232 170.323H412.112L406.608 179.697H401.792L405.232 170.323ZM396.976 218.741V221.321C396.976 223.213 397.406 224.618 398.266 225.535C399.184 226.453 400.932 226.911 403.512 226.911C406.15 226.911 408.558 226.023 410.736 224.245V209.883L402.566 212.119C400.33 212.75 398.84 213.553 398.094 214.527C397.349 215.445 396.976 216.849 396.976 218.741ZM391.386 184.685C394.654 183.596 398.811 183.051 403.856 183.051C413.66 183.051 418.562 187.495 418.562 196.381V232.931H410.822V229.405C408.3 231.928 404.974 233.189 400.846 233.189C392.934 233.189 388.978 229.205 388.978 221.235V218.397C388.978 215.187 389.81 212.607 391.472 210.657C393.135 208.651 395.801 207.131 399.47 206.099L410.736 203.003V196.381C410.736 194.26 410.163 192.741 409.016 191.823C407.87 190.849 405.433 190.361 401.706 190.361C398.037 190.361 394.597 190.935 391.386 192.081V184.685ZM436.511 185.717C440.181 184.112 443.592 183.309 446.745 183.309C449.956 183.309 452.565 184.284 454.571 186.233C456.635 188.125 457.667 190.877 457.667 194.489V232.931H449.411V195.865C449.411 192.483 447.72 190.791 444.337 190.791C441.872 190.791 439.378 191.422 436.855 192.683V232.931H428.771V183.481H436.511V185.717ZM476.25 174.623V183.481H486.226V190.447H476.25V221.149C476.25 224.475 477.97 226.137 481.41 226.137C483.073 226.137 484.936 225.793 487 225.105V232.415C486.943 232.415 486.656 232.473 486.14 232.587C485.682 232.702 485.194 232.817 484.678 232.931C483.13 233.275 481.64 233.447 480.206 233.447C472.18 233.447 468.166 229.549 468.166 221.751V190.447H463.006V183.481H468.424L470.832 174.623H476.25ZM502.379 174.451C502.379 177.605 500.803 179.181 497.649 179.181C494.496 179.181 492.919 177.605 492.919 174.451C492.919 171.241 494.496 169.635 497.649 169.635C500.803 169.635 502.379 171.241 502.379 174.451ZM493.607 184.083H501.691V232.931H493.607V184.083ZM511.476 196.123C511.476 187.409 516.521 183.051 526.612 183.051C530.224 183.051 533.435 183.453 536.244 184.255V191.737C533.377 190.935 530.453 190.533 527.472 190.533C524.548 190.533 522.484 191.021 521.28 191.995C520.133 192.97 519.56 194.518 519.56 196.639V219.859C519.56 221.981 520.133 223.529 521.28 224.503C522.484 225.478 524.605 225.965 527.644 225.965C530.683 225.965 533.578 225.507 536.33 224.589V232.157C533.005 232.96 529.765 233.361 526.612 233.361C516.521 233.361 511.476 229.004 511.476 220.289V196.123ZM549.408 218.741V221.321C549.408 223.213 549.838 224.618 550.698 225.535C551.615 226.453 553.364 226.911 555.944 226.911C558.581 226.911 560.989 226.023 563.168 224.245V209.883L554.998 212.119C552.762 212.75 551.271 213.553 550.526 214.527C549.781 215.445 549.408 216.849 549.408 218.741ZM543.818 184.685C547.086 183.596 551.243 183.051 556.288 183.051C566.092 183.051 570.994 187.495 570.994 196.381V232.931H563.254V229.405C560.731 231.928 557.406 233.189 553.278 233.189C545.366 233.189 541.41 229.205 541.41 221.235V218.397C541.41 215.187 542.241 212.607 543.904 210.657C545.567 208.651 548.233 207.131 551.902 206.099L563.168 203.003V196.381C563.168 194.26 562.595 192.741 561.448 191.823C560.301 190.849 557.865 190.361 554.138 190.361C550.469 190.361 547.029 190.935 543.818 192.081V184.685Z" fill="#231F20"/>
<path d="M329.663 62.9314L328.416 56.0514H322.525L321.364 62.9314H315.215L321.063 33.1324H330.05L335.812 62.9314H329.663ZM323.428 50.5904H327.47L325.406 39.0664L323.428 50.5904ZM358.785 33.1324H365.149V62.9314H358.957C354.714 52.0954 352.263 45.5594 351.604 43.3234C352.206 45.5881 352.507 49.4867 352.507 55.0194V62.9314H346.143V33.1324H352.507L356.42 43.1084C358.083 47.3797 359.201 50.6191 359.774 52.8264C359.115 50.0457 358.785 45.9751 358.785 40.6144V33.1324ZM352.98 31.2834V31.4124H349.583V31.3264C349.64 28.2304 350.916 26.6824 353.41 26.6824C354.27 26.6824 355.173 26.9691 356.119 27.5424C357.065 28.0871 357.653 28.3594 357.882 28.3594C358.484 28.3594 358.785 27.8434 358.785 26.8114V26.6394H362.182V26.8544C362.153 28.2591 361.824 29.3627 361.193 30.1654C360.562 30.9681 359.616 31.3694 358.355 31.3694C357.581 31.3694 356.707 31.0971 355.732 30.5524C354.757 29.9791 354.141 29.6924 353.883 29.6924C353.281 29.6924 352.98 30.2227 352.98 31.2834ZM388.336 40.7434C388.336 39.3101 387.476 38.5934 385.756 38.5934C384.064 38.5934 383.219 39.3101 383.219 40.7434V55.3204C383.219 56.7537 384.064 57.4704 385.756 57.4704C387.476 57.4704 388.336 56.7537 388.336 55.3204V40.7434ZM376.769 40.3994C376.769 38.0487 377.528 36.1854 379.048 34.8094C380.567 33.4047 382.803 32.7024 385.756 32.7024C388.708 32.7024 390.944 33.4047 392.464 34.8094C394.012 36.1854 394.786 38.0487 394.786 40.3994V55.6644C394.786 58.0151 394.012 59.8927 392.464 61.2974C390.944 62.6734 388.708 63.3614 385.756 63.3614C382.803 63.3614 380.567 62.6734 379.048 61.2974C377.528 59.8927 376.769 58.0151 376.769 55.6644V40.3994ZM422.555 33.1324H429.091V62.9314H422.555V33.1324ZM453.781 33.1324H460.145V62.9314H453.953C449.711 52.0954 447.26 45.5594 446.6 43.3234C447.202 45.5881 447.503 49.4867 447.503 55.0194V62.9314H441.139V33.1324H447.503L451.416 43.1084C453.079 47.3797 454.197 50.6191 454.77 52.8264C454.111 50.0457 453.781 45.9751 453.781 40.6144V33.1324ZM487.761 33.1324V38.7224H482.386V62.9314H475.85V38.7224H470.475V33.1324H487.761ZM498.086 33.1324H513.179V38.7224H504.536V45.0434H512.018V50.6334H504.536V57.3414H513.179V62.9314H498.086V33.1324ZM530.805 52.1814V62.9314H524.355V33.1324H534.073C536.423 33.1324 538.258 33.6914 539.577 34.8094C540.895 35.9274 541.555 37.5614 541.555 39.7114V45.2154C541.555 48.6554 540.379 50.8054 538.029 51.6654L542.716 62.9314H535.621L531.622 52.1814H530.805ZM530.805 38.6364V47.0644H533.342C534.001 47.0644 534.46 46.9211 534.718 46.6344C534.976 46.3477 535.105 45.8461 535.105 45.1294V40.2704C535.105 39.6397 534.961 39.2097 534.675 38.9804C534.388 38.7511 533.944 38.6364 533.342 38.6364H530.805ZM565.911 33.1324H572.275V62.9314H566.083C561.84 52.0954 559.389 45.5594 558.73 43.3234C559.332 45.5881 559.633 49.4867 559.633 55.0194V62.9314H553.269V33.1324H559.633L563.546 43.1084C565.208 47.3797 566.326 50.6191 566.9 52.8264C566.24 50.0457 565.911 45.9751 565.911 40.6144V33.1324ZM597.052 62.9314L595.805 56.0514H589.914L588.753 62.9314H582.604L588.452 33.1324H597.439L603.201 62.9314H597.052ZM590.817 50.5904H594.859L592.795 39.0664L590.817 50.5904ZM613.103 40.1844C613.103 37.8911 613.891 36.1137 615.468 34.8524C617.073 33.5624 619.481 32.9174 622.692 32.9174C624.813 32.9174 626.619 33.1181 628.11 33.5194V39.4534C626.504 38.9661 624.913 38.7224 623.337 38.7224C621.789 38.7224 620.785 38.9087 620.327 39.2814C619.868 39.6254 619.639 40.1414 619.639 40.8294V55.2774C619.639 56.6534 620.714 57.3414 622.864 57.3414C625.042 57.3414 626.834 57.1264 628.239 56.6964V62.5014C626.691 62.9314 624.813 63.1464 622.606 63.1464C619.395 63.1464 617.001 62.5157 615.425 61.2544C613.877 59.9931 613.103 58.2157 613.103 55.9224V40.1844ZM639.423 33.1324H645.959V62.9314H639.423V33.1324ZM669.144 40.7434C669.144 39.3101 668.284 38.5934 666.564 38.5934C664.873 38.5934 664.027 39.3101 664.027 40.7434V55.3204C664.027 56.7537 664.873 57.4704 666.564 57.4704C668.284 57.4704 669.144 56.7537 669.144 55.3204V40.7434ZM657.577 40.3994C657.577 38.0487 658.337 36.1854 659.856 34.8094C661.376 33.4047 663.612 32.7024 666.564 32.7024C669.517 32.7024 671.753 33.4047 673.272 34.8094C674.82 36.1854 675.594 38.0487 675.594 40.3994V55.6644C675.594 58.0151 674.82 59.8927 673.272 61.2974C671.753 62.6734 669.517 63.3614 666.564 63.3614C663.612 63.3614 661.376 62.6734 659.856 61.2974C658.337 59.8927 657.577 58.0151 657.577 55.6644V40.3994ZM699.857 33.1324H706.221V62.9314H700.029C695.787 52.0954 693.336 45.5594 692.676 43.3234C693.278 45.5881 693.579 49.4867 693.579 55.0194V62.9314H687.215V33.1324H693.579L697.492 43.1084C699.155 47.3797 700.273 50.6191 700.846 52.8264C700.187 50.0457 699.857 45.9751 699.857 40.6144V33.1324ZM730.999 62.9314L729.752 56.0514H723.861L722.7 62.9314H716.551L722.399 33.1324H731.386L737.148 62.9314H730.999ZM724.764 50.5904H728.806L726.742 39.0664L724.764 50.5904ZM747.479 33.1324H754.015V57.5134H761.97V62.9314H747.479V33.1324ZM799.736 40.0124C799.736 39.4964 799.607 39.1094 799.349 38.8514C799.119 38.5647 798.661 38.4214 797.973 38.4214H794.877V57.3844H797.973C799.148 57.3844 799.736 56.7251 799.736 55.4064V40.0124ZM788.427 33.1324H798.876C801.198 33.1324 802.989 33.6914 804.251 34.8094C805.541 35.9274 806.186 37.5757 806.186 39.7544V55.9224C806.186 60.5951 803.878 62.9314 799.263 62.9314H788.427V33.1324ZM817.803 33.1324H832.896V38.7224H824.253V45.0434H831.735V50.6334H824.253V57.3414H832.896V62.9314H817.803V33.1324ZM860.22 33.1324H866.756V57.5134H874.711V62.9314H860.22V33.1324ZM897.747 62.9314L896.5 56.0514H890.609L889.448 62.9314H883.299L889.147 33.1324H898.134L903.896 62.9314H897.747ZM891.512 50.5904H895.554L893.49 39.0664L891.512 50.5904Z" fill="#231F20"/>
<defs>
<linearGradient id="paint0_linear_8_286" x1="167.703" y1="238.559" x2="167.408" y2="124.139" gradientUnits="userSpaceOnUse">
<stop stop-color="#FDB714"/>
<stop offset="0.24" stop-color="#D2A029"/>
<stop offset="0.56" stop-color="#FDB714"/>
<stop offset="0.88" stop-color="#CF8D2A"/>
</linearGradient>
<linearGradient id="paint1_linear_8_286" x1="199.86" y1="140.844" x2="199.521" y2="7.85912" gradientUnits="userSpaceOnUse">
<stop stop-color="#CF8D2A"/>
<stop offset="0.43" stop-color="#D2A029"/>
<stop offset="0.49" stop-color="#CBA02F"/>
<stop offset="0.57" stop-color="#B6A241"/>
<stop offset="0.68" stop-color="#94A45D"/>
<stop offset="0.79" stop-color="#65A784"/>
<stop offset="0.92" stop-color="#2AAAB6"/>
<stop offset="1" stop-color="#00ADD9"/>
</linearGradient>
<linearGradient id="paint2_linear_8_286" x1="98.6951" y1="170.325" x2="132.735" y2="182.761" gradientUnits="userSpaceOnUse">
<stop offset="0.01" stop-color="#48773D"/>
<stop offset="0.08" stop-color="#447541"/>
<stop offset="0.16" stop-color="#39704E"/>
<stop offset="0.24" stop-color="#266762"/>
<stop offset="0.31" stop-color="#0C5A7F"/>
<stop offset="0.34" stop-color="#02558A"/>
<stop offset="0.58" stop-color="#193669"/>
<stop offset="0.81" stop-color="#02558A"/>
<stop offset="1" stop-color="#193669"/>
</linearGradient>
<linearGradient id="paint3_linear_8_286" x1="7.05087" y1="139.791" x2="179.89" y2="141.518" gradientUnits="userSpaceOnUse">
<stop offset="0.11" stop-color="#CF8D2A"/>
<stop offset="0.23" stop-color="#FDB714"/>
<stop offset="0.58" stop-color="#F36D25"/>
<stop offset="0.88" stop-color="#8E1937"/>
</linearGradient>
<linearGradient id="paint4_linear_8_286" x1="77.3504" y1="113.647" x2="182.609" y2="11.654" gradientUnits="userSpaceOnUse">
<stop offset="0.1" stop-color="#48773D"/>
<stop offset="0.26" stop-color="#269B48"/>
<stop offset="1" stop-color="#00ADD9"/>
</linearGradient>
<linearGradient id="paint5_linear_8_286" x1="26.0368" y1="137.404" x2="67.6487" y2="137.82" gradientUnits="userSpaceOnUse">
<stop stop-color="#017DBC"/>
<stop offset="0.47" stop-color="#02558A"/>
</linearGradient>
<linearGradient id="paint6_linear_8_286" x1="164.13" y1="164.228" x2="252.775" y2="90.0576" gradientUnits="userSpaceOnUse">
<stop stop-color="#8E1937"/>
<stop offset="0.42" stop-color="#EB1C2D"/>
<stop offset="1" stop-color="#E01284"/>
</linearGradient>
<linearGradient id="paint7_linear_8_286" x1="76.3315" y1="77.6877" x2="199.184" y2="78.9153" gradientUnits="userSpaceOnUse">
<stop stop-color="#017DBC"/>
<stop offset="0.53" stop-color="#F36D25"/>
<stop offset="0.99" stop-color="#E01284"/>
</linearGradient>
<linearGradient id="paint8_linear_8_286" x1="141.977" y1="250.522" x2="189.597" y2="167.992" gradientUnits="userSpaceOnUse">
<stop stop-color="#193669"/>
<stop offset="0.12" stop-color="#02558A"/>
<stop offset="0.26" stop-color="#017DBC"/>
<stop offset="0.53" stop-color="#3DB049"/>
<stop offset="0.54" stop-color="#3BAE49"/>
<stop offset="0.68" stop-color="#2BA048"/>
<stop offset="0.8" stop-color="#269B48"/>
<stop offset="1" stop-color="#269B48"/>
</linearGradient>
<linearGradient id="paint9_linear_8_286" x1="10.6086" y1="208.726" x2="133.12" y2="209.951" gradientUnits="userSpaceOnUse">
<stop stop-color="#017DBC"/>
<stop offset="0.53" stop-color="#EB1C2D"/>
<stop offset="0.86" stop-color="#D2A029"/>
<stop offset="1" stop-color="#EFAD14"/>
</linearGradient>
<linearGradient id="paint10_linear_8_286" x1="0.396443" y1="104.204" x2="138.252" y2="105.581" gradientUnits="userSpaceOnUse">
<stop stop-color="#CF8D2A"/>
<stop offset="0.47" stop-color="#D2A029"/>
<stop offset="0.77" stop-color="#48773D"/>
<stop offset="1" stop-color="#269B48"/>
</linearGradient>
<linearGradient id="paint11_linear_8_286" x1="195.709" y1="245.382" x2="196.594" y2="127.418" gradientUnits="userSpaceOnUse">
<stop stop-color="#FDB714"/>
<stop offset="0.24" stop-color="#D2A029"/>
<stop offset="0.56" stop-color="#FDB714"/>
<stop offset="0.88" stop-color="#CF8D2A"/>
</linearGradient>
</defs>
</svg>
