<svg width="601" height="505" viewBox="0 0 601 505" fill="none" xmlns="http://www.w3.org/2000/svg">
<path d="M285.894 263.807C281.342 263.789 277.522 260.37 276.998 255.846C276.474 251.321 279.411 247.118 283.838 246.059C286.332 245.455 288.827 244.797 291.266 244.056C303.589 240.303 315.251 234.649 325.831 227.296C333.945 221.613 341.312 214.931 347.76 207.408C347.76 207.408 351.816 202.471 353.461 200.194C361.463 189.182 367.432 176.826 371.086 163.711C372.813 157.621 374.293 151.284 375.554 144.865C376.547 140.013 381.242 136.852 386.107 137.761C388.449 138.218 390.512 139.588 391.844 141.569C393.175 143.55 393.665 145.979 393.207 148.322C391.864 155.207 390.246 162.037 388.41 168.566C384.17 183.738 377.265 198.033 368.016 210.782C366.152 213.334 361.547 219.012 361.547 219.012C354.042 227.753 345.458 235.505 336.001 242.081C323.863 250.517 310.48 256.996 296.337 261.283C293.505 262.143 290.654 262.911 287.785 263.588C287.164 263.729 286.53 263.803 285.894 263.807Z" fill="url(#paint0_linear_1_185)"/>
<path d="M384.545 155.618C384.002 155.618 383.46 155.562 382.927 155.454C380.578 155.027 378.495 153.682 377.137 151.716C375.78 149.751 375.26 147.325 375.691 144.975C377.062 137.514 378.734 126.486 379.391 118.668L379.748 113.758C380.706 100.529 380.191 87.2351 378.213 74.1202C376.581 61.6095 372.361 49.5766 365.823 38.7888C361.921 32.643 356.684 27.4577 350.501 23.6194C347.585 22.0485 345.768 19.0008 345.771 15.6869C345.775 12.3729 347.599 9.32925 350.518 7.76495C353.438 6.20065 356.98 6.36896 359.738 8.20304C368.293 13.4631 375.532 20.6133 380.899 29.1056C388.807 42.0036 393.942 56.4096 395.975 71.4045C398.156 85.8625 398.735 100.517 397.702 115.102L397.318 120.287C396.605 128.736 394.824 140.476 393.398 148.349C392.561 152.577 388.852 155.622 384.545 155.618Z" fill="url(#paint1_linear_1_185)"/>
<path d="M303.327 294.804C302.042 294.81 300.77 294.539 299.599 294.009C297.375 292.982 295.231 291.79 293.185 290.443C284.719 284.592 277.304 277.349 271.256 269.019C263.975 259.553 257.553 249.455 252.069 238.844C238.892 212.98 232.132 184.32 232.361 155.289C232.368 148.288 232.743 141.293 233.484 134.332C233.703 131.044 235.699 128.138 238.689 126.758C241.679 125.378 245.184 125.743 247.825 127.711C250.466 129.679 251.821 132.935 251.356 136.197C250.698 142.588 250.369 149.035 250.342 155.399C250.294 169.268 251.97 183.09 255.331 196.546C258.365 208.321 262.705 219.721 268.269 230.533C273.238 240.234 279.054 249.478 285.647 258.156C290.45 264.83 296.343 270.645 303.08 275.355C304.369 276.222 305.726 276.983 307.137 277.632C310.97 279.396 313.062 283.591 312.167 287.717C311.271 291.843 307.628 294.791 303.409 294.804H303.327Z" fill="url(#paint2_linear_1_185)"/>
<path d="M340.139 194.241H339.536C323.651 192.905 307.855 190.662 292.225 187.521L286.908 186.341C274.737 183.598 261.827 180.005 248.533 175.753C233.923 171.144 220.108 166.015 207.417 160.583C196.642 156.02 186.185 150.742 176.114 144.783L174.853 143.987C168.898 140.725 163.442 136.623 158.653 131.808C155.946 129.59 154.77 126.002 155.64 122.61C156.509 119.218 159.266 116.64 162.706 116C166.146 115.36 169.644 116.776 171.673 119.628C175.343 123.167 179.474 126.193 183.953 128.626L185.269 129.421C194.618 134.954 204.335 139.839 214.352 144.042C226.412 149.227 239.652 154.137 253.713 158.581C266.624 162.668 279.233 166.097 290.745 168.758L295.844 169.882C310.723 172.862 325.759 174.996 340.879 176.274C345.701 176.651 349.361 180.778 349.162 185.615C348.963 190.451 344.976 194.263 340.139 194.241Z" fill="url(#paint3_linear_1_185)"/>
<path d="M242.53 143.411H241.543C239.145 143.15 236.951 141.939 235.452 140.047C233.953 138.155 233.274 135.741 233.567 133.344C234.76 122.789 236.646 112.325 239.213 102.018C243.352 84.7347 249.884 68.1152 258.62 52.6416C265.683 40.0914 274.811 28.8236 285.62 19.3127C294.533 11.4373 305.057 5.60491 316.457 2.22308C326.46 -0.769472 337.126 -0.721736 347.102 2.36023C350.959 3.59289 354.687 5.20072 358.231 7.16069C361.031 8.74343 362.776 11.7012 362.807 14.92C362.837 18.1387 361.15 21.1293 358.38 22.7653C355.61 24.4013 352.178 24.4341 349.377 22.8513C346.867 21.4395 344.222 20.2816 341.483 19.395C334.898 17.3901 327.866 17.3901 321.281 19.395C312.415 22.1105 304.243 26.7146 297.324 32.8912C288.044 41.0537 280.22 50.7382 274.189 61.5293C266.302 75.5365 260.407 90.5767 256.674 106.215C254.273 115.757 252.533 125.455 251.466 135.237C251.029 139.855 247.165 143.39 242.53 143.411Z" fill="url(#paint4_linear_1_185)"/>
<path d="M168.685 214.102C164.809 214.105 161.37 211.615 160.161 207.93C156.344 196.26 155.524 183.818 157.776 171.748C160.348 158.813 165.988 146.686 174.222 136.389C182.638 125.744 192.576 116.399 203.716 108.656C212.778 102.242 222.339 96.5643 232.306 91.6763C235.185 90.2504 238.605 90.4699 241.279 92.2522C243.952 94.0344 245.473 97.1087 245.267 100.317C245.061 103.525 243.161 106.38 240.282 107.806C231.165 112.275 222.421 117.467 214.132 123.332C204.483 130.019 195.851 138.066 188.503 147.224C182.007 155.24 177.54 164.707 175.483 174.82C173.741 183.965 174.344 193.403 177.237 202.251C178.788 206.971 176.223 212.054 171.509 213.608C170.599 213.919 169.646 214.086 168.685 214.102Z" fill="url(#paint5_linear_1_185)"/>
<path d="M354.804 194.68C349.788 194.68 344.717 194.68 339.591 194.241C334.687 193.861 330.999 189.608 331.313 184.695C331.693 179.775 335.898 176.04 340.825 176.246C351.242 176.908 361.694 176.826 372.1 176H373.882C385.203 175.094 394.961 174.299 406.144 170.212C415.053 166.975 430.458 159.431 433.747 145.304C436.488 133.454 429.389 121.576 426.182 117.023C420.321 109.034 412.669 102.532 403.842 98.0402C394.699 93.2798 384.992 89.6945 374.951 87.3694C370.757 86.4093 366.509 85.6413 362.232 85.0926C357.307 84.4246 353.843 79.9044 354.475 74.9705C354.775 72.6002 356.01 70.4486 357.905 68.9954C359.8 67.5421 362.197 66.9082 364.562 67.2349C369.441 67.8658 374.293 68.7711 379.008 69.8409C390.54 72.4983 401.686 76.6189 412.175 82.1026C423.553 87.9017 433.397 96.3149 440.901 106.654C446.603 114.883 455.539 131.15 451.262 149.391C445.89 171.748 424.51 182.501 412.147 187C398.689 191.91 387.286 192.815 375.198 193.802H373.416C367.358 194.433 361.136 194.68 354.804 194.68Z" fill="url(#paint6_linear_1_185)"/>
<path d="M242.777 105.749C238.529 105.777 234.841 102.825 233.934 98.6719C233.027 94.5185 235.149 90.2967 239.021 88.5491C250.371 83.362 262.112 79.0786 274.135 75.7387C285.731 72.5575 297.5 70.048 309.385 68.2226C320.991 66.4196 332.725 65.5664 344.47 65.6715C350.544 65.7551 356.61 66.1487 362.644 66.851C367.574 67.4515 371.09 71.9276 370.511 76.8634C370.258 79.2486 369.053 81.4304 367.169 82.9129C365.284 84.3955 362.882 85.0531 360.506 84.7362C355.101 84.0977 349.666 83.7406 344.224 83.6663C333.477 83.528 322.738 84.3173 312.126 86.0254C300.953 87.7568 289.888 90.1289 278.986 93.1301C267.907 96.1891 257.09 100.134 246.642 104.926C245.428 105.477 244.109 105.758 242.777 105.749Z" fill="url(#paint7_linear_1_185)"/>
<path d="M312.646 297.081C309.192 297.028 305.772 296.388 302.532 295.188C298.125 293.316 295.947 288.324 297.572 283.817C299.197 279.31 304.058 276.86 308.645 278.236C310.278 278.926 312.066 279.172 313.825 278.949C314.757 278.757 316.566 278.345 319.828 269.485C323.117 260.186 321.719 192.678 286.935 149.94C283.794 146.084 284.371 140.41 288.224 137.267C292.076 134.123 297.746 134.7 300.887 138.556C341.4 188.481 341.455 262.271 336.795 275.547C333.424 285.066 328.737 294.228 317.608 296.587C315.976 296.925 314.313 297.091 312.646 297.081Z" fill="url(#paint8_linear_1_185)"/>
<path d="M257.88 267.428H252.919C238.846 267.253 224.92 264.549 211.803 259.445C199.836 254.859 188.925 247.888 179.732 238.954C170.955 230.483 164.313 220.047 160.353 208.506C158.756 203.794 161.277 198.679 165.986 197.081C170.694 195.482 175.805 198.006 177.402 202.718C180.447 211.575 185.559 219.578 192.314 226.062C199.821 233.243 208.696 238.84 218.409 242.52C229.52 246.868 241.319 249.191 253.248 249.378C264.006 249.949 274.786 248.744 285.154 245.812C289.907 244.365 294.933 247.049 296.378 251.806C297.824 256.563 295.143 261.592 290.389 263.039C279.84 266.152 268.877 267.633 257.88 267.428Z" fill="url(#paint9_linear_1_185)"/>
<path d="M293.843 153.287C291.132 153.291 288.564 152.072 286.853 149.968C247.162 101.168 202.483 89.0429 175.949 98.589C171.828 99.6797 168.531 102.773 167.178 106.818C166.454 111.449 168.077 116.137 171.509 119.327C174.991 122.887 174.929 128.598 171.372 132.082C167.814 135.567 162.108 135.506 158.626 131.945C150.873 124.409 147.485 113.441 149.635 102.841C151.91 93.0753 159.064 85.5592 169.864 81.6639C200.016 70.6914 252.425 79.1403 300.805 138.584C303.936 142.442 303.36 148.108 299.517 151.257C297.918 152.573 295.912 153.29 293.843 153.287Z" fill="url(#paint10_linear_1_185)"/>
<path d="M379.446 164.753C376.687 164.709 373.936 164.434 371.223 163.93C367.562 176.957 361.613 189.227 353.653 200.167C352.008 202.443 347.924 207.408 347.952 207.408C347.979 207.408 347.431 207.902 347.211 208.176C351.58 212.628 354.92 217.984 356.997 223.867C358.532 222.249 360.232 220.767 361.684 219.067C361.684 219.067 366.317 213.416 368.181 210.837C377.439 198.104 384.346 183.816 388.574 168.648C389.013 167.085 389.314 165.384 389.725 163.765C386.344 164.458 382.898 164.789 379.446 164.753Z" fill="url(#paint11_linear_1_185)"/>
<path d="M2.01214 387.619C2.01214 384.401 3.05481 381.907 5.14014 380.139C7.27081 378.371 10.2855 377.487 14.1841 377.487C18.0828 377.487 21.2561 377.895 23.7041 378.711V384.831C21.2561 383.879 18.2868 383.403 14.7961 383.403C10.5801 383.403 8.47214 384.967 8.47214 388.095V390.747C8.47214 392.198 8.74414 393.354 9.28814 394.215C9.87747 395.031 10.8975 395.847 12.3481 396.663L20.2361 401.083C23.9081 403.078 25.7441 406.093 25.7441 410.127V413.935C25.7441 417.245 24.5881 419.806 22.2761 421.619C19.9641 423.387 16.7001 424.271 12.4841 424.271C8.31347 424.271 4.95881 423.795 2.42014 422.843V416.723C5.41214 417.811 8.56281 418.355 11.8721 418.355C16.8135 418.355 19.2841 416.678 19.2841 413.323V411.011C19.2841 409.651 19.0348 408.609 18.5361 407.883C18.0375 407.113 17.1081 406.365 15.7481 405.639L8.06414 401.423C4.02947 399.247 2.01214 396.006 2.01214 391.699V387.619ZM31.2059 394.827C31.2059 387.937 35.1953 384.491 43.1739 384.491C46.0299 384.491 48.5686 384.809 50.7899 385.443V391.359C48.5233 390.725 46.2113 390.407 43.8539 390.407C41.5419 390.407 39.9099 390.793 38.9579 391.563C38.0513 392.334 37.5979 393.558 37.5979 395.235V413.595C37.5979 415.273 38.0513 416.497 38.9579 417.267C39.9099 418.038 41.5873 418.423 43.9899 418.423C46.3926 418.423 48.6819 418.061 50.8579 417.335V423.319C48.2286 423.954 45.6673 424.271 43.1739 424.271C35.1953 424.271 31.2059 420.826 31.2059 413.935V394.827ZM64.1227 377.691C64.1227 380.185 62.876 381.431 60.3827 381.431C57.8894 381.431 56.6427 380.185 56.6427 377.691C56.6427 375.153 57.8894 373.883 60.3827 373.883C62.876 373.883 64.1227 375.153 64.1227 377.691ZM57.1867 385.307H63.5787V423.931H57.1867V385.307ZM71.3153 413.595V394.827C71.3153 391.563 72.2673 388.979 74.1713 387.075C76.0753 385.126 78.9766 384.151 82.8753 384.151C86.774 384.151 89.6526 385.126 91.5113 387.075C93.37 388.979 94.2993 391.563 94.2993 394.827V407.271H77.5713V413.255C77.5713 415.069 78.1153 416.406 79.2033 417.267C80.3366 418.129 82.286 418.559 85.0513 418.559C87.862 418.559 90.582 418.151 93.2113 417.335V423.183C90.4913 423.909 87.59 424.271 84.5073 424.271C75.7126 424.271 71.3153 420.713 71.3153 413.595ZM77.5713 402.103H88.2473V394.895C88.2473 391.359 86.4566 389.591 82.8753 389.591C79.3393 389.591 77.5713 391.359 77.5713 394.895V402.103ZM107.666 386.599C110.567 385.33 113.265 384.695 115.758 384.695C118.297 384.695 120.359 385.466 121.946 387.007C123.578 388.503 124.394 390.679 124.394 393.535V423.931H117.866V394.623C117.866 391.949 116.529 390.611 113.854 390.611C111.905 390.611 109.933 391.11 107.938 392.107V423.931H101.546V384.831H107.666V386.599ZM131.811 394.827C131.811 387.937 135.801 384.491 143.779 384.491C146.635 384.491 149.174 384.809 151.395 385.443V391.359C149.129 390.725 146.817 390.407 144.459 390.407C142.147 390.407 140.515 390.793 139.563 391.563C138.657 392.334 138.203 393.558 138.203 395.235V413.595C138.203 415.273 138.657 416.497 139.563 417.267C140.515 418.038 142.193 418.423 144.595 418.423C146.998 418.423 149.287 418.061 151.463 417.335V423.319C148.834 423.954 146.273 424.271 143.779 424.271C135.801 424.271 131.811 420.826 131.811 413.935V394.827ZM157.112 413.595V394.827C157.112 391.563 158.064 388.979 159.968 387.075C161.872 385.126 164.774 384.151 168.672 384.151C172.571 384.151 175.45 385.126 177.308 387.075C179.167 388.979 180.096 391.563 180.096 394.827V407.271H163.368V413.255C163.368 415.069 163.912 416.406 165 417.267C166.134 418.129 168.083 418.559 170.848 418.559C173.659 418.559 176.379 418.151 179.008 417.335V423.183C176.288 423.909 173.387 424.271 170.304 424.271C161.51 424.271 157.112 420.713 157.112 413.595ZM163.368 402.103H174.044V394.895C174.044 391.359 172.254 389.591 168.672 389.591C165.136 389.591 163.368 391.359 163.368 394.895V402.103ZM184.895 394.351C184.895 391.042 185.847 388.571 187.751 386.939C189.7 385.307 192.851 384.491 197.203 384.491C200.104 384.491 202.688 384.854 204.955 385.579V391.427C202.779 390.611 200.376 390.203 197.747 390.203C195.118 390.203 193.372 390.566 192.511 391.291C191.65 391.971 191.219 393.105 191.219 394.691V396.051C191.219 397.275 191.468 398.205 191.967 398.839C192.466 399.474 193.418 400.154 194.823 400.879L200.603 404.007C204.502 406.093 206.451 408.903 206.451 412.439V414.207C206.451 420.917 202.099 424.271 193.395 424.271C190.448 424.271 187.66 423.931 185.031 423.251V417.335C187.343 418.106 189.882 418.491 192.647 418.491C195.458 418.491 197.384 418.129 198.427 417.403C199.515 416.678 200.059 415.567 200.059 414.071V412.915C200.059 411.827 199.764 410.966 199.175 410.331C198.631 409.651 197.52 408.881 195.843 408.019L190.335 405.163C186.708 403.305 184.895 400.426 184.895 396.527V394.351ZM224.581 413.595V394.827C224.581 391.563 225.533 388.979 227.437 387.075C229.341 385.126 232.242 384.151 236.141 384.151C240.04 384.151 242.918 385.126 244.777 387.075C246.636 388.979 247.565 391.563 247.565 394.827V407.271H230.837V413.255C230.837 415.069 231.381 416.406 232.469 417.267C233.602 418.129 235.552 418.559 238.317 418.559C241.128 418.559 243.848 418.151 246.477 417.335V423.183C243.757 423.909 240.856 424.271 237.773 424.271C228.978 424.271 224.581 420.713 224.581 413.595ZM230.837 402.103H241.513V394.895C241.513 391.359 239.722 389.591 236.141 389.591C232.605 389.591 230.837 391.359 230.837 394.895V402.103ZM261.408 377.827V384.831H269.296V390.339H261.408V414.615C261.408 417.245 262.768 418.559 265.488 418.559C266.802 418.559 268.276 418.287 269.908 417.743V423.523C269.862 423.523 269.636 423.569 269.228 423.659C268.865 423.75 268.48 423.841 268.072 423.931C266.848 424.203 265.669 424.339 264.536 424.339C258.189 424.339 255.016 421.257 255.016 415.091V390.339H250.936V384.831H255.22L257.124 377.827H261.408ZM308.28 377.827V383.471H299.508V423.931H293.048V383.471H284.276V377.827H308.28ZM312.304 413.595V394.827C312.304 391.563 313.256 388.979 315.16 387.075C317.064 385.126 319.965 384.151 323.864 384.151C327.762 384.151 330.641 385.126 332.5 387.075C334.358 388.979 335.288 391.563 335.288 394.827V407.271H318.56V413.255C318.56 415.069 319.104 416.406 320.192 417.267C321.325 418.129 323.274 418.559 326.04 418.559C328.85 418.559 331.57 418.151 334.2 417.335V423.183C331.48 423.909 328.578 424.271 325.496 424.271C316.701 424.271 312.304 420.713 312.304 413.595ZM318.56 402.103H329.236V394.895C329.236 391.359 327.445 389.591 323.864 389.591C320.328 389.591 318.56 391.359 318.56 394.895V402.103ZM341.854 394.827C341.854 387.937 345.844 384.491 353.822 384.491C356.678 384.491 359.217 384.809 361.438 385.443V391.359C359.172 390.725 356.86 390.407 354.502 390.407C352.19 390.407 350.558 390.793 349.606 391.563C348.7 392.334 348.246 393.558 348.246 395.235V413.595C348.246 415.273 348.7 416.497 349.606 417.267C350.558 418.038 352.236 418.423 354.638 418.423C357.041 418.423 359.33 418.061 361.506 417.335V423.319C358.877 423.954 356.316 424.271 353.822 424.271C345.844 424.271 341.854 420.826 341.854 413.935V394.827ZM367.835 374.427H374.227V386.123C376.539 385.126 379.01 384.627 381.639 384.627C384.314 384.627 386.49 385.375 388.167 386.871C389.844 388.367 390.683 390.589 390.683 393.535V423.931H384.155V394.623C384.155 391.949 382.818 390.611 380.143 390.611C378.103 390.611 376.131 391.087 374.227 392.039V423.931H367.835V374.427ZM404.9 386.599C407.802 385.33 410.499 384.695 412.992 384.695C415.531 384.695 417.594 385.466 419.18 387.007C420.812 388.503 421.628 390.679 421.628 393.535V423.931H415.1V394.623C415.1 391.949 413.763 390.611 411.088 390.611C409.139 390.611 407.167 391.11 405.172 392.107V423.931H398.78V384.831H404.9V386.599ZM445.842 394.963C445.842 391.473 444.096 389.727 440.606 389.727C437.115 389.727 435.37 391.473 435.37 394.963V413.799C435.37 417.29 437.115 419.035 440.606 419.035C444.096 419.035 445.842 417.29 445.842 413.799V394.963ZM429.046 394.827C429.046 391.563 429.998 388.979 431.902 387.075C433.806 385.126 436.707 384.151 440.606 384.151C444.504 384.151 447.406 385.126 449.31 387.075C451.259 388.979 452.234 391.563 452.234 394.827V413.935C452.234 417.199 451.259 419.806 449.31 421.755C447.406 423.659 444.504 424.611 440.606 424.611C436.707 424.611 433.806 423.659 431.902 421.755C429.998 419.806 429.046 417.199 429.046 413.935V394.827ZM459.941 374.427H466.333V423.931H459.941V374.427ZM490.865 394.963C490.865 391.473 489.12 389.727 485.629 389.727C482.139 389.727 480.393 391.473 480.393 394.963V413.799C480.393 417.29 482.139 419.035 485.629 419.035C489.12 419.035 490.865 417.29 490.865 413.799V394.963ZM474.069 394.827C474.069 391.563 475.021 388.979 476.925 387.075C478.829 385.126 481.731 384.151 485.629 384.151C489.528 384.151 492.429 385.126 494.333 387.075C496.283 388.979 497.257 391.563 497.257 394.827V413.935C497.257 417.199 496.283 419.806 494.333 421.755C492.429 423.659 489.528 424.611 485.629 424.611C481.731 424.611 478.829 423.659 476.925 421.755C475.021 419.806 474.069 417.199 474.069 413.935V394.827ZM530.192 387.347H527.88C526.837 387.347 525.953 387.551 525.228 387.959C526.497 389.546 527.132 391.654 527.132 394.283V399.859C527.132 403.033 526.157 405.503 524.208 407.271C522.304 409.039 519.403 409.946 515.504 409.991C513.373 409.991 512.308 410.989 512.308 412.983C512.308 413.935 512.58 414.615 513.124 415.023C513.713 415.431 514.733 415.635 516.184 415.635H520.128C526.565 415.635 529.784 418.333 529.784 423.727V424.883C529.784 431.003 525.455 434.063 516.796 434.063H514.144C509.203 434.063 505.463 433.27 502.924 431.683V425.699C505.916 427.649 509.611 428.623 514.008 428.623H516.184C518.904 428.623 520.831 428.306 521.964 427.671C523.097 427.037 523.664 426.085 523.664 424.815V424.203C523.664 423.115 523.369 422.322 522.78 421.823C522.236 421.279 521.148 421.007 519.516 421.007H515.368C509.52 421.007 506.596 419.035 506.596 415.091V414.003C506.596 411.465 507.797 409.923 510.2 409.379C505.621 408.065 503.332 404.891 503.332 399.859V394.283C503.332 391.065 504.307 388.571 506.256 386.803C508.251 385.035 511.016 384.151 514.552 384.151C518.088 384.151 520.808 384.695 522.712 385.783C523.664 382.882 525.817 381.431 529.172 381.431H530.192V387.347ZM520.74 399.791V394.351C520.74 392.674 520.309 391.45 519.448 390.679C518.587 389.863 517.181 389.455 515.232 389.455C513.283 389.455 511.877 389.863 511.016 390.679C510.155 391.45 509.724 392.674 509.724 394.351V399.791C509.724 401.469 510.155 402.715 511.016 403.531C511.877 404.302 513.283 404.687 515.232 404.687C517.181 404.687 518.587 404.302 519.448 403.531C520.309 402.715 520.74 401.469 520.74 399.791ZM542.447 377.691C542.447 380.185 541.2 381.431 538.707 381.431C536.214 381.431 534.967 380.185 534.967 377.691C534.967 375.153 536.214 373.883 538.707 373.883C541.2 373.883 542.447 375.153 542.447 377.691ZM535.511 385.307H541.903V423.931H535.511V385.307ZM549.64 413.595V394.827C549.64 391.563 550.592 388.979 552.496 387.075C554.4 385.126 557.301 384.151 561.2 384.151C565.098 384.151 567.977 385.126 569.836 387.075C571.694 388.979 572.624 391.563 572.624 394.827V407.271H555.896V413.255C555.896 415.069 556.44 416.406 557.528 417.267C558.661 418.129 560.61 418.559 563.376 418.559C566.186 418.559 568.906 418.151 571.536 417.335V423.183C568.816 423.909 565.914 424.271 562.832 424.271C554.037 424.271 549.64 420.713 549.64 413.595ZM555.896 402.103H566.572V394.895C566.572 391.359 564.781 389.591 561.2 389.591C557.664 389.591 555.896 391.359 555.896 394.895V402.103ZM577.422 394.351C577.422 391.042 578.374 388.571 580.278 386.939C582.228 385.307 585.378 384.491 589.73 384.491C592.632 384.491 595.216 384.854 597.482 385.579V391.427C595.306 390.611 592.904 390.203 590.274 390.203C587.645 390.203 585.9 390.566 585.038 391.291C584.177 391.971 583.746 393.105 583.746 394.691V396.051C583.746 397.275 583.996 398.205 584.494 398.839C584.993 399.474 585.945 400.154 587.35 400.879L593.13 404.007C597.029 406.093 598.978 408.903 598.978 412.439V414.207C598.978 420.917 594.626 424.271 585.922 424.271C582.976 424.271 580.188 423.931 577.558 423.251V417.335C579.87 418.106 582.409 418.491 585.174 418.491C587.985 418.491 589.912 418.129 590.954 417.403C592.042 416.678 592.586 415.567 592.586 414.071V412.915C592.586 411.827 592.292 410.966 591.702 410.331C591.158 409.651 590.048 408.881 588.37 408.019L582.862 405.163C579.236 403.305 577.422 400.426 577.422 396.527V394.351ZM179.215 491.611C175.18 491.611 172.12 490.591 170.035 488.551C167.95 486.511 166.907 483.814 166.907 480.459V455.367C166.907 451.967 167.927 449.247 169.967 447.207C172.052 445.167 175.112 444.147 179.147 444.147C183.227 444.147 186.31 445.19 188.395 447.275C190.48 449.315 191.523 452.013 191.523 455.367V480.459C191.523 484.494 190.118 487.486 187.307 489.435L194.855 497.527H187.035L181.459 491.475C180.552 491.566 179.804 491.611 179.215 491.611ZM173.299 455.571V480.187C173.299 483.95 175.271 485.831 179.215 485.831C183.159 485.831 185.131 483.95 185.131 480.187V455.571C185.131 451.854 183.159 449.995 179.215 449.995C175.271 449.995 173.299 451.854 173.299 455.571ZM209.871 485.287C211.775 485.287 213.634 484.721 215.447 483.587V451.831H221.907V490.931H215.787V489.095C213.43 490.41 210.823 491.067 207.967 491.067C205.111 491.067 202.89 490.251 201.303 488.619C199.716 486.987 198.923 484.63 198.923 481.547V451.831H205.383V480.663C205.383 483.746 206.879 485.287 209.871 485.287ZM234.287 479.711V481.751C234.287 483.247 234.627 484.358 235.307 485.083C236.032 485.809 237.415 486.171 239.455 486.171C241.54 486.171 243.444 485.469 245.167 484.063V472.707L238.707 474.475C236.939 474.974 235.76 475.609 235.171 476.379C234.581 477.105 234.287 478.215 234.287 479.711ZM229.867 452.783C232.451 451.922 235.737 451.491 239.727 451.491C247.479 451.491 251.355 455.005 251.355 462.031V490.931H245.235V488.143C243.24 490.138 240.611 491.135 237.347 491.135C231.091 491.135 227.963 487.985 227.963 481.683V479.439C227.963 476.901 228.62 474.861 229.935 473.319C231.249 471.733 233.357 470.531 236.259 469.715L245.167 467.267V462.031C245.167 460.354 244.713 459.153 243.807 458.427C242.9 457.657 240.973 457.271 238.027 457.271C235.125 457.271 232.405 457.725 229.867 458.631V452.783ZM265.547 453.599C268.448 452.33 271.146 451.695 273.639 451.695C276.178 451.695 278.24 452.466 279.827 454.007C281.459 455.503 282.275 457.679 282.275 460.535V490.931H275.747V461.623C275.747 458.949 274.41 457.611 271.735 457.611C269.786 457.611 267.814 458.11 265.819 459.107V490.931H259.427V451.831H265.547V453.599ZM296.968 444.827V451.831H304.856V457.339H296.968V481.615C296.968 484.245 298.328 485.559 301.048 485.559C302.363 485.559 303.836 485.287 305.468 484.743V490.523C305.423 490.523 305.196 490.569 304.788 490.659C304.426 490.75 304.04 490.841 303.632 490.931C302.408 491.203 301.23 491.339 300.096 491.339C293.75 491.339 290.576 488.257 290.576 482.091V457.339H286.496V451.831H290.78L292.684 444.827H296.968ZM317.629 444.691C317.629 447.185 316.382 448.431 313.889 448.431C311.395 448.431 310.149 447.185 310.149 444.691C310.149 442.153 311.395 440.883 313.889 440.883C316.382 440.883 317.629 442.153 317.629 444.691ZM310.693 452.307H317.085V490.931H310.693V452.307ZM341.345 457.611H336.857C333.094 457.611 331.213 459.402 331.213 462.983V480.595C331.213 483.723 332.732 485.287 335.769 485.287C338.081 485.287 339.94 484.675 341.345 483.451V457.611ZM336.109 451.831H347.805V501.063H341.413V489.367C339.645 490.501 337.31 491.067 334.409 491.067C328.017 491.067 324.821 487.735 324.821 481.071V462.847C324.821 459.447 325.796 456.773 327.745 454.823C329.74 452.829 332.528 451.831 336.109 451.831ZM366.789 485.287C368.693 485.287 370.552 484.721 372.365 483.587V451.831H378.825V490.931H372.705V489.095C370.348 490.41 367.741 491.067 364.885 491.067C362.029 491.067 359.808 490.251 358.221 488.619C356.634 486.987 355.841 484.63 355.841 481.547V451.831H362.301V480.663C362.301 483.746 363.797 485.287 366.789 485.287ZM386.513 480.595V461.827C386.513 458.563 387.465 455.979 389.369 454.075C391.273 452.126 394.174 451.151 398.073 451.151C401.971 451.151 404.85 452.126 406.709 454.075C408.567 455.979 409.497 458.563 409.497 461.827V474.271H392.769V480.255C392.769 482.069 393.313 483.406 394.401 484.267C395.534 485.129 397.483 485.559 400.249 485.559C403.059 485.559 405.779 485.151 408.409 484.335V490.183C405.689 490.909 402.787 491.271 399.705 491.271C390.91 491.271 386.513 487.713 386.513 480.595ZM392.769 469.103H403.445V461.895C403.445 458.359 401.654 456.591 398.073 456.591C394.537 456.591 392.769 458.359 392.769 461.895V469.103ZM414.295 461.351C414.295 458.042 415.247 455.571 417.151 453.939C419.101 452.307 422.251 451.491 426.603 451.491C429.505 451.491 432.089 451.854 434.355 452.579V458.427C432.179 457.611 429.777 457.203 427.147 457.203C424.518 457.203 422.773 457.566 421.911 458.291C421.05 458.971 420.619 460.105 420.619 461.691V463.051C420.619 464.275 420.869 465.205 421.367 465.839C421.866 466.474 422.818 467.154 424.223 467.879L430.003 471.007C433.902 473.093 435.851 475.903 435.851 479.439V481.207C435.851 487.917 431.499 491.271 422.795 491.271C419.849 491.271 417.061 490.931 414.431 490.251V484.335C416.743 485.106 419.282 485.491 422.047 485.491C424.858 485.491 426.785 485.129 427.827 484.403C428.915 483.678 429.459 482.567 429.459 481.071V479.915C429.459 478.827 429.165 477.966 428.575 477.331C428.031 476.651 426.921 475.881 425.243 475.019L419.735 472.163C416.109 470.305 414.295 467.426 414.295 463.527V461.351Z" fill="#231F20"/>
<path d="M37.53 333.369H42.698V352.647H48.988V356.931H37.53V333.369ZM59.6544 332.009C61.0371 332.009 61.7284 332.655 61.7284 333.947C61.7284 334.809 61.3884 335.863 60.7084 337.109C60.0511 338.356 59.3598 339.467 58.6344 340.441H56.4584L57.8864 332.009H59.6544ZM80.6351 356.931L79.6491 351.491H74.9911L74.0731 356.931H69.2111L73.8351 333.369H80.9411L85.4971 356.931H80.6351ZM75.7051 347.173H78.9011L77.2691 338.061L75.7051 347.173ZM103.662 333.369H108.694V356.931H103.798C100.443 348.363 98.5052 343.195 97.9839 341.427C98.4599 343.218 98.6979 346.301 98.6979 350.675V356.931H93.6659V333.369H98.6979L101.792 341.257C103.107 344.635 103.991 347.196 104.444 348.941C103.923 346.743 103.662 343.524 103.662 339.285V333.369ZM128.218 333.369H133.25V356.931H128.354C124.999 348.363 123.061 343.195 122.54 341.427C123.016 343.218 123.254 346.301 123.254 350.675V356.931H118.222V333.369H123.254L126.348 341.257C127.662 344.635 128.546 347.196 129 348.941C128.478 346.743 128.218 343.524 128.218 339.285V333.369ZM142.777 333.369H154.711V337.789H147.877V342.787H153.793V347.207H147.877V352.511H154.711V356.931H142.777V333.369ZM148.761 328.133H152.501L149.951 332.043H147.265L148.761 328.133ZM163.548 333.369H175.482V337.789H168.648V342.787H174.564V347.207H168.648V352.511H175.482V356.931H163.548V333.369ZM197.087 333.369H202.255V356.931H197.087V333.369ZM221.777 333.369H226.809V356.931H221.913C218.559 348.363 216.621 343.195 216.099 341.427C216.575 343.218 216.813 346.301 216.813 350.675V356.931H211.781V333.369H216.813L219.907 341.257C221.222 344.635 222.106 347.196 222.559 348.941C222.038 346.743 221.777 343.524 221.777 339.285V333.369ZM248.645 333.369V337.789H244.395V356.931H239.227V337.789H234.977V333.369H248.645ZM256.809 333.369H268.743V337.789H261.909V342.787H267.825V347.207H261.909V352.511H268.743V356.931H256.809V333.369ZM282.679 348.431V356.931H277.579V333.369H285.263C287.122 333.369 288.573 333.811 289.615 334.695C290.658 335.579 291.179 336.871 291.179 338.571V342.923C291.179 345.643 290.25 347.343 288.391 348.023L292.097 356.931H286.487L283.325 348.431H282.679ZM282.679 337.721V344.385H284.685C285.207 344.385 285.569 344.272 285.773 344.045C285.977 343.819 286.079 343.422 286.079 342.855V339.013C286.079 338.515 285.966 338.175 285.739 337.993C285.513 337.812 285.161 337.721 284.685 337.721H282.679ZM310.438 333.369H315.47V356.931H310.574C307.219 348.363 305.281 343.195 304.76 341.427C305.236 343.218 305.474 346.301 305.474 350.675V356.931H300.442V333.369H305.474L308.568 341.257C309.882 344.635 310.766 347.196 311.22 348.941C310.698 346.743 310.438 343.524 310.438 339.285V333.369ZM335.061 356.931L334.075 351.491H329.417L328.499 356.931H323.637L328.261 333.369H335.367L339.923 356.931H335.061ZM330.131 347.173H333.327L331.695 338.061L330.131 347.173ZM360.4 333.369V337.789H356.15V356.931H350.982V337.789H346.732V333.369H360.4ZM368.564 333.369H373.732V356.931H368.564V333.369ZM392.064 339.387C392.064 338.254 391.384 337.687 390.024 337.687C388.687 337.687 388.018 338.254 388.018 339.387V350.913C388.018 352.047 388.687 352.613 390.024 352.613C391.384 352.613 392.064 352.047 392.064 350.913V339.387ZM382.918 339.115C382.918 337.257 383.519 335.783 384.72 334.695C385.922 333.585 387.69 333.029 390.024 333.029C392.359 333.029 394.127 333.585 395.328 334.695C396.552 335.783 397.164 337.257 397.164 339.115V351.185C397.164 353.044 396.552 354.529 395.328 355.639C394.127 356.727 392.359 357.271 390.024 357.271C387.69 357.271 385.922 356.727 384.72 355.639C383.519 354.529 382.918 353.044 382.918 351.185V339.115ZM416.349 333.369H421.381V356.931H416.485C413.13 348.363 411.192 343.195 410.671 341.427C411.147 343.218 411.385 346.301 411.385 350.675V356.931H406.353V333.369H411.385L414.479 341.257C415.794 344.635 416.678 347.196 417.131 348.941C416.61 346.743 416.349 343.524 416.349 339.285V333.369ZM440.973 356.931L439.987 351.491H435.329L434.411 356.931H429.549L434.173 333.369H441.279L445.835 356.931H440.973ZM436.043 347.173H439.239L437.607 338.061L436.043 347.173ZM454.003 333.369H459.171V352.647H465.461V356.931H454.003V333.369ZM473.612 333.369H485.546V337.789H478.712V342.787H484.628V347.207H478.712V352.511H485.546V356.931H473.612V333.369ZM516.093 338.809C516.093 338.401 515.991 338.095 515.787 337.891C515.606 337.665 515.243 337.551 514.699 337.551H512.251V352.545H514.699C515.628 352.545 516.093 352.024 516.093 350.981V338.809ZM507.151 333.369H515.413C517.249 333.369 518.666 333.811 519.663 334.695C520.683 335.579 521.193 336.883 521.193 338.605V351.389C521.193 355.084 519.368 356.931 515.719 356.931H507.151V333.369ZM530.379 333.369H542.313V337.789H535.479V342.787H541.395V347.207H535.479V352.511H542.313V356.931H530.379V333.369ZM550.299 338.877C550.299 337.064 550.911 335.67 552.135 334.695C553.359 333.698 555.116 333.199 557.405 333.199C559.717 333.199 561.44 333.437 562.573 333.913V338.809C561.19 338.22 559.615 337.925 557.847 337.925C556.94 337.925 556.328 338.073 556.011 338.367C555.694 338.639 555.535 339.036 555.535 339.557V340.067C555.535 340.702 555.637 341.178 555.841 341.495C556.068 341.79 556.544 342.13 557.269 342.515L561.145 344.691C563.004 345.711 563.933 347.241 563.933 349.281V351.389C563.933 353.225 563.253 354.642 561.893 355.639C560.533 356.614 558.618 357.101 556.147 357.101C553.699 357.101 551.852 356.841 550.605 356.319V351.389C552.146 352.047 553.892 352.375 555.841 352.375C557.79 352.375 558.765 351.82 558.765 350.709V350.199C558.765 349.678 558.652 349.293 558.425 349.043C558.221 348.771 557.824 348.477 557.235 348.159L553.597 346.187C551.398 344.963 550.299 343.241 550.299 341.019V338.877Z" fill="#231F20"/>
<defs>
<linearGradient id="paint0_linear_1_185" x1="336.222" y1="265.297" x2="335.892" y2="137.561" gradientUnits="userSpaceOnUse">
<stop stop-color="#FDB714"/>
<stop offset="0.24" stop-color="#D2A029"/>
<stop offset="0.56" stop-color="#FDB714"/>
<stop offset="0.88" stop-color="#CF8D2A"/>
</linearGradient>
<linearGradient id="paint1_linear_1_185" x1="372.121" y1="156.209" x2="371.742" y2="7.74715" gradientUnits="userSpaceOnUse">
<stop stop-color="#CF8D2A"/>
<stop offset="0.43" stop-color="#D2A029"/>
<stop offset="0.49" stop-color="#CBA02F"/>
<stop offset="0.57" stop-color="#B6A241"/>
<stop offset="0.68" stop-color="#94A45D"/>
<stop offset="0.79" stop-color="#65A784"/>
<stop offset="0.92" stop-color="#2AAAB6"/>
<stop offset="1" stop-color="#00ADD9"/>
</linearGradient>
<linearGradient id="paint2_linear_1_185" x1="259.182" y1="189.122" x2="297.183" y2="203.005" gradientUnits="userSpaceOnUse">
<stop offset="0.01" stop-color="#48773D"/>
<stop offset="0.08" stop-color="#447541"/>
<stop offset="0.16" stop-color="#39704E"/>
<stop offset="0.24" stop-color="#266762"/>
<stop offset="0.31" stop-color="#0C5A7F"/>
<stop offset="0.34" stop-color="#02558A"/>
<stop offset="0.58" stop-color="#193669"/>
<stop offset="0.81" stop-color="#02558A"/>
<stop offset="1" stop-color="#193669"/>
</linearGradient>
<linearGradient id="paint3_linear_1_185" x1="156.871" y1="155.034" x2="349.827" y2="156.962" gradientUnits="userSpaceOnUse">
<stop offset="0.11" stop-color="#CF8D2A"/>
<stop offset="0.23" stop-color="#FDB714"/>
<stop offset="0.58" stop-color="#F36D25"/>
<stop offset="0.88" stop-color="#8E1937"/>
</linearGradient>
<linearGradient id="paint4_linear_1_185" x1="235.353" y1="125.847" x2="352.862" y2="11.9838" gradientUnits="userSpaceOnUse">
<stop offset="0.1" stop-color="#48773D"/>
<stop offset="0.26" stop-color="#269B48"/>
<stop offset="1" stop-color="#00ADD9"/>
</linearGradient>
<linearGradient id="paint5_linear_1_185" x1="178.067" y1="152.369" x2="224.522" y2="152.833" gradientUnits="userSpaceOnUse">
<stop stop-color="#017DBC"/>
<stop offset="0.47" stop-color="#02558A"/>
</linearGradient>
<linearGradient id="paint6_linear_1_185" x1="332.232" y1="182.315" x2="431.194" y2="99.5121" gradientUnits="userSpaceOnUse">
<stop stop-color="#8E1937"/>
<stop offset="0.42" stop-color="#EB1C2D"/>
<stop offset="1" stop-color="#E01284"/>
</linearGradient>
<linearGradient id="paint7_linear_1_185" x1="234.215" y1="85.703" x2="371.366" y2="87.0734" gradientUnits="userSpaceOnUse">
<stop stop-color="#017DBC"/>
<stop offset="0.53" stop-color="#F36D25"/>
<stop offset="0.99" stop-color="#E01284"/>
</linearGradient>
<linearGradient id="paint8_linear_1_185" x1="307.501" y1="278.653" x2="360.663" y2="186.517" gradientUnits="userSpaceOnUse">
<stop stop-color="#193669"/>
<stop offset="0.12" stop-color="#02558A"/>
<stop offset="0.26" stop-color="#017DBC"/>
<stop offset="0.53" stop-color="#3DB049"/>
<stop offset="0.54" stop-color="#3BAE49"/>
<stop offset="0.68" stop-color="#2BA048"/>
<stop offset="0.8" stop-color="#269B48"/>
<stop offset="1" stop-color="#269B48"/>
</linearGradient>
<linearGradient id="paint9_linear_1_185" x1="160.843" y1="231.992" x2="297.613" y2="233.359" gradientUnits="userSpaceOnUse">
<stop stop-color="#017DBC"/>
<stop offset="0.53" stop-color="#EB1C2D"/>
<stop offset="0.86" stop-color="#D2A029"/>
<stop offset="1" stop-color="#EFAD14"/>
</linearGradient>
<linearGradient id="paint10_linear_1_185" x1="149.443" y1="115.305" x2="303.342" y2="116.843" gradientUnits="userSpaceOnUse">
<stop stop-color="#CF8D2A"/>
<stop offset="0.47" stop-color="#D2A029"/>
<stop offset="0.77" stop-color="#48773D"/>
<stop offset="1" stop-color="#269B48"/>
</linearGradient>
<linearGradient id="paint11_linear_1_185" x1="367.486" y1="272.914" x2="368.475" y2="141.221" gradientUnits="userSpaceOnUse">
<stop stop-color="#FDB714"/>
<stop offset="0.24" stop-color="#D2A029"/>
<stop offset="0.56" stop-color="#FDB714"/>
<stop offset="0.88" stop-color="#CF8D2A"/>
</linearGradient>
</defs>
</svg>
