<svg width="429" height="506" viewBox="0 0 429 506" fill="none" xmlns="http://www.w3.org/2000/svg">
<path d="M199.894 264.725C195.342 264.707 191.522 261.288 190.998 256.764C190.474 252.239 193.411 248.037 197.838 246.977C200.332 246.374 202.827 245.715 205.266 244.975C217.589 241.222 229.251 235.567 239.831 228.214C247.945 222.531 255.312 215.849 261.76 208.327C261.76 208.327 265.816 203.389 267.461 201.112C275.463 190.1 281.432 177.744 285.086 164.629C286.813 158.539 288.293 152.202 289.554 145.784C290.547 140.931 295.242 137.77 300.107 138.679C302.449 139.136 304.512 140.506 305.844 142.487C307.175 144.468 307.665 146.897 307.207 149.24C305.864 156.125 304.246 162.955 302.41 169.484C298.17 184.656 291.265 198.952 282.016 211.701C280.152 214.252 275.547 219.93 275.547 219.93C268.042 228.671 259.458 236.423 250.001 243C237.863 251.435 224.48 257.915 210.337 262.201C207.505 263.061 204.654 263.829 201.785 264.506C201.164 264.648 200.53 264.721 199.894 264.725Z" fill="url(#paint0_linear_8_236)"/>
<path d="M298.545 156.536C298.002 156.536 297.46 156.48 296.928 156.372C294.578 155.945 292.495 154.6 291.138 152.635C289.78 150.669 289.26 148.243 289.691 145.893C291.062 138.432 292.734 127.405 293.392 119.587L293.748 114.676C294.706 101.448 294.191 88.1533 292.213 75.0384C290.581 62.5277 286.361 50.4948 279.823 39.707C275.921 33.5612 270.684 28.3759 264.501 24.5376C261.585 22.9668 259.768 19.919 259.772 16.6051C259.775 13.2911 261.599 10.2475 264.519 8.68316C267.438 7.11886 270.98 7.28717 273.738 9.12125C282.294 14.3814 289.532 21.5315 294.899 30.0238C302.807 42.9218 307.942 57.3278 309.975 72.3227C312.156 86.7807 312.735 101.435 311.702 116.021L311.318 121.205C310.606 129.654 308.824 141.394 307.399 149.267C306.561 153.495 302.852 156.54 298.545 156.536Z" fill="url(#paint1_linear_8_236)"/>
<path d="M217.327 295.722C216.042 295.729 214.77 295.457 213.599 294.927C211.375 293.901 209.231 292.709 207.185 291.361C198.719 285.511 191.304 278.267 185.256 269.937C177.975 260.471 171.553 250.373 166.069 239.763C152.892 213.898 146.132 185.239 146.361 156.207C146.368 149.207 146.743 142.211 147.484 135.25C147.703 131.962 149.699 129.056 152.689 127.676C155.679 126.296 159.184 126.662 161.825 128.63C164.466 130.598 165.821 133.853 165.356 137.115C164.698 143.507 164.369 149.953 164.342 156.317C164.294 170.186 165.97 184.008 169.331 197.464C172.365 209.24 176.705 220.639 182.269 231.451C187.238 241.152 193.054 250.396 199.647 259.074C204.45 265.748 210.343 271.563 217.08 276.274C218.369 277.14 219.726 277.902 221.137 278.55C224.97 280.314 227.062 284.509 226.167 288.635C225.271 292.761 221.628 295.709 217.409 295.722H217.327Z" fill="url(#paint2_linear_8_236)"/>
<path d="M254.14 195.16H253.537C237.651 193.824 221.855 191.58 206.226 188.439L200.908 187.259C188.738 184.516 175.827 180.923 162.533 176.671C147.923 172.062 134.108 166.933 121.417 161.501C110.642 156.938 100.185 151.66 90.1139 145.701L88.853 144.906C82.8983 141.643 77.4427 137.541 72.6532 132.726C69.946 130.508 68.7706 126.92 69.6401 123.528C70.5097 120.137 73.2663 117.558 76.7062 116.918C80.1461 116.279 83.6444 117.694 85.6733 120.547C89.3437 124.085 93.4743 127.111 97.9533 129.544L99.269 130.34C108.618 135.872 118.335 140.757 128.352 144.96C140.413 150.145 153.652 155.055 167.714 159.499C180.624 163.586 193.233 167.015 204.745 169.676L209.844 170.801C224.723 173.78 239.759 175.914 254.88 177.192C259.702 177.569 263.362 181.696 263.162 186.533C262.963 191.369 258.976 195.181 254.14 195.16Z" fill="url(#paint3_linear_8_236)"/>
<path d="M156.53 144.33H155.543C153.145 144.069 150.951 142.857 149.452 140.965C147.953 139.073 147.274 136.659 147.567 134.262C148.76 123.708 150.646 113.243 153.213 102.936C157.352 85.6529 163.884 69.0334 172.62 53.5598C179.683 41.0096 188.811 29.7418 199.62 20.2309C208.533 12.3555 219.057 6.52312 230.457 3.14129C240.46 0.148741 251.126 0.196477 261.102 3.27845C264.959 4.5111 268.687 6.11893 272.231 8.07891C275.031 9.66164 276.776 12.6195 276.807 15.8382C276.837 19.0569 275.15 22.0475 272.38 23.6835C269.61 25.3195 266.178 25.3523 263.377 23.7695C260.867 22.3577 258.222 21.1998 255.483 20.3132C248.898 18.3083 241.866 18.3083 235.281 20.3132C226.415 23.0287 218.243 27.6329 211.324 33.8094C202.044 41.9719 194.22 51.6564 188.189 62.4475C180.302 76.4548 174.407 91.4949 170.674 107.133C168.273 116.676 166.533 126.373 165.466 136.155C165.029 140.773 161.165 144.308 156.53 144.33Z" fill="url(#paint4_linear_8_236)"/>
<path d="M82.6855 215.02C78.8093 215.024 75.3698 212.533 74.1608 208.848C70.3445 197.179 69.5244 184.736 71.776 172.666C74.3478 159.731 79.9883 147.604 88.2224 137.307C96.638 126.662 106.576 117.318 117.716 109.574C126.778 103.161 136.339 97.4825 146.306 92.5945C149.185 91.1686 152.605 91.3881 155.279 93.1704C157.952 94.9527 159.473 98.0269 159.267 101.235C159.062 104.443 157.161 107.298 154.282 108.724C145.166 113.193 136.421 118.385 128.132 124.25C118.484 130.937 109.851 138.984 102.503 148.143C96.007 156.158 91.5404 165.625 89.4833 175.738C87.7411 184.884 88.3447 194.321 91.2376 203.17C92.7882 207.889 90.2237 212.972 85.5088 214.526C84.5993 214.838 83.6466 215.004 82.6855 215.02Z" fill="url(#paint5_linear_8_236)"/>
<path d="M268.804 195.598C263.788 195.598 258.717 195.598 253.591 195.16C248.687 194.779 244.999 190.526 245.313 185.614C245.693 180.693 249.898 176.958 254.825 177.165C265.242 177.826 275.694 177.744 286.1 176.918H287.882C299.203 176.013 308.961 175.217 320.144 171.13C329.053 167.893 344.458 160.349 347.747 146.222C350.488 134.372 343.389 122.494 340.182 117.941C334.321 109.952 326.669 103.45 317.842 98.9584C308.699 94.198 298.992 90.6127 288.951 88.2876C284.757 87.3275 280.509 86.5595 276.232 86.0108C271.307 85.3428 267.843 80.8226 268.475 75.8887C268.775 73.5185 270.01 71.3668 271.905 69.9136C273.8 68.4604 276.197 67.8264 278.562 68.1531C283.441 68.7841 288.293 69.6893 293.008 70.7591C304.54 73.4165 315.686 77.5371 326.175 83.0208C337.553 88.8199 347.397 97.2331 354.901 107.572C360.603 115.801 369.539 132.068 365.262 150.31C359.89 172.666 338.51 183.419 326.147 187.918C312.689 192.828 301.286 193.733 289.198 194.721H287.416C281.358 195.352 275.136 195.598 268.804 195.598Z" fill="url(#paint6_linear_8_236)"/>
<path d="M156.777 106.667C152.529 106.695 148.841 103.743 147.934 99.5901C147.027 95.4367 149.149 91.2149 153.021 89.4673C164.371 84.2802 176.112 79.9968 188.135 76.6569C199.731 73.4757 211.5 70.9662 223.385 69.1408C234.991 67.3378 246.725 66.4846 258.47 66.5897C264.544 66.6733 270.61 67.067 276.644 67.7692C281.574 68.3697 285.09 72.8458 284.511 77.7816C284.258 80.1668 283.053 82.3486 281.169 83.8312C279.284 85.3137 276.882 85.9713 274.506 85.6544C269.101 85.0159 263.666 84.6588 258.224 84.5846C247.477 84.4462 236.738 85.2355 226.126 86.9436C214.953 88.675 203.888 91.0471 192.986 94.0483C181.907 97.1073 171.09 101.052 160.642 105.844C159.428 106.395 158.109 106.676 156.777 106.667Z" fill="url(#paint7_linear_8_236)"/>
<path d="M226.646 298C223.192 297.946 219.772 297.306 216.532 296.106C212.125 294.235 209.947 289.242 211.572 284.736C213.197 280.229 218.058 277.778 222.645 279.154C224.278 279.845 226.066 280.091 227.825 279.867C228.757 279.675 230.566 279.264 233.828 270.403C237.117 261.104 235.719 193.596 200.935 150.858C197.794 147.003 198.371 141.329 202.224 138.185C206.076 135.041 211.746 135.619 214.887 139.474C255.4 189.399 255.455 263.189 250.795 276.466C247.424 285.984 242.737 295.146 231.608 297.505C229.976 297.844 228.313 298.009 226.646 298Z" fill="url(#paint8_linear_8_236)"/>
<path d="M171.88 268.346H166.919C152.846 268.171 138.92 265.467 125.803 260.364C113.836 255.778 102.925 248.806 93.732 239.872C84.9549 231.401 78.3129 220.965 74.3526 209.424C72.7555 204.712 75.2775 199.597 79.9855 197.999C84.6936 196.4 89.805 198.924 91.4021 203.636C94.4469 212.493 99.5588 220.496 106.314 226.98C113.821 234.161 122.696 239.758 132.409 243.439C143.52 247.787 155.319 250.109 167.248 250.296C178.006 250.867 188.786 249.662 199.154 246.73C203.907 245.283 208.933 247.967 210.378 252.724C211.824 257.481 209.143 262.51 204.389 263.957C193.84 267.071 182.877 268.551 171.88 268.346Z" fill="url(#paint9_linear_8_236)"/>
<path d="M207.843 154.205C205.132 154.21 202.564 152.99 200.853 150.886C161.162 102.086 116.483 89.9611 89.9493 99.5072C85.8277 100.598 82.5311 103.691 81.1779 107.737C80.4542 112.367 82.0773 117.055 85.5088 120.245C88.9906 123.805 88.9293 129.516 85.3717 133.001C81.8141 136.485 76.1076 136.424 72.6257 132.864C64.8726 125.327 61.4848 114.36 63.635 103.759C65.9101 93.9935 73.0643 86.4774 83.8641 82.5821C114.016 71.6097 166.425 80.0585 214.805 139.502C217.936 143.36 217.36 149.027 213.517 152.175C211.918 153.491 209.912 154.208 207.843 154.205Z" fill="url(#paint10_linear_8_236)"/>
<path d="M293.446 165.671C290.687 165.627 287.936 165.352 285.223 164.848C281.562 177.875 275.613 190.146 267.653 201.085C266.008 203.362 261.924 208.327 261.952 208.327C261.979 208.327 261.431 208.82 261.211 209.095C265.58 213.546 268.92 218.902 270.997 224.785C272.532 223.167 274.232 221.686 275.684 219.985C275.684 219.985 280.317 214.334 282.181 211.756C291.439 199.023 298.346 184.734 302.574 169.566C303.013 168.003 303.314 166.302 303.725 164.684C300.344 165.377 296.898 165.708 293.446 165.671Z" fill="url(#paint11_linear_8_236)"/>
<path d="M21.262 425.611C17.2273 425.611 14.1673 424.591 12.082 422.551C9.99664 420.511 8.95397 417.814 8.95397 414.459V389.367C8.95397 385.967 9.97397 383.247 12.014 381.207C14.0993 379.167 17.1593 378.147 21.194 378.147C25.274 378.147 28.3566 379.19 30.442 381.275C32.5273 383.315 33.57 386.013 33.57 389.367V414.459C33.57 418.494 32.1646 421.486 29.354 423.435L36.902 431.527H29.082L23.506 425.475C22.5993 425.566 21.8513 425.611 21.262 425.611ZM15.346 389.571V414.187C15.346 417.95 17.318 419.831 21.262 419.831C25.206 419.831 27.178 417.95 27.178 414.187V389.571C27.178 385.854 25.206 383.995 21.262 383.995C17.318 383.995 15.346 385.854 15.346 389.571ZM51.9178 419.287C53.8218 419.287 55.6804 418.721 57.4938 417.587V385.831H63.9538V424.931H57.8338V423.095C55.4764 424.41 52.8698 425.067 50.0138 425.067C47.1578 425.067 44.9364 424.251 43.3498 422.619C41.7631 420.987 40.9698 418.63 40.9698 415.547V385.831H47.4298V414.663C47.4298 417.746 48.9258 419.287 51.9178 419.287ZM76.3335 413.711V415.751C76.3335 417.247 76.6735 418.358 77.3535 419.083C78.0788 419.809 79.4615 420.171 81.5015 420.171C83.5868 420.171 85.4908 419.469 87.2135 418.063V406.707L80.7535 408.475C78.9855 408.974 77.8068 409.609 77.2175 410.379C76.6281 411.105 76.3335 412.215 76.3335 413.711ZM71.9135 386.783C74.4975 385.922 77.7841 385.491 81.7735 385.491C89.5255 385.491 93.4015 389.005 93.4015 396.031V424.931H87.2815V422.143C85.2868 424.138 82.6575 425.135 79.3935 425.135C73.1375 425.135 70.0095 421.985 70.0095 415.683V413.439C70.0095 410.901 70.6668 408.861 71.9815 407.319C73.2961 405.733 75.4041 404.531 78.3055 403.715L87.2135 401.267V396.031C87.2135 394.354 86.7601 393.153 85.8535 392.427C84.9468 391.657 83.0201 391.271 80.0735 391.271C77.1721 391.271 74.4521 391.725 71.9135 392.631V386.783ZM107.594 387.599C110.495 386.33 113.192 385.695 115.686 385.695C118.224 385.695 120.287 386.466 121.874 388.007C123.506 389.503 124.322 391.679 124.322 394.535V424.931H117.794V395.623C117.794 392.949 116.456 391.611 113.782 391.611C111.832 391.611 109.86 392.11 107.866 393.107V424.931H101.474V385.831H107.594V387.599ZM139.015 378.827V385.831H146.903V391.339H139.015V415.615C139.015 418.245 140.375 419.559 143.095 419.559C144.41 419.559 145.883 419.287 147.515 418.743V424.523C147.47 424.523 147.243 424.569 146.835 424.659C146.472 424.75 146.087 424.841 145.679 424.931C144.455 425.203 143.276 425.339 142.143 425.339C135.796 425.339 132.623 422.257 132.623 416.091V391.339H128.543V385.831H132.827L134.731 378.827H139.015ZM163.347 419.287C165.251 419.287 167.11 418.721 168.923 417.587V385.831H175.383V424.931H169.263V423.095C166.906 424.41 164.299 425.067 161.443 425.067C158.587 425.067 156.366 424.251 154.779 422.619C153.193 420.987 152.399 418.63 152.399 415.547V385.831H158.859V414.663C158.859 417.746 160.355 419.287 163.347 419.287ZM204.491 388.347C207.574 386.579 210.611 385.695 213.603 385.695C216.64 385.695 218.952 386.443 220.539 387.939C222.171 389.435 222.987 391.634 222.987 394.535V424.931H216.527V395.623C216.527 392.949 215.167 391.611 212.447 391.611C210.271 391.611 208.208 392.223 206.259 393.447C206.486 393.946 206.599 394.649 206.599 395.555V424.931H200.071V395.623C200.071 392.949 198.734 391.611 196.059 391.611C194.11 391.611 192.138 392.11 190.143 393.107V424.931H183.751V385.831H189.871V387.599C192.772 386.33 195.538 385.695 198.167 385.695C200.796 385.695 202.904 386.579 204.491 388.347ZM241.467 388.619C241.467 385.401 242.51 382.907 244.595 381.139C246.726 379.371 249.741 378.487 253.639 378.487C257.538 378.487 260.711 378.895 263.159 379.711V385.831C260.711 384.879 257.742 384.403 254.251 384.403C250.035 384.403 247.927 385.967 247.927 389.095V391.747C247.927 393.198 248.199 394.354 248.743 395.215C249.333 396.031 250.353 396.847 251.803 397.663L259.691 402.083C263.363 404.078 265.199 407.093 265.199 411.127V414.935C265.199 418.245 264.043 420.806 261.731 422.619C259.419 424.387 256.155 425.271 251.939 425.271C247.769 425.271 244.414 424.795 241.875 423.843V417.723C244.867 418.811 248.018 419.355 251.327 419.355C256.269 419.355 258.739 417.678 258.739 414.323V412.011C258.739 410.651 258.49 409.609 257.991 408.883C257.493 408.113 256.563 407.365 255.203 406.639L247.519 402.423C243.485 400.247 241.467 397.006 241.467 392.699V388.619ZM270.661 395.827C270.661 388.937 274.65 385.491 282.629 385.491C285.485 385.491 288.024 385.809 290.245 386.443V392.359C287.978 391.725 285.666 391.407 283.309 391.407C280.997 391.407 279.365 391.793 278.413 392.563C277.506 393.334 277.053 394.558 277.053 396.235V414.595C277.053 416.273 277.506 417.497 278.413 418.267C279.365 419.038 281.042 419.423 283.445 419.423C285.848 419.423 288.137 419.061 290.313 418.335V424.319C287.684 424.954 285.122 425.271 282.629 425.271C274.65 425.271 270.661 421.826 270.661 414.935V395.827ZM303.578 378.691C303.578 381.185 302.331 382.431 299.838 382.431C297.344 382.431 296.098 381.185 296.098 378.691C296.098 376.153 297.344 374.883 299.838 374.883C302.331 374.883 303.578 376.153 303.578 378.691ZM296.642 386.307H303.034V424.931H296.642V386.307ZM310.77 414.595V395.827C310.77 392.563 311.722 389.979 313.626 388.075C315.53 386.126 318.432 385.151 322.33 385.151C326.229 385.151 329.108 386.126 330.966 388.075C332.825 389.979 333.754 392.563 333.754 395.827V408.271H317.026V414.255C317.026 416.069 317.57 417.406 318.658 418.267C319.792 419.129 321.741 419.559 324.506 419.559C327.317 419.559 330.037 419.151 332.666 418.335V424.183C329.946 424.909 327.045 425.271 323.962 425.271C315.168 425.271 310.77 421.713 310.77 414.595ZM317.026 403.103H327.702V395.895C327.702 392.359 325.912 390.591 322.33 390.591C318.794 390.591 317.026 392.359 317.026 395.895V403.103ZM347.121 387.599C350.022 386.33 352.72 385.695 355.213 385.695C357.752 385.695 359.814 386.466 361.401 388.007C363.033 389.503 363.849 391.679 363.849 394.535V424.931H357.321V395.623C357.321 392.949 355.984 391.611 353.309 391.611C351.36 391.611 349.388 392.11 347.393 393.107V424.931H341.001V385.831H347.121V387.599ZM371.266 395.827C371.266 388.937 375.256 385.491 383.234 385.491C386.09 385.491 388.629 385.809 390.85 386.443V392.359C388.584 391.725 386.272 391.407 383.914 391.407C381.602 391.407 379.97 391.793 379.018 392.563C378.112 393.334 377.658 394.558 377.658 396.235V414.595C377.658 416.273 378.112 417.497 379.018 418.267C379.97 419.038 381.648 419.423 384.05 419.423C386.453 419.423 388.742 419.061 390.918 418.335V424.319C388.289 424.954 385.728 425.271 383.234 425.271C375.256 425.271 371.266 421.826 371.266 414.935V395.827ZM396.567 414.595V395.827C396.567 392.563 397.519 389.979 399.423 388.075C401.327 386.126 404.229 385.151 408.127 385.151C412.026 385.151 414.905 386.126 416.763 388.075C418.622 389.979 419.551 392.563 419.551 395.827V408.271H402.823V414.255C402.823 416.069 403.367 417.406 404.455 418.267C405.589 419.129 407.538 419.559 410.303 419.559C413.114 419.559 415.834 419.151 418.463 418.335V424.183C415.743 424.909 412.842 425.271 409.759 425.271C400.965 425.271 396.567 421.713 396.567 414.595ZM402.823 403.103H413.499V395.895C413.499 392.359 411.709 390.591 408.127 390.591C404.591 390.591 402.823 392.359 402.823 395.895V403.103ZM32.8706 480.711V482.751C32.8706 484.247 33.2106 485.358 33.8906 486.083C34.6159 486.809 35.9986 487.171 38.0386 487.171C40.1239 487.171 42.0279 486.469 43.7506 485.063V473.707L37.2906 475.475C35.5226 475.974 34.3439 476.609 33.7546 477.379C33.1652 478.105 32.8706 479.215 32.8706 480.711ZM28.4506 453.783C31.0346 452.922 34.3212 452.491 38.3106 452.491C46.0626 452.491 49.9386 456.005 49.9386 463.031V491.931H43.8186V489.143C41.8239 491.138 39.1946 492.135 35.9306 492.135C29.6746 492.135 26.5466 488.985 26.5466 482.683V480.439C26.5466 477.901 27.2039 475.861 28.5186 474.319C29.8332 472.733 31.9412 471.531 34.8426 470.715L43.7506 468.267V463.031C43.7506 461.354 43.2972 460.153 42.3906 459.427C41.4839 458.657 39.5572 458.271 36.6106 458.271C33.7092 458.271 30.9892 458.725 28.4506 459.631V453.783ZM64.1309 454.599C67.0323 453.33 69.7296 452.695 72.2229 452.695C74.7616 452.695 76.8243 453.466 78.4109 455.007C80.0429 456.503 80.8589 458.679 80.8589 461.535V491.931H74.3309V462.623C74.3309 459.949 72.9936 458.611 70.3189 458.611C68.3696 458.611 66.3976 459.11 64.4029 460.107V491.931H58.0109V452.831H64.1309V454.599ZM104.8 458.611H100.176C96.5042 458.611 94.6682 460.334 94.6682 463.779V481.799C94.6682 484.837 96.1642 486.355 99.1562 486.355C101.559 486.355 103.44 485.721 104.8 484.451V458.611ZM104.8 442.427H111.26V491.931H104.936V489.483C103.078 491.251 100.63 492.135 97.5922 492.135C94.5549 492.135 92.2429 491.319 90.6562 489.687C89.0696 488.01 88.2762 485.63 88.2762 482.547V463.575C88.2762 460.221 89.2509 457.591 91.2002 455.687C93.1496 453.783 95.8696 452.831 99.3602 452.831H104.8V442.427ZM152.784 445.827V451.471H144.012V491.931H137.552V451.471H128.78V445.827H152.784ZM156.807 481.595V462.827C156.807 459.563 157.759 456.979 159.663 455.075C161.567 453.126 164.469 452.151 168.367 452.151C172.266 452.151 175.145 453.126 177.003 455.075C178.862 456.979 179.791 459.563 179.791 462.827V475.271H163.063V481.255C163.063 483.069 163.607 484.406 164.695 485.267C165.829 486.129 167.778 486.559 170.543 486.559C173.354 486.559 176.074 486.151 178.703 485.335V491.183C175.983 491.909 173.082 492.271 169.999 492.271C161.205 492.271 156.807 488.713 156.807 481.595ZM163.063 470.103H173.739V462.895C173.739 459.359 171.949 457.591 168.367 457.591C164.831 457.591 163.063 459.359 163.063 462.895V470.103ZM186.358 462.827C186.358 455.937 190.348 452.491 198.326 452.491C201.182 452.491 203.721 452.809 205.942 453.443V459.359C203.676 458.725 201.364 458.407 199.006 458.407C196.694 458.407 195.062 458.793 194.11 459.563C193.204 460.334 192.75 461.558 192.75 463.235V481.595C192.75 483.273 193.204 484.497 194.11 485.267C195.062 486.038 196.74 486.423 199.142 486.423C201.545 486.423 203.834 486.061 206.01 485.335V491.319C203.381 491.954 200.82 492.271 198.326 492.271C190.348 492.271 186.358 488.826 186.358 481.935V462.827ZM212.339 442.427H218.731V454.123C221.043 453.126 223.514 452.627 226.143 452.627C228.818 452.627 230.994 453.375 232.671 454.871C234.348 456.367 235.187 458.589 235.187 461.535V491.931H228.659V462.623C228.659 459.949 227.322 458.611 224.647 458.611C222.607 458.611 220.635 459.087 218.731 460.039V491.931H212.339V442.427ZM249.404 454.599C252.306 453.33 255.003 452.695 257.496 452.695C260.035 452.695 262.098 453.466 263.684 455.007C265.316 456.503 266.132 458.679 266.132 461.535V491.931H259.604V462.623C259.604 459.949 258.267 458.611 255.592 458.611C253.643 458.611 251.671 459.11 249.676 460.107V491.931H243.284V452.831H249.404V454.599ZM290.346 462.963C290.346 459.473 288.6 457.727 285.11 457.727C281.619 457.727 279.874 459.473 279.874 462.963V481.799C279.874 485.29 281.619 487.035 285.11 487.035C288.6 487.035 290.346 485.29 290.346 481.799V462.963ZM273.55 462.827C273.55 459.563 274.502 456.979 276.406 455.075C278.31 453.126 281.211 452.151 285.11 452.151C289.008 452.151 291.91 453.126 293.814 455.075C295.763 456.979 296.738 459.563 296.738 462.827V481.935C296.738 485.199 295.763 487.806 293.814 489.755C291.91 491.659 289.008 492.611 285.11 492.611C281.211 492.611 278.31 491.659 276.406 489.755C274.502 487.806 273.55 485.199 273.55 481.935V462.827ZM304.445 442.427H310.837V491.931H304.445V442.427ZM335.369 462.963C335.369 459.473 333.624 457.727 330.133 457.727C326.642 457.727 324.897 459.473 324.897 462.963V481.799C324.897 485.29 326.642 487.035 330.133 487.035C333.624 487.035 335.369 485.29 335.369 481.799V462.963ZM318.573 462.827C318.573 459.563 319.525 456.979 321.429 455.075C323.333 453.126 326.234 452.151 330.133 452.151C334.032 452.151 336.933 453.126 338.837 455.075C340.786 456.979 341.761 459.563 341.761 462.827V481.935C341.761 485.199 340.786 487.806 338.837 489.755C336.933 491.659 334.032 492.611 330.133 492.611C326.234 492.611 323.333 491.659 321.429 489.755C319.525 487.806 318.573 485.199 318.573 481.935V462.827ZM374.696 455.347H372.384C371.341 455.347 370.457 455.551 369.732 455.959C371.001 457.546 371.636 459.654 371.636 462.283V467.859C371.636 471.033 370.661 473.503 368.712 475.271C366.808 477.039 363.907 477.946 360.008 477.991C357.877 477.991 356.812 478.989 356.812 480.983C356.812 481.935 357.084 482.615 357.628 483.023C358.217 483.431 359.237 483.635 360.688 483.635H364.632C371.069 483.635 374.288 486.333 374.288 491.727V492.883C374.288 499.003 369.959 502.063 361.3 502.063H358.648C353.707 502.063 349.967 501.27 347.428 499.683V493.699C350.42 495.649 354.115 496.623 358.512 496.623H360.688C363.408 496.623 365.335 496.306 366.468 495.671C367.601 495.037 368.168 494.085 368.168 492.815V492.203C368.168 491.115 367.873 490.322 367.284 489.823C366.74 489.279 365.652 489.007 364.02 489.007H359.872C354.024 489.007 351.1 487.035 351.1 483.091V482.003C351.1 479.465 352.301 477.923 354.704 477.379C350.125 476.065 347.836 472.891 347.836 467.859V462.283C347.836 459.065 348.811 456.571 350.76 454.803C352.755 453.035 355.52 452.151 359.056 452.151C362.592 452.151 365.312 452.695 367.216 453.783C368.168 450.882 370.321 449.431 373.676 449.431H374.696V455.347ZM365.244 467.791V462.351C365.244 460.674 364.813 459.45 363.952 458.679C363.091 457.863 361.685 457.455 359.736 457.455C357.787 457.455 356.381 457.863 355.52 458.679C354.659 459.45 354.228 460.674 354.228 462.351V467.791C354.228 469.469 354.659 470.715 355.52 471.531C356.381 472.302 357.787 472.687 359.736 472.687C361.685 472.687 363.091 472.302 363.952 471.531C364.813 470.715 365.244 469.469 365.244 467.791ZM395.995 452.831H402.319L392.051 502.063H385.863L387.903 491.931H385.183L376.887 452.831H383.279C386.769 469.922 388.877 481.369 389.603 487.171C390.328 481.777 391.28 476.11 392.459 470.171L395.995 452.831Z" fill="#231F20"/>
<path d="M1.53 334.369H6.698V357.931H1.53V334.369ZM26.2204 334.369H31.2524V357.931H26.3564C23.0017 349.363 21.0637 344.195 20.5424 342.427C21.0184 344.218 21.2564 347.301 21.2564 351.675V357.931H16.2244V334.369H21.2564L24.3504 342.257C25.665 345.635 26.549 348.196 27.0024 349.941C26.481 347.743 26.2204 344.524 26.2204 340.285V334.369ZM53.0881 334.369V338.789H48.8381V357.931H43.6701V338.789H39.4201V334.369H53.0881ZM61.2518 334.369H73.1858V338.789H66.3518V343.787H72.2678V348.207H66.3518V353.511H73.1858V357.931H61.2518V334.369ZM87.1223 349.431V357.931H82.0223V334.369H89.7063C91.565 334.369 93.0157 334.811 94.0583 335.695C95.101 336.579 95.6223 337.871 95.6223 339.571V343.923C95.6223 346.643 94.693 348.343 92.8343 349.023L96.5403 357.931H90.9303L87.7683 349.431H87.1223ZM87.1223 338.721V345.385H89.1283C89.6497 345.385 90.0123 345.272 90.2163 345.045C90.4203 344.819 90.5223 344.422 90.5223 343.855V340.013C90.5223 339.515 90.409 339.175 90.1823 338.993C89.9557 338.812 89.6043 338.721 89.1283 338.721H87.1223ZM114.881 334.369H119.913V357.931H115.017C111.662 349.363 109.724 344.195 109.203 342.427C109.679 344.218 109.917 347.301 109.917 351.675V357.931H104.885V334.369H109.917L113.011 342.257C114.325 345.635 115.209 348.196 115.663 349.941C115.141 347.743 114.881 344.524 114.881 340.285V334.369ZM139.504 357.931L138.518 352.491H133.86L132.942 357.931H128.08L132.704 334.369H139.81L144.366 357.931H139.504ZM134.574 348.173H137.77L136.138 339.061L134.574 348.173ZM164.843 334.369V338.789H160.593V357.931H155.425V338.789H151.175V334.369H164.843ZM173.007 334.369H178.175V357.931H173.007V334.369ZM196.507 340.387C196.507 339.254 195.827 338.687 194.467 338.687C193.13 338.687 192.461 339.254 192.461 340.387V351.913C192.461 353.047 193.13 353.613 194.467 353.613C195.827 353.613 196.507 353.047 196.507 351.913V340.387ZM187.361 340.115C187.361 338.257 187.962 336.783 189.163 335.695C190.365 334.585 192.133 334.029 194.467 334.029C196.802 334.029 198.57 334.585 199.771 335.695C200.995 336.783 201.607 338.257 201.607 340.115V352.185C201.607 354.044 200.995 355.529 199.771 356.639C198.57 357.727 196.802 358.271 194.467 358.271C192.133 358.271 190.365 357.727 189.163 356.639C187.962 355.529 187.361 354.044 187.361 352.185V340.115ZM220.792 334.369H225.824V357.931H220.928C217.573 349.363 215.635 344.195 215.114 342.427C215.59 344.218 215.828 347.301 215.828 351.675V357.931H210.796V334.369H215.828L218.922 342.257C220.237 345.635 221.121 348.196 221.574 349.941C221.053 347.743 220.792 344.524 220.792 340.285V334.369ZM245.416 357.931L244.43 352.491H239.772L238.854 357.931H233.992L238.616 334.369H245.722L250.278 357.931H245.416ZM240.486 348.173H243.682L242.05 339.061L240.486 348.173ZM258.446 334.369H263.614V353.647H269.904V357.931H258.446V334.369ZM300.072 357.931H294.904V350.621L289.294 334.369H294.53L295.652 337.939C296.536 340.727 297.17 343.198 297.556 345.351C297.986 343.153 298.632 340.659 299.494 337.871L300.582 334.369H305.682L300.072 350.621V357.931ZM313.686 334.369H325.62V338.789H318.786V343.787H324.702V348.207H318.786V353.511H325.62V357.931H313.686V334.369ZM344.52 357.931L343.534 352.491H338.876L337.958 357.931H333.096L337.72 334.369H344.826L349.382 357.931H344.52ZM339.59 348.173H342.786L341.154 339.061L339.59 348.173ZM362.651 349.431V357.931H357.551V334.369H365.235C367.094 334.369 368.545 334.811 369.587 335.695C370.63 336.579 371.151 337.871 371.151 339.571V343.923C371.151 346.643 370.222 348.343 368.363 349.023L372.069 357.931H366.459L363.297 349.431H362.651ZM362.651 338.721V345.385H364.657C365.179 345.385 365.541 345.272 365.745 345.045C365.949 344.819 366.051 344.422 366.051 343.855V340.013C366.051 339.515 365.938 339.175 365.711 338.993C365.485 338.812 365.133 338.721 364.657 338.721H362.651ZM401.988 340.387C401.988 339.254 401.308 338.687 399.948 338.687C398.611 338.687 397.942 339.254 397.942 340.387V351.913C397.942 353.047 398.611 353.613 399.948 353.613C401.308 353.613 401.988 353.047 401.988 351.913V340.387ZM392.842 340.115C392.842 338.257 393.443 336.783 394.644 335.695C395.845 334.585 397.613 334.029 399.948 334.029C402.283 334.029 404.051 334.585 405.252 335.695C406.476 336.783 407.088 338.257 407.088 340.115V352.185C407.088 354.044 406.476 355.529 405.252 356.639C404.051 357.727 402.283 358.271 399.948 358.271C397.613 358.271 395.845 357.727 394.644 356.639C393.443 355.529 392.842 354.044 392.842 352.185V340.115ZM416.277 334.369H427.939V338.823H421.445V344.637H427.429V349.193H421.445V357.931H416.277V334.369Z" fill="#231F20"/>
<defs>
<linearGradient id="paint0_linear_8_236" x1="250.222" y1="266.215" x2="249.892" y2="138.479" gradientUnits="userSpaceOnUse">
<stop stop-color="#FDB714"/>
<stop offset="0.24" stop-color="#D2A029"/>
<stop offset="0.56" stop-color="#FDB714"/>
<stop offset="0.88" stop-color="#CF8D2A"/>
</linearGradient>
<linearGradient id="paint1_linear_8_236" x1="286.121" y1="157.127" x2="285.742" y2="8.66536" gradientUnits="userSpaceOnUse">
<stop stop-color="#CF8D2A"/>
<stop offset="0.43" stop-color="#D2A029"/>
<stop offset="0.49" stop-color="#CBA02F"/>
<stop offset="0.57" stop-color="#B6A241"/>
<stop offset="0.68" stop-color="#94A45D"/>
<stop offset="0.79" stop-color="#65A784"/>
<stop offset="0.92" stop-color="#2AAAB6"/>
<stop offset="1" stop-color="#00ADD9"/>
</linearGradient>
<linearGradient id="paint2_linear_8_236" x1="173.182" y1="190.04" x2="211.183" y2="203.923" gradientUnits="userSpaceOnUse">
<stop offset="0.01" stop-color="#48773D"/>
<stop offset="0.08" stop-color="#447541"/>
<stop offset="0.16" stop-color="#39704E"/>
<stop offset="0.24" stop-color="#266762"/>
<stop offset="0.31" stop-color="#0C5A7F"/>
<stop offset="0.34" stop-color="#02558A"/>
<stop offset="0.58" stop-color="#193669"/>
<stop offset="0.81" stop-color="#02558A"/>
<stop offset="1" stop-color="#193669"/>
</linearGradient>
<linearGradient id="paint3_linear_8_236" x1="70.8715" y1="155.952" x2="263.827" y2="157.88" gradientUnits="userSpaceOnUse">
<stop offset="0.11" stop-color="#CF8D2A"/>
<stop offset="0.23" stop-color="#FDB714"/>
<stop offset="0.58" stop-color="#F36D25"/>
<stop offset="0.88" stop-color="#8E1937"/>
</linearGradient>
<linearGradient id="paint4_linear_8_236" x1="149.353" y1="126.765" x2="266.862" y2="12.902" gradientUnits="userSpaceOnUse">
<stop offset="0.1" stop-color="#48773D"/>
<stop offset="0.26" stop-color="#269B48"/>
<stop offset="1" stop-color="#00ADD9"/>
</linearGradient>
<linearGradient id="paint5_linear_8_236" x1="92.067" y1="153.287" x2="138.522" y2="153.751" gradientUnits="userSpaceOnUse">
<stop stop-color="#017DBC"/>
<stop offset="0.47" stop-color="#02558A"/>
</linearGradient>
<linearGradient id="paint6_linear_8_236" x1="246.232" y1="183.233" x2="345.194" y2="100.43" gradientUnits="userSpaceOnUse">
<stop stop-color="#8E1937"/>
<stop offset="0.42" stop-color="#EB1C2D"/>
<stop offset="1" stop-color="#E01284"/>
</linearGradient>
<linearGradient id="paint7_linear_8_236" x1="148.215" y1="86.6212" x2="285.366" y2="87.9916" gradientUnits="userSpaceOnUse">
<stop stop-color="#017DBC"/>
<stop offset="0.53" stop-color="#F36D25"/>
<stop offset="0.99" stop-color="#E01284"/>
</linearGradient>
<linearGradient id="paint8_linear_8_236" x1="221.501" y1="279.571" x2="274.663" y2="187.435" gradientUnits="userSpaceOnUse">
<stop stop-color="#193669"/>
<stop offset="0.12" stop-color="#02558A"/>
<stop offset="0.26" stop-color="#017DBC"/>
<stop offset="0.53" stop-color="#3DB049"/>
<stop offset="0.54" stop-color="#3BAE49"/>
<stop offset="0.68" stop-color="#2BA048"/>
<stop offset="0.8" stop-color="#269B48"/>
<stop offset="1" stop-color="#269B48"/>
</linearGradient>
<linearGradient id="paint9_linear_8_236" x1="74.8433" y1="232.91" x2="211.613" y2="234.277" gradientUnits="userSpaceOnUse">
<stop stop-color="#017DBC"/>
<stop offset="0.53" stop-color="#EB1C2D"/>
<stop offset="0.86" stop-color="#D2A029"/>
<stop offset="1" stop-color="#EFAD14"/>
</linearGradient>
<linearGradient id="paint10_linear_8_236" x1="63.4426" y1="116.223" x2="217.342" y2="117.761" gradientUnits="userSpaceOnUse">
<stop stop-color="#CF8D2A"/>
<stop offset="0.47" stop-color="#D2A029"/>
<stop offset="0.77" stop-color="#48773D"/>
<stop offset="1" stop-color="#269B48"/>
</linearGradient>
<linearGradient id="paint11_linear_8_236" x1="281.486" y1="273.832" x2="282.475" y2="142.139" gradientUnits="userSpaceOnUse">
<stop stop-color="#FDB714"/>
<stop offset="0.24" stop-color="#D2A029"/>
<stop offset="0.56" stop-color="#FDB714"/>
<stop offset="0.88" stop-color="#CF8D2A"/>
</linearGradient>
</defs>
</svg>
