<svg width="526" height="506" viewBox="0 0 526 506" fill="none" xmlns="http://www.w3.org/2000/svg">
<path d="M247.894 264.725C243.342 264.707 239.522 261.288 238.998 256.764C238.474 252.239 241.411 248.037 245.838 246.977C248.332 246.374 250.827 245.715 253.266 244.975C265.589 241.222 277.251 235.567 287.831 228.214C295.945 222.531 303.312 215.849 309.76 208.327C309.76 208.327 313.816 203.389 315.461 201.112C323.463 190.1 329.432 177.744 333.086 164.629C334.813 158.539 336.293 152.202 337.554 145.784C338.547 140.931 343.242 137.77 348.107 138.679C350.449 139.136 352.512 140.506 353.844 142.487C355.175 144.468 355.665 146.897 355.207 149.24C353.864 156.125 352.246 162.955 350.41 169.484C346.17 184.656 339.265 198.952 330.016 211.701C328.152 214.252 323.547 219.93 323.547 219.93C316.042 228.671 307.458 236.423 298.001 243C285.863 251.435 272.48 257.915 258.337 262.201C255.505 263.061 252.654 263.829 249.785 264.506C249.164 264.648 248.53 264.721 247.894 264.725Z" fill="url(#paint0_linear_1_184)"/>
<path d="M346.545 156.536C346.002 156.536 345.46 156.48 344.927 156.372C342.578 155.945 340.495 154.6 339.137 152.635C337.78 150.669 337.26 148.243 337.691 145.893C339.062 138.432 340.734 127.405 341.391 119.587L341.748 114.676C342.706 101.448 342.191 88.1533 340.213 75.0384C338.581 62.5277 334.361 50.4948 327.823 39.707C323.921 33.5612 318.684 28.3759 312.501 24.5376C309.585 22.9668 307.768 19.919 307.771 16.6051C307.775 13.2911 309.599 10.2475 312.518 8.68316C315.438 7.11886 318.98 7.28717 321.738 9.12125C330.293 14.3814 337.532 21.5315 342.899 30.0238C350.807 42.9218 355.942 57.3278 357.975 72.3227C360.156 86.7807 360.735 101.435 359.702 116.021L359.318 121.205C358.605 129.654 356.824 141.394 355.398 149.267C354.561 153.495 350.852 156.54 346.545 156.536Z" fill="url(#paint1_linear_1_184)"/>
<path d="M265.327 295.722C264.042 295.729 262.77 295.457 261.599 294.927C259.375 293.901 257.231 292.709 255.185 291.361C246.719 285.511 239.304 278.267 233.256 269.937C225.975 260.471 219.553 250.373 214.069 239.763C200.892 213.898 194.132 185.239 194.361 156.207C194.368 149.207 194.743 142.211 195.484 135.25C195.703 131.962 197.699 129.056 200.689 127.676C203.679 126.296 207.184 126.662 209.825 128.63C212.466 130.598 213.821 133.853 213.356 137.115C212.698 143.507 212.369 149.953 212.342 156.317C212.294 170.186 213.97 184.008 217.331 197.464C220.365 209.24 224.705 220.639 230.269 231.451C235.238 241.152 241.054 250.396 247.647 259.074C252.45 265.748 258.343 271.563 265.08 276.274C266.369 277.14 267.726 277.902 269.137 278.55C272.97 280.314 275.062 284.509 274.167 288.635C273.271 292.761 269.628 295.709 265.409 295.722H265.327Z" fill="url(#paint2_linear_1_184)"/>
<path d="M302.139 195.16H301.536C285.651 193.824 269.855 191.58 254.225 188.439L248.908 187.259C236.737 184.516 223.827 180.923 210.533 176.671C195.923 172.062 182.108 166.933 169.417 161.501C158.642 156.938 148.185 151.66 138.114 145.701L136.853 144.906C130.898 141.643 125.442 137.541 120.653 132.726C117.946 130.508 116.77 126.92 117.64 123.528C118.509 120.137 121.266 117.558 124.706 116.918C128.146 116.279 131.644 117.694 133.673 120.547C137.343 124.085 141.474 127.111 145.953 129.544L147.269 130.34C156.618 135.872 166.335 140.757 176.352 144.96C188.412 150.145 201.652 155.055 215.713 159.499C228.624 163.586 241.233 167.015 252.745 169.676L257.844 170.801C272.723 173.78 287.759 175.914 302.879 177.192C307.701 177.569 311.361 181.696 311.162 186.533C310.963 191.369 306.976 195.181 302.139 195.16Z" fill="url(#paint3_linear_1_184)"/>
<path d="M204.53 144.33H203.543C201.145 144.069 198.951 142.857 197.452 140.965C195.953 139.073 195.274 136.659 195.567 134.262C196.76 123.708 198.646 113.243 201.213 102.936C205.352 85.6529 211.884 69.0334 220.62 53.5598C227.683 41.0096 236.811 29.7418 247.62 20.2309C256.533 12.3555 267.057 6.52312 278.457 3.14129C288.46 0.148741 299.126 0.196477 309.102 3.27845C312.959 4.5111 316.687 6.11893 320.231 8.07891C323.031 9.66164 324.776 12.6195 324.807 15.8382C324.837 19.0569 323.15 22.0475 320.38 23.6835C317.61 25.3195 314.178 25.3523 311.377 23.7695C308.867 22.3577 306.222 21.1998 303.483 20.3132C296.898 18.3083 289.866 18.3083 283.281 20.3132C274.415 23.0287 266.243 27.6329 259.324 33.8094C250.044 41.9719 242.22 51.6564 236.189 62.4475C228.302 76.4548 222.407 91.4949 218.674 107.133C216.273 116.676 214.533 126.373 213.466 136.155C213.029 140.773 209.165 144.308 204.53 144.33Z" fill="url(#paint4_linear_1_184)"/>
<path d="M130.685 215.02C126.809 215.024 123.37 212.533 122.161 208.848C118.344 197.179 117.524 184.736 119.776 172.666C122.348 159.731 127.988 147.604 136.222 137.307C144.638 126.662 154.576 117.318 165.716 109.574C174.778 103.161 184.339 97.4825 194.306 92.5945C197.185 91.1686 200.605 91.3881 203.279 93.1704C205.952 94.9527 207.473 98.0269 207.267 101.235C207.061 104.443 205.161 107.298 202.282 108.724C193.165 113.193 184.421 118.385 176.132 124.25C166.483 130.937 157.851 138.984 150.503 148.143C144.007 156.158 139.54 165.625 137.483 175.738C135.741 184.884 136.344 194.321 139.237 203.17C140.788 207.889 138.223 212.972 133.509 214.526C132.599 214.838 131.646 215.004 130.685 215.02Z" fill="url(#paint5_linear_1_184)"/>
<path d="M316.804 195.598C311.788 195.598 306.717 195.598 301.591 195.16C296.687 194.779 292.999 190.526 293.313 185.614C293.693 180.693 297.898 176.958 302.825 177.165C313.242 177.826 323.694 177.744 334.1 176.918H335.882C347.203 176.013 356.961 175.217 368.144 171.13C377.053 167.893 392.458 160.349 395.747 146.222C398.488 134.372 391.389 122.494 388.182 117.941C382.321 109.952 374.669 103.45 365.842 98.9584C356.699 94.198 346.992 90.6127 336.951 88.2876C332.757 87.3275 328.509 86.5595 324.232 86.0108C319.307 85.3428 315.843 80.8226 316.475 75.8887C316.775 73.5185 318.01 71.3668 319.905 69.9136C321.8 68.4604 324.197 67.8264 326.562 68.1531C331.441 68.7841 336.293 69.6893 341.008 70.7591C352.54 73.4165 363.686 77.5371 374.175 83.0208C385.553 88.8199 395.397 97.2331 402.901 107.572C408.603 115.801 417.539 132.068 413.262 150.31C407.89 172.666 386.51 183.419 374.147 187.918C360.689 192.828 349.286 193.733 337.198 194.721H335.416C329.358 195.352 323.136 195.598 316.804 195.598Z" fill="url(#paint6_linear_1_184)"/>
<path d="M204.777 106.667C200.529 106.695 196.841 103.743 195.934 99.5901C195.027 95.4367 197.149 91.2149 201.021 89.4673C212.371 84.2802 224.112 79.9968 236.135 76.6569C247.731 73.4757 259.5 70.9662 271.385 69.1408C282.991 67.3378 294.725 66.4846 306.47 66.5897C312.544 66.6733 318.61 67.067 324.644 67.7692C329.574 68.3697 333.09 72.8458 332.511 77.7816C332.258 80.1668 331.053 82.3486 329.169 83.8312C327.284 85.3137 324.882 85.9713 322.506 85.6544C317.101 85.0159 311.666 84.6588 306.224 84.5846C295.477 84.4462 284.738 85.2355 274.126 86.9436C262.953 88.675 251.888 91.0471 240.986 94.0483C229.907 97.1073 219.09 101.052 208.642 105.844C207.428 106.395 206.109 106.676 204.777 106.667Z" fill="url(#paint7_linear_1_184)"/>
<path d="M274.646 298C271.192 297.946 267.772 297.306 264.532 296.106C260.125 294.235 257.947 289.242 259.572 284.736C261.197 280.229 266.058 277.778 270.645 279.154C272.278 279.845 274.066 280.091 275.825 279.867C276.757 279.675 278.566 279.264 281.828 270.403C285.117 261.104 283.719 193.596 248.935 150.858C245.794 147.003 246.371 141.329 250.224 138.185C254.076 135.041 259.746 135.619 262.887 139.474C303.4 189.399 303.455 263.189 298.795 276.466C295.424 285.984 290.737 295.146 279.608 297.505C277.976 297.844 276.313 298.009 274.646 298Z" fill="url(#paint8_linear_1_184)"/>
<path d="M219.88 268.346H214.919C200.846 268.171 186.92 265.467 173.803 260.364C161.836 255.778 150.925 248.806 141.732 239.872C132.955 231.401 126.313 220.965 122.353 209.424C120.756 204.712 123.277 199.597 127.986 197.999C132.694 196.4 137.805 198.924 139.402 203.636C142.447 212.493 147.559 220.496 154.314 226.98C161.821 234.161 170.696 239.758 180.409 243.439C191.52 247.787 203.319 250.109 215.248 250.296C226.006 250.867 236.786 249.662 247.154 246.73C251.907 245.283 256.933 247.967 258.378 252.724C259.824 257.481 257.143 262.51 252.389 263.957C241.84 267.071 230.877 268.551 219.88 268.346Z" fill="url(#paint9_linear_1_184)"/>
<path d="M255.843 154.205C253.132 154.21 250.564 152.99 248.853 150.886C209.162 102.086 164.483 89.9611 137.949 99.5072C133.828 100.598 130.531 103.691 129.178 107.737C128.454 112.367 130.077 117.055 133.509 120.245C136.991 123.805 136.929 129.516 133.372 133.001C129.814 136.485 124.108 136.424 120.626 132.864C112.873 125.327 109.485 114.36 111.635 103.759C113.91 93.9935 121.064 86.4774 131.864 82.5821C162.016 71.6097 214.425 80.0585 262.805 139.502C265.936 143.36 265.36 149.027 261.517 152.175C259.918 153.491 257.912 154.208 255.843 154.205Z" fill="url(#paint10_linear_1_184)"/>
<path d="M341.446 165.671C338.687 165.627 335.936 165.352 333.223 164.848C329.562 177.875 323.613 190.146 315.653 201.085C314.008 203.362 309.924 208.327 309.952 208.327C309.979 208.327 309.431 208.82 309.211 209.095C313.58 213.546 316.92 218.902 318.997 224.785C320.532 223.167 322.232 221.686 323.684 219.985C323.684 219.985 328.317 214.334 330.181 211.756C339.439 199.023 346.346 184.734 350.574 169.566C351.013 168.003 351.314 166.302 351.725 164.684C348.344 165.377 344.898 165.708 341.446 165.671Z" fill="url(#paint11_linear_1_184)"/>
<path d="M23.788 388.687C23.788 385.469 24.876 382.975 27.052 381.207C29.228 379.394 32.5146 378.487 36.912 378.487C39.8133 378.487 42.488 378.827 44.936 379.507V385.423C42.2613 384.653 39.632 384.267 37.048 384.267C34.464 384.267 32.6733 384.675 31.676 385.491C30.724 386.307 30.248 387.531 30.248 389.163V414.663C30.248 416.25 30.7466 417.451 31.744 418.267C32.7413 419.083 34.5773 419.491 37.252 419.491C39.9266 419.491 42.556 419.129 45.14 418.403V424.183C42.7826 424.909 40.0173 425.271 36.844 425.271C28.14 425.271 23.788 421.871 23.788 415.071V388.687ZM58.5641 378.691C58.5641 381.185 57.3174 382.431 54.8241 382.431C52.3308 382.431 51.0841 381.185 51.0841 378.691C51.0841 376.153 52.3308 374.883 54.8241 374.883C57.3174 374.883 58.5641 376.153 58.5641 378.691ZM51.6281 386.307H58.0201V424.931H51.6281V386.307ZM65.7567 414.595V395.827C65.7567 392.563 66.7087 389.979 68.6127 388.075C70.5167 386.126 73.418 385.151 77.3167 385.151C81.2154 385.151 84.094 386.126 85.9527 388.075C87.8114 389.979 88.7407 392.563 88.7407 395.827V408.271H72.0127V414.255C72.0127 416.069 72.5567 417.406 73.6447 418.267C74.778 419.129 76.7274 419.559 79.4927 419.559C82.3034 419.559 85.0234 419.151 87.6527 418.335V424.183C84.9327 424.909 82.0314 425.271 78.9487 425.271C70.154 425.271 65.7567 421.713 65.7567 414.595ZM72.0127 403.103H82.6887V395.895C82.6887 392.359 80.898 390.591 77.3167 390.591C73.7807 390.591 72.0127 392.359 72.0127 395.895V403.103ZM102.107 387.599C105.009 386.33 107.706 385.695 110.199 385.695C112.738 385.695 114.801 386.466 116.387 388.007C118.019 389.503 118.835 391.679 118.835 394.535V424.931H112.307V395.623C112.307 392.949 110.97 391.611 108.295 391.611C106.346 391.611 104.374 392.11 102.379 393.107V424.931H95.9875V385.831H102.107V387.599ZM126.253 395.827C126.253 388.937 130.242 385.491 138.221 385.491C141.077 385.491 143.615 385.809 145.837 386.443V392.359C143.57 391.725 141.258 391.407 138.901 391.407C136.589 391.407 134.957 391.793 134.005 392.563C133.098 393.334 132.645 394.558 132.645 396.235V414.595C132.645 416.273 133.098 417.497 134.005 418.267C134.957 419.038 136.634 419.423 139.037 419.423C141.439 419.423 143.729 419.061 145.905 418.335V424.319C143.275 424.954 140.714 425.271 138.221 425.271C130.242 425.271 126.253 421.826 126.253 414.935V395.827ZM159.17 378.691C159.17 381.185 157.923 382.431 155.43 382.431C152.936 382.431 151.69 381.185 151.69 378.691C151.69 376.153 152.936 374.883 155.43 374.883C157.923 374.883 159.17 376.153 159.17 378.691ZM152.234 386.307H158.626V424.931H152.234V386.307ZM171.054 413.711V415.751C171.054 417.247 171.394 418.358 172.074 419.083C172.8 419.809 174.182 420.171 176.222 420.171C178.308 420.171 180.212 419.469 181.934 418.063V406.707L175.474 408.475C173.706 408.974 172.528 409.609 171.938 410.379C171.349 411.105 171.054 412.215 171.054 413.711ZM166.634 386.783C169.218 385.922 172.505 385.491 176.494 385.491C184.246 385.491 188.122 389.005 188.122 396.031V424.931H182.002V422.143C180.008 424.138 177.378 425.135 174.114 425.135C167.858 425.135 164.73 421.985 164.73 415.683V413.439C164.73 410.901 165.388 408.861 166.702 407.319C168.017 405.733 170.125 404.531 173.026 403.715L181.934 401.267V396.031C181.934 394.354 181.481 393.153 180.574 392.427C179.668 391.657 177.741 391.271 174.794 391.271C171.893 391.271 169.173 391.725 166.634 392.631V386.783ZM224.991 385.831H231.315L221.047 435.063H214.859L216.899 424.931H214.179L205.883 385.831H212.275C215.766 402.922 217.874 414.369 218.599 420.171C219.324 414.777 220.276 409.11 221.455 403.171L224.991 385.831ZM269.718 378.827V384.471H260.946V424.931H254.486V384.471H245.714V378.827H269.718ZM273.741 414.595V395.827C273.741 392.563 274.693 389.979 276.597 388.075C278.501 386.126 281.402 385.151 285.301 385.151C289.2 385.151 292.078 386.126 293.937 388.075C295.796 389.979 296.725 392.563 296.725 395.827V408.271H279.997V414.255C279.997 416.069 280.541 417.406 281.629 418.267C282.762 419.129 284.712 419.559 287.477 419.559C290.288 419.559 293.008 419.151 295.637 418.335V424.183C292.917 424.909 290.016 425.271 286.933 425.271C278.138 425.271 273.741 421.713 273.741 414.595ZM279.997 403.103H290.673V395.895C290.673 392.359 288.882 390.591 285.301 390.591C281.765 390.591 279.997 392.359 279.997 395.895V403.103ZM303.292 395.827C303.292 388.937 307.281 385.491 315.26 385.491C318.116 385.491 320.655 385.809 322.876 386.443V392.359C320.609 391.725 318.297 391.407 315.94 391.407C313.628 391.407 311.996 391.793 311.044 392.563C310.137 393.334 309.684 394.558 309.684 396.235V414.595C309.684 416.273 310.137 417.497 311.044 418.267C311.996 419.038 313.673 419.423 316.076 419.423C318.479 419.423 320.768 419.061 322.944 418.335V424.319C320.315 424.954 317.753 425.271 315.26 425.271C307.281 425.271 303.292 421.826 303.292 414.935V395.827ZM335.393 387.599C338.294 386.33 340.991 385.695 343.485 385.695C346.023 385.695 348.086 386.466 349.673 388.007C351.305 389.503 352.121 391.679 352.121 394.535V424.931H345.593V395.623C345.593 392.949 344.255 391.611 341.581 391.611C339.631 391.611 337.659 392.11 335.665 393.107V424.931H329.273V385.831H335.393V387.599ZM376.334 395.963C376.334 392.473 374.589 390.727 371.098 390.727C367.607 390.727 365.862 392.473 365.862 395.963V414.799C365.862 418.29 367.607 420.035 371.098 420.035C374.589 420.035 376.334 418.29 376.334 414.799V395.963ZM359.538 395.827C359.538 392.563 360.49 389.979 362.394 388.075C364.298 386.126 367.199 385.151 371.098 385.151C374.997 385.151 377.898 386.126 379.802 388.075C381.751 389.979 382.726 392.563 382.726 395.827V414.935C382.726 418.199 381.751 420.806 379.802 422.755C377.898 424.659 374.997 425.611 371.098 425.611C367.199 425.611 364.298 424.659 362.394 422.755C360.49 420.806 359.538 418.199 359.538 414.935V395.827ZM390.433 375.427H396.825V424.931H390.433V375.427ZM421.357 395.963C421.357 392.473 419.612 390.727 416.121 390.727C412.631 390.727 410.885 392.473 410.885 395.963V414.799C410.885 418.29 412.631 420.035 416.121 420.035C419.612 420.035 421.357 418.29 421.357 414.799V395.963ZM404.561 395.827C404.561 392.563 405.513 389.979 407.417 388.075C409.321 386.126 412.223 385.151 416.121 385.151C420.02 385.151 422.921 386.126 424.825 388.075C426.775 389.979 427.749 392.563 427.749 395.827V414.935C427.749 418.199 426.775 420.806 424.825 422.755C422.921 424.659 420.02 425.611 416.121 425.611C412.223 425.611 409.321 424.659 407.417 422.755C405.513 420.806 404.561 418.199 404.561 414.935V395.827ZM460.684 388.347H458.372C457.33 388.347 456.446 388.551 455.72 388.959C456.99 390.546 457.624 392.654 457.624 395.283V400.859C457.624 404.033 456.65 406.503 454.7 408.271C452.796 410.039 449.895 410.946 445.996 410.991C443.866 410.991 442.8 411.989 442.8 413.983C442.8 414.935 443.072 415.615 443.616 416.023C444.206 416.431 445.226 416.635 446.676 416.635H450.62C457.058 416.635 460.276 419.333 460.276 424.727V425.883C460.276 432.003 455.947 435.063 447.288 435.063H444.636C439.695 435.063 435.955 434.27 433.416 432.683V426.699C436.408 428.649 440.103 429.623 444.5 429.623H446.676C449.396 429.623 451.323 429.306 452.456 428.671C453.59 428.037 454.156 427.085 454.156 425.815V425.203C454.156 424.115 453.862 423.322 453.272 422.823C452.728 422.279 451.64 422.007 450.008 422.007H445.86C440.012 422.007 437.088 420.035 437.088 416.091V415.003C437.088 412.465 438.29 410.923 440.692 410.379C436.114 409.065 433.824 405.891 433.824 400.859V395.283C433.824 392.065 434.799 389.571 436.748 387.803C438.743 386.035 441.508 385.151 445.044 385.151C448.58 385.151 451.3 385.695 453.204 386.783C454.156 383.882 456.31 382.431 459.664 382.431H460.684V388.347ZM451.232 400.791V395.351C451.232 393.674 450.802 392.45 449.94 391.679C449.079 390.863 447.674 390.455 445.724 390.455C443.775 390.455 442.37 390.863 441.508 391.679C440.647 392.45 440.216 393.674 440.216 395.351V400.791C440.216 402.469 440.647 403.715 441.508 404.531C442.37 405.302 443.775 405.687 445.724 405.687C447.674 405.687 449.079 405.302 449.94 404.531C450.802 403.715 451.232 402.469 451.232 400.791ZM469.947 375.427H475.387L471.035 382.839H467.227L469.947 375.427ZM466.003 386.307H472.395V424.931H466.003V386.307ZM484.824 413.711V415.751C484.824 417.247 485.164 418.358 485.844 419.083C486.569 419.809 487.952 420.171 489.992 420.171C492.077 420.171 493.981 419.469 495.704 418.063V406.707L489.244 408.475C487.476 408.974 486.297 409.609 485.708 410.379C485.118 411.105 484.824 412.215 484.824 413.711ZM480.404 386.783C482.988 385.922 486.274 385.491 490.264 385.491C498.016 385.491 501.892 389.005 501.892 396.031V424.931H495.772V422.143C493.777 424.138 491.148 425.135 487.884 425.135C481.628 425.135 478.5 421.985 478.5 415.683V413.439C478.5 410.901 479.157 408.861 480.472 407.319C481.786 405.733 483.894 404.531 486.796 403.715L495.704 401.267V396.031C495.704 394.354 495.25 393.153 494.344 392.427C493.437 391.657 491.51 391.271 488.564 391.271C485.662 391.271 482.942 391.725 480.404 392.631V386.783ZM169.018 455.687C169.018 452.469 170.106 449.975 172.282 448.207C174.458 446.394 177.745 445.487 182.142 445.487C185.044 445.487 187.718 445.827 190.166 446.507V452.423C187.492 451.653 184.862 451.267 182.278 451.267C179.694 451.267 177.904 451.675 176.906 452.491C175.954 453.307 175.478 454.531 175.478 456.163V481.663C175.478 483.25 175.977 484.451 176.974 485.267C177.972 486.083 179.808 486.491 182.482 486.491C185.157 486.491 187.786 486.129 190.37 485.403V491.183C188.013 491.909 185.248 492.271 182.074 492.271C173.37 492.271 169.018 488.871 169.018 482.071V455.687ZM207.467 486.287C209.371 486.287 211.229 485.721 213.043 484.587V452.831H219.503V491.931H213.383V490.095C211.025 491.41 208.419 492.067 205.563 492.067C202.707 492.067 200.485 491.251 198.899 489.619C197.312 487.987 196.519 485.63 196.519 482.547V452.831H202.979V481.663C202.979 484.746 204.475 486.287 207.467 486.287ZM238.41 442.427H243.85L239.498 449.839H235.69L238.41 442.427ZM231.882 480.711V482.751C231.882 484.247 232.222 485.358 232.902 486.083C233.628 486.809 235.01 487.171 237.05 487.171C239.136 487.171 241.04 486.469 242.762 485.063V473.707L236.302 475.475C234.534 475.974 233.356 476.609 232.766 477.379C232.177 478.105 231.882 479.215 231.882 480.711ZM227.462 453.783C230.046 452.922 233.333 452.491 237.322 452.491C245.074 452.491 248.95 456.005 248.95 463.031V491.931H242.83V489.143C240.836 491.138 238.206 492.135 234.942 492.135C228.686 492.135 225.558 488.985 225.558 482.683V480.439C225.558 477.901 226.216 475.861 227.53 474.319C228.845 472.733 230.953 471.531 233.854 470.715L242.762 468.267V463.031C242.762 461.354 242.309 460.153 241.402 459.427C240.496 458.657 238.569 458.271 235.622 458.271C232.721 458.271 230.001 458.725 227.462 459.631V453.783ZM263.143 454.599C266.044 453.33 268.741 452.695 271.235 452.695C273.773 452.695 275.836 453.466 277.423 455.007C279.055 456.503 279.871 458.679 279.871 461.535V491.931H273.343V462.623C273.343 459.949 272.005 458.611 269.331 458.611C267.381 458.611 265.409 459.11 263.415 460.107V491.931H257.023V452.831H263.143V454.599ZM294.564 445.827V452.831H302.452V458.339H294.564V482.615C294.564 485.245 295.924 486.559 298.644 486.559C299.959 486.559 301.432 486.287 303.064 485.743V491.523C303.019 491.523 302.792 491.569 302.384 491.659C302.021 491.75 301.636 491.841 301.228 491.931C300.004 492.203 298.825 492.339 297.692 492.339C291.345 492.339 288.172 489.257 288.172 483.091V458.339H284.092V452.831H288.376L290.28 445.827H294.564ZM315.224 445.691C315.224 448.185 313.978 449.431 311.484 449.431C308.991 449.431 307.744 448.185 307.744 445.691C307.744 443.153 308.991 441.883 311.484 441.883C313.978 441.883 315.224 443.153 315.224 445.691ZM308.288 453.307H314.68V491.931H308.288V453.307ZM322.417 462.827C322.417 455.937 326.406 452.491 334.385 452.491C337.241 452.491 339.78 452.809 342.001 453.443V459.359C339.734 458.725 337.422 458.407 335.065 458.407C332.753 458.407 331.121 458.793 330.169 459.563C329.262 460.334 328.809 461.558 328.809 463.235V481.595C328.809 483.273 329.262 484.497 330.169 485.267C331.121 486.038 332.798 486.423 335.201 486.423C337.604 486.423 339.893 486.061 342.069 485.335V491.319C339.44 491.954 336.878 492.271 334.385 492.271C326.406 492.271 322.417 488.826 322.417 481.935V462.827ZM352.41 480.711V482.751C352.41 484.247 352.75 485.358 353.43 486.083C354.155 486.809 355.538 487.171 357.578 487.171C359.663 487.171 361.567 486.469 363.29 485.063V473.707L356.83 475.475C355.062 475.974 353.883 476.609 353.294 477.379C352.704 478.105 352.41 479.215 352.41 480.711ZM347.99 453.783C350.574 452.922 353.86 452.491 357.85 452.491C365.602 452.491 369.478 456.005 369.478 463.031V491.931H363.358V489.143C361.363 491.138 358.734 492.135 355.47 492.135C349.214 492.135 346.086 488.985 346.086 482.683V480.439C346.086 477.901 346.743 475.861 348.058 474.319C349.372 472.733 351.48 471.531 354.382 470.715L363.29 468.267V463.031C363.29 461.354 362.836 460.153 361.93 459.427C361.023 458.657 359.096 458.271 356.15 458.271C353.248 458.271 350.528 458.725 347.99 459.631V453.783Z" fill="#231F20"/>
<path d="M1.53 334.369H13.464V338.789H6.63V343.787H12.546V348.207H6.63V353.511H13.464V357.931H1.53V334.369ZM22.3005 334.369H27.4685V353.647H33.7585V357.931H22.3005V334.369ZM64.7416 357.931L63.7556 352.491H59.0976L58.1796 357.931H53.3176L57.9416 334.369H65.0476L69.6036 357.931H64.7416ZM59.8116 348.173H63.0076L61.3756 339.061L59.8116 348.173ZM87.7683 334.369H92.8003V357.931H87.9043C84.5497 349.363 82.6117 344.195 82.0903 342.427C82.5663 344.218 82.8043 347.301 82.8043 351.675V357.931H77.7723V334.369H82.8043L85.8983 342.257C87.213 345.635 88.097 348.196 88.5503 349.941C88.029 347.743 87.7683 344.524 87.7683 340.285V334.369ZM83.1783 332.907V333.009H80.4923V332.941C80.5377 330.493 81.5463 329.269 83.5183 329.269C84.1983 329.269 84.9123 329.496 85.6603 329.949C86.4083 330.38 86.873 330.595 87.0543 330.595C87.5303 330.595 87.7683 330.187 87.7683 329.371V329.235H90.4543V329.405C90.4317 330.516 90.171 331.389 89.6723 332.023C89.1737 332.658 88.4257 332.975 87.4283 332.975C86.8163 332.975 86.125 332.76 85.3543 332.329C84.5837 331.876 84.0963 331.649 83.8923 331.649C83.4163 331.649 83.1783 332.069 83.1783 332.907ZM111.134 340.387C111.134 339.254 110.454 338.687 109.094 338.687C107.757 338.687 107.088 339.254 107.088 340.387V351.913C107.088 353.047 107.757 353.613 109.094 353.613C110.454 353.613 111.134 353.047 111.134 351.913V340.387ZM101.988 340.115C101.988 338.257 102.589 336.783 103.79 335.695C104.991 334.585 106.759 334.029 109.094 334.029C111.429 334.029 113.197 334.585 114.398 335.695C115.622 336.783 116.234 338.257 116.234 340.115V352.185C116.234 354.044 115.622 355.529 114.398 356.639C113.197 357.727 111.429 358.271 109.094 358.271C106.759 358.271 104.991 357.727 103.79 356.639C102.589 355.529 101.988 354.044 101.988 352.185V340.115ZM138.191 334.369H143.359V357.931H138.191V334.369ZM162.882 334.369H167.914V357.931H163.018C159.663 349.363 157.725 344.195 157.204 342.427C157.68 344.218 157.918 347.301 157.918 351.675V357.931H152.886V334.369H157.918L161.012 342.257C162.326 345.635 163.21 348.196 163.664 349.941C163.142 347.743 162.882 344.524 162.882 340.285V334.369ZM189.749 334.369V338.789H185.499V357.931H180.331V338.789H176.081V334.369H189.749ZM197.913 334.369H209.847V338.789H203.013V343.787H208.929V348.207H203.013V353.511H209.847V357.931H197.913V334.369ZM223.784 349.431V357.931H218.684V334.369H226.368C228.226 334.369 229.677 334.811 230.72 335.695C231.762 336.579 232.284 337.871 232.284 339.571V343.923C232.284 346.643 231.354 348.343 229.496 349.023L233.202 357.931H227.592L224.43 349.431H223.784ZM223.784 338.721V345.385H225.79C226.311 345.385 226.674 345.272 226.878 345.045C227.082 344.819 227.184 344.422 227.184 343.855V340.013C227.184 339.515 227.07 339.175 226.844 338.993C226.617 338.812 226.266 338.721 225.79 338.721H223.784ZM251.542 334.369H256.574V357.931H251.678C248.323 349.363 246.385 344.195 245.864 342.427C246.34 344.218 246.578 347.301 246.578 351.675V357.931H241.546V334.369H246.578L249.672 342.257C250.987 345.635 251.871 348.196 252.324 349.941C251.803 347.743 251.542 344.524 251.542 340.285V334.369ZM276.166 357.931L275.18 352.491H270.522L269.604 357.931H264.742L269.366 334.369H276.472L281.028 357.931H276.166ZM271.236 348.173H274.432L272.8 339.061L271.236 348.173ZM288.857 339.945C288.857 338.132 289.48 336.727 290.727 335.729C291.996 334.709 293.9 334.199 296.439 334.199C298.116 334.199 299.544 334.358 300.723 334.675V339.367C299.453 338.982 298.195 338.789 296.949 338.789C295.725 338.789 294.931 338.937 294.569 339.231C294.206 339.503 294.025 339.911 294.025 340.455V351.879C294.025 352.967 294.875 353.511 296.575 353.511C298.297 353.511 299.714 353.341 300.825 353.001V357.591C299.601 357.931 298.116 358.101 296.371 358.101C293.832 358.101 291.939 357.603 290.693 356.605C289.469 355.608 288.857 354.203 288.857 352.389V339.945ZM309.668 334.369H314.836V357.931H309.668V334.369ZM333.169 340.387C333.169 339.254 332.489 338.687 331.129 338.687C329.791 338.687 329.123 339.254 329.123 340.387V351.913C329.123 353.047 329.791 353.613 331.129 353.613C332.489 353.613 333.169 353.047 333.169 351.913V340.387ZM324.023 340.115C324.023 338.257 324.623 336.783 325.825 335.695C327.026 334.585 328.794 334.029 331.129 334.029C333.463 334.029 335.231 334.585 336.433 335.695C337.657 336.783 338.269 338.257 338.269 340.115V352.185C338.269 354.044 337.657 355.529 336.433 356.639C335.231 357.727 333.463 358.271 331.129 358.271C328.794 358.271 327.026 357.727 325.825 356.639C324.623 355.529 324.023 354.044 324.023 352.185V340.115ZM357.453 334.369H362.485V357.931H357.589C354.235 349.363 352.297 344.195 351.775 342.427C352.251 344.218 352.489 347.301 352.489 351.675V357.931H347.457V334.369H352.489L355.583 342.257C356.898 345.635 357.782 348.196 358.235 349.941C357.714 347.743 357.453 344.524 357.453 340.285V334.369ZM382.077 357.931L381.091 352.491H376.433L375.515 357.931H370.653L375.277 334.369H382.383L386.939 357.931H382.077ZM377.147 348.173H380.343L378.711 339.061L377.147 348.173ZM395.108 334.369H400.276V353.647H406.566V357.931H395.108V334.369ZM436.427 339.809C436.427 339.401 436.325 339.095 436.121 338.891C435.94 338.665 435.577 338.551 435.033 338.551H432.585V353.545H435.033C435.962 353.545 436.427 353.024 436.427 351.981V339.809ZM427.485 334.369H435.747C437.583 334.369 439 334.811 439.997 335.695C441.017 336.579 441.527 337.883 441.527 339.605V352.389C441.527 356.084 439.702 357.931 436.053 357.931H427.485V334.369ZM450.712 334.369H462.646V338.789H455.812V343.787H461.728V348.207H455.812V353.511H462.646V357.931H450.712V334.369ZM484.252 334.369H489.42V353.647H495.71V357.931H484.252V334.369ZM513.924 357.931L512.938 352.491H508.28L507.362 357.931H502.5L507.124 334.369H514.23L518.786 357.931H513.924ZM508.994 348.173H512.19L510.558 339.061L508.994 348.173Z" fill="#231F20"/>
<defs>
<linearGradient id="paint0_linear_1_184" x1="298.222" y1="266.215" x2="297.892" y2="138.479" gradientUnits="userSpaceOnUse">
<stop stop-color="#FDB714"/>
<stop offset="0.24" stop-color="#D2A029"/>
<stop offset="0.56" stop-color="#FDB714"/>
<stop offset="0.88" stop-color="#CF8D2A"/>
</linearGradient>
<linearGradient id="paint1_linear_1_184" x1="334.121" y1="157.127" x2="333.742" y2="8.66536" gradientUnits="userSpaceOnUse">
<stop stop-color="#CF8D2A"/>
<stop offset="0.43" stop-color="#D2A029"/>
<stop offset="0.49" stop-color="#CBA02F"/>
<stop offset="0.57" stop-color="#B6A241"/>
<stop offset="0.68" stop-color="#94A45D"/>
<stop offset="0.79" stop-color="#65A784"/>
<stop offset="0.92" stop-color="#2AAAB6"/>
<stop offset="1" stop-color="#00ADD9"/>
</linearGradient>
<linearGradient id="paint2_linear_1_184" x1="221.182" y1="190.04" x2="259.183" y2="203.923" gradientUnits="userSpaceOnUse">
<stop offset="0.01" stop-color="#48773D"/>
<stop offset="0.08" stop-color="#447541"/>
<stop offset="0.16" stop-color="#39704E"/>
<stop offset="0.24" stop-color="#266762"/>
<stop offset="0.31" stop-color="#0C5A7F"/>
<stop offset="0.34" stop-color="#02558A"/>
<stop offset="0.58" stop-color="#193669"/>
<stop offset="0.81" stop-color="#02558A"/>
<stop offset="1" stop-color="#193669"/>
</linearGradient>
<linearGradient id="paint3_linear_1_184" x1="118.871" y1="155.952" x2="311.827" y2="157.88" gradientUnits="userSpaceOnUse">
<stop offset="0.11" stop-color="#CF8D2A"/>
<stop offset="0.23" stop-color="#FDB714"/>
<stop offset="0.58" stop-color="#F36D25"/>
<stop offset="0.88" stop-color="#8E1937"/>
</linearGradient>
<linearGradient id="paint4_linear_1_184" x1="197.353" y1="126.765" x2="314.862" y2="12.902" gradientUnits="userSpaceOnUse">
<stop offset="0.1" stop-color="#48773D"/>
<stop offset="0.26" stop-color="#269B48"/>
<stop offset="1" stop-color="#00ADD9"/>
</linearGradient>
<linearGradient id="paint5_linear_1_184" x1="140.067" y1="153.287" x2="186.522" y2="153.751" gradientUnits="userSpaceOnUse">
<stop stop-color="#017DBC"/>
<stop offset="0.47" stop-color="#02558A"/>
</linearGradient>
<linearGradient id="paint6_linear_1_184" x1="294.232" y1="183.233" x2="393.194" y2="100.43" gradientUnits="userSpaceOnUse">
<stop stop-color="#8E1937"/>
<stop offset="0.42" stop-color="#EB1C2D"/>
<stop offset="1" stop-color="#E01284"/>
</linearGradient>
<linearGradient id="paint7_linear_1_184" x1="196.215" y1="86.6212" x2="333.366" y2="87.9916" gradientUnits="userSpaceOnUse">
<stop stop-color="#017DBC"/>
<stop offset="0.53" stop-color="#F36D25"/>
<stop offset="0.99" stop-color="#E01284"/>
</linearGradient>
<linearGradient id="paint8_linear_1_184" x1="269.501" y1="279.571" x2="322.663" y2="187.435" gradientUnits="userSpaceOnUse">
<stop stop-color="#193669"/>
<stop offset="0.12" stop-color="#02558A"/>
<stop offset="0.26" stop-color="#017DBC"/>
<stop offset="0.53" stop-color="#3DB049"/>
<stop offset="0.54" stop-color="#3BAE49"/>
<stop offset="0.68" stop-color="#2BA048"/>
<stop offset="0.8" stop-color="#269B48"/>
<stop offset="1" stop-color="#269B48"/>
</linearGradient>
<linearGradient id="paint9_linear_1_184" x1="122.843" y1="232.91" x2="259.613" y2="234.277" gradientUnits="userSpaceOnUse">
<stop stop-color="#017DBC"/>
<stop offset="0.53" stop-color="#EB1C2D"/>
<stop offset="0.86" stop-color="#D2A029"/>
<stop offset="1" stop-color="#EFAD14"/>
</linearGradient>
<linearGradient id="paint10_linear_1_184" x1="111.443" y1="116.223" x2="265.342" y2="117.761" gradientUnits="userSpaceOnUse">
<stop stop-color="#CF8D2A"/>
<stop offset="0.47" stop-color="#D2A029"/>
<stop offset="0.77" stop-color="#48773D"/>
<stop offset="1" stop-color="#269B48"/>
</linearGradient>
<linearGradient id="paint11_linear_1_184" x1="329.486" y1="273.832" x2="330.475" y2="142.139" gradientUnits="userSpaceOnUse">
<stop stop-color="#FDB714"/>
<stop offset="0.24" stop-color="#D2A029"/>
<stop offset="0.56" stop-color="#FDB714"/>
<stop offset="0.88" stop-color="#CF8D2A"/>
</linearGradient>
</defs>
</svg>
