<svg width="1182" height="374" viewBox="0 0 1182 374" fill="none" xmlns="http://www.w3.org/2000/svg">
<path d="M424.236 153.007C424.236 148.937 425.555 145.783 428.192 143.547C430.887 141.311 434.699 140.193 439.63 140.193C444.561 140.193 448.574 140.709 451.67 141.741V149.481C448.574 148.277 444.819 147.675 440.404 147.675C435.072 147.675 432.406 149.653 432.406 153.609V156.963C432.406 158.798 432.75 160.26 433.438 161.349C434.183 162.381 435.473 163.413 437.308 164.445L447.284 170.035C451.928 172.558 454.25 176.371 454.25 181.473V186.289C454.25 190.475 452.788 193.714 449.864 196.007C446.94 198.243 442.812 199.361 437.48 199.361C432.205 199.361 427.963 198.759 424.752 197.555V189.815C428.536 191.191 432.521 191.879 436.706 191.879C442.955 191.879 446.08 189.758 446.08 185.515V182.591C446.08 180.871 445.765 179.553 445.134 178.635C444.503 177.661 443.328 176.715 441.608 175.797L431.89 170.465C426.787 167.713 424.236 163.614 424.236 158.167V153.007ZM461.158 162.123C461.158 153.409 466.203 149.051 476.294 149.051C479.906 149.051 483.116 149.453 485.926 150.255V157.737C483.059 156.935 480.135 156.533 477.154 156.533C474.23 156.533 472.166 157.021 470.962 157.995C469.815 158.97 469.242 160.518 469.242 162.639V185.859C469.242 187.981 469.815 189.529 470.962 190.503C472.166 191.478 474.287 191.965 477.326 191.965C480.364 191.965 483.26 191.507 486.012 190.589V198.157C482.686 198.96 479.447 199.361 476.294 199.361C466.203 199.361 461.158 195.004 461.158 186.289V162.123ZM502.788 140.451C502.788 143.605 501.211 145.181 498.058 145.181C494.904 145.181 493.328 143.605 493.328 140.451C493.328 137.241 494.904 135.635 498.058 135.635C501.211 135.635 502.788 137.241 502.788 140.451ZM494.016 150.083H502.1V198.931H494.016V150.083ZM511.884 185.859V162.123C511.884 157.995 513.088 154.727 515.496 152.319C517.904 149.854 521.573 148.621 526.504 148.621C531.435 148.621 535.075 149.854 537.426 152.319C539.777 154.727 540.952 157.995 540.952 162.123V177.861H519.796V185.429C519.796 187.723 520.484 189.414 521.86 190.503C523.293 191.593 525.759 192.137 529.256 192.137C532.811 192.137 536.251 191.621 539.576 190.589V197.985C536.136 198.903 532.467 199.361 528.568 199.361C517.445 199.361 511.884 194.861 511.884 185.859ZM519.796 171.325H533.298V162.209C533.298 157.737 531.033 155.501 526.504 155.501C522.032 155.501 519.796 157.737 519.796 162.209V171.325ZM557.857 151.717C561.526 150.112 564.938 149.309 568.091 149.309C571.302 149.309 573.91 150.284 575.917 152.233C577.981 154.125 579.013 156.877 579.013 160.489V198.931H570.757V161.865C570.757 158.483 569.066 156.791 565.683 156.791C563.218 156.791 560.724 157.422 558.201 158.683V198.931H550.117V149.481H557.857V151.717ZM588.394 162.123C588.394 153.409 593.439 149.051 603.53 149.051C607.142 149.051 610.353 149.453 613.162 150.255V157.737C610.295 156.935 607.371 156.533 604.39 156.533C601.466 156.533 599.402 157.021 598.198 157.995C597.051 158.97 596.478 160.518 596.478 162.639V185.859C596.478 187.981 597.051 189.529 598.198 190.503C599.402 191.478 601.523 191.965 604.562 191.965C607.601 191.965 610.496 191.507 613.248 190.589V198.157C609.923 198.96 606.683 199.361 603.53 199.361C593.439 199.361 588.394 195.004 588.394 186.289V162.123ZM620.392 185.859V162.123C620.392 157.995 621.596 154.727 624.004 152.319C626.412 149.854 630.081 148.621 635.012 148.621C639.943 148.621 643.583 149.854 645.934 152.319C648.285 154.727 649.46 157.995 649.46 162.123V177.861H628.304V185.429C628.304 187.723 628.992 189.414 630.368 190.503C631.801 191.593 634.267 192.137 637.764 192.137C641.319 192.137 644.759 191.621 648.084 190.589V197.985C644.644 198.903 640.975 199.361 637.076 199.361C625.953 199.361 620.392 194.861 620.392 185.859ZM628.304 171.325H641.806V162.209C641.806 157.737 639.541 155.501 635.012 155.501C630.54 155.501 628.304 157.737 628.304 162.209V171.325ZM655.529 161.521C655.529 157.336 656.733 154.211 659.141 152.147C661.606 150.083 665.591 149.051 671.095 149.051C674.764 149.051 678.032 149.51 680.899 150.427V157.823C678.147 156.791 675.108 156.275 671.783 156.275C668.458 156.275 666.25 156.734 665.161 157.651C664.072 158.511 663.527 159.945 663.527 161.951V163.671C663.527 165.219 663.842 166.395 664.473 167.197C665.104 168 666.308 168.86 668.085 169.777L675.395 173.733C680.326 176.371 682.791 179.925 682.791 184.397V186.633C682.791 195.119 677.287 199.361 666.279 199.361C662.552 199.361 659.026 198.931 655.701 198.071V190.589C658.625 191.564 661.836 192.051 665.333 192.051C668.888 192.051 671.324 191.593 672.643 190.675C674.019 189.758 674.707 188.353 674.707 186.461V184.999C674.707 183.623 674.334 182.534 673.589 181.731C672.901 180.871 671.496 179.897 669.375 178.807L662.409 175.195C657.822 172.845 655.529 169.204 655.529 164.273V161.521ZM705.72 185.859V162.123C705.72 157.995 706.924 154.727 709.332 152.319C711.74 149.854 715.409 148.621 720.34 148.621C725.271 148.621 728.911 149.854 731.262 152.319C733.613 154.727 734.788 157.995 734.788 162.123V177.861H713.632V185.429C713.632 187.723 714.32 189.414 715.696 190.503C717.129 191.593 719.595 192.137 723.092 192.137C726.647 192.137 730.087 191.621 733.412 190.589V197.985C729.972 198.903 726.303 199.361 722.404 199.361C711.281 199.361 705.72 194.861 705.72 185.859ZM713.632 171.325H727.134V162.209C727.134 157.737 724.869 155.501 720.34 155.501C715.868 155.501 713.632 157.737 713.632 162.209V171.325ZM752.295 140.623V149.481H762.271V156.447H752.295V187.149C752.295 190.475 754.015 192.137 757.455 192.137C759.118 192.137 760.981 191.793 763.045 191.105V198.415C762.988 198.415 762.701 198.473 762.185 198.587C761.726 198.702 761.239 198.817 760.723 198.931C759.175 199.275 757.684 199.447 756.251 199.447C748.224 199.447 744.211 195.549 744.211 187.751V156.447H739.051V149.481H744.469L746.877 140.623H752.295ZM811.575 140.623V147.761H800.481V198.931H792.311V147.761H781.217V140.623H811.575ZM816.663 185.859V162.123C816.663 157.995 817.867 154.727 820.275 152.319C822.683 149.854 826.353 148.621 831.283 148.621C836.214 148.621 839.855 149.854 842.205 152.319C844.556 154.727 845.731 157.995 845.731 162.123V177.861H824.575V185.429C824.575 187.723 825.263 189.414 826.639 190.503C828.073 191.593 830.538 192.137 834.035 192.137C837.59 192.137 841.03 191.621 844.355 190.589V197.985C840.915 198.903 837.246 199.361 833.347 199.361C822.225 199.361 816.663 194.861 816.663 185.859ZM824.575 171.325H838.077V162.209C838.077 157.737 835.813 155.501 831.283 155.501C826.811 155.501 824.575 157.737 824.575 162.209V171.325ZM854.036 162.123C854.036 153.409 859.082 149.051 869.172 149.051C872.784 149.051 875.995 149.453 878.804 150.255V157.737C875.938 156.935 873.014 156.533 870.032 156.533C867.108 156.533 865.044 157.021 863.84 157.995C862.694 158.97 862.12 160.518 862.12 162.639V185.859C862.12 187.981 862.694 189.529 863.84 190.503C865.044 191.478 867.166 191.965 870.204 191.965C873.243 191.965 876.138 191.507 878.89 190.589V198.157C875.565 198.96 872.326 199.361 869.172 199.361C859.082 199.361 854.036 195.004 854.036 186.289V162.123ZM886.895 136.323H894.979V151.115C897.903 149.854 901.027 149.223 904.353 149.223C907.735 149.223 910.487 150.169 912.609 152.061C914.73 153.953 915.791 156.763 915.791 160.489V198.931H907.535V161.865C907.535 158.483 905.843 156.791 902.461 156.791C899.881 156.791 897.387 157.393 894.979 158.597V198.931H886.895V136.323ZM933.771 151.717C937.441 150.112 940.852 149.309 944.005 149.309C947.216 149.309 949.825 150.284 951.831 152.233C953.895 154.125 954.927 156.877 954.927 160.489V198.931H946.671V161.865C946.671 158.483 944.98 156.791 941.597 156.791C939.132 156.791 936.638 157.422 934.115 158.683V198.931H926.031V149.481H933.771V151.717ZM985.55 162.295C985.55 157.881 983.343 155.673 978.928 155.673C974.513 155.673 972.306 157.881 972.306 162.295V186.117C972.306 190.532 974.513 192.739 978.928 192.739C983.343 192.739 985.55 190.532 985.55 186.117V162.295ZM964.308 162.123C964.308 157.995 965.512 154.727 967.92 152.319C970.328 149.854 973.997 148.621 978.928 148.621C983.859 148.621 987.528 149.854 989.936 152.319C992.401 154.727 993.634 157.995 993.634 162.123V186.289C993.634 190.417 992.401 193.714 989.936 196.179C987.528 198.587 983.859 199.791 978.928 199.791C973.997 199.791 970.328 198.587 967.92 196.179C965.512 193.714 964.308 190.417 964.308 186.289V162.123ZM1003.38 136.323H1011.46V198.931H1003.38V136.323ZM1042.49 162.295C1042.49 157.881 1040.28 155.673 1035.87 155.673C1031.45 155.673 1029.25 157.881 1029.25 162.295V186.117C1029.25 190.532 1031.45 192.739 1035.87 192.739C1040.28 192.739 1042.49 190.532 1042.49 186.117V162.295ZM1021.25 162.123C1021.25 157.995 1022.45 154.727 1024.86 152.319C1027.27 149.854 1030.94 148.621 1035.87 148.621C1040.8 148.621 1044.47 149.854 1046.88 152.319C1049.34 154.727 1050.58 157.995 1050.58 162.123V186.289C1050.58 190.417 1049.34 193.714 1046.88 196.179C1044.47 198.587 1040.8 199.791 1035.87 199.791C1030.94 199.791 1027.27 198.587 1024.86 196.179C1022.45 193.714 1021.25 190.417 1021.25 186.289V162.123ZM1092.23 152.663H1089.3C1087.99 152.663 1086.87 152.921 1085.95 153.437C1087.56 155.444 1088.36 158.11 1088.36 161.435V168.487C1088.36 172.501 1087.13 175.625 1084.66 177.861C1082.25 180.097 1078.58 181.244 1073.65 181.301C1070.96 181.301 1069.61 182.563 1069.61 185.085C1069.61 186.289 1069.95 187.149 1070.64 187.665C1071.39 188.181 1072.68 188.439 1074.51 188.439H1079.5C1087.64 188.439 1091.71 191.851 1091.71 198.673V200.135C1091.71 207.875 1086.24 211.745 1075.29 211.745H1071.93C1065.68 211.745 1060.95 210.742 1057.74 208.735V201.167C1061.53 203.633 1066.2 204.865 1071.76 204.865H1074.51C1077.95 204.865 1080.39 204.464 1081.82 203.661C1083.26 202.859 1083.97 201.655 1083.97 200.049V199.275C1083.97 197.899 1083.6 196.896 1082.85 196.265C1082.17 195.577 1080.79 195.233 1078.73 195.233H1073.48C1066.08 195.233 1062.39 192.739 1062.39 187.751V186.375C1062.39 183.165 1063.91 181.215 1066.94 180.527C1061.15 178.865 1058.26 174.851 1058.26 168.487V161.435C1058.26 157.365 1059.49 154.211 1061.96 151.975C1064.48 149.739 1067.98 148.621 1072.45 148.621C1076.92 148.621 1080.36 149.309 1082.77 150.685C1083.97 147.016 1086.7 145.181 1090.94 145.181H1092.23V152.663ZM1080.27 168.401V161.521C1080.27 159.4 1079.73 157.852 1078.64 156.877C1077.55 155.845 1075.77 155.329 1073.31 155.329C1070.84 155.329 1069.07 155.845 1067.98 156.877C1066.89 157.852 1066.34 159.4 1066.34 161.521V168.401C1066.34 170.523 1066.89 172.099 1067.98 173.131C1069.07 174.106 1070.84 174.593 1073.31 174.593C1075.77 174.593 1077.55 174.106 1078.64 173.131C1079.73 172.099 1080.27 170.523 1080.27 168.401ZM1107.73 140.451C1107.73 143.605 1106.15 145.181 1103 145.181C1099.84 145.181 1098.27 143.605 1098.27 140.451C1098.27 137.241 1099.84 135.635 1103 135.635C1106.15 135.635 1107.73 137.241 1107.73 140.451ZM1098.96 150.083H1107.04V198.931H1098.96V150.083ZM1116.82 185.859V162.123C1116.82 157.995 1118.03 154.727 1120.44 152.319C1122.84 149.854 1126.51 148.621 1131.44 148.621C1136.37 148.621 1140.01 149.854 1142.37 152.319C1144.72 154.727 1145.89 157.995 1145.89 162.123V177.861H1124.74V185.429C1124.74 187.723 1125.42 189.414 1126.8 190.503C1128.23 191.593 1130.7 192.137 1134.2 192.137C1137.75 192.137 1141.19 191.621 1144.52 190.589V197.985C1141.08 198.903 1137.41 199.361 1133.51 199.361C1122.38 199.361 1116.82 194.861 1116.82 185.859ZM1124.74 171.325H1138.24V162.209C1138.24 157.737 1135.97 155.501 1131.44 155.501C1126.97 155.501 1124.74 157.737 1124.74 162.209V171.325ZM1151.96 161.521C1151.96 157.336 1153.16 154.211 1155.57 152.147C1158.04 150.083 1162.02 149.051 1167.53 149.051C1171.2 149.051 1174.46 149.51 1177.33 150.427V157.823C1174.58 156.791 1171.54 156.275 1168.21 156.275C1164.89 156.275 1162.68 156.734 1161.59 157.651C1160.5 158.511 1159.96 159.945 1159.96 161.951V163.671C1159.96 165.219 1160.27 166.395 1160.9 167.197C1161.54 168 1162.74 168.86 1164.52 169.777L1171.83 173.733C1176.76 176.371 1179.22 179.925 1179.22 184.397V186.633C1179.22 195.119 1173.72 199.361 1162.71 199.361C1158.98 199.361 1155.46 198.931 1152.13 198.071V190.589C1155.06 191.564 1158.27 192.051 1161.76 192.051C1165.32 192.051 1167.76 191.593 1169.07 190.675C1170.45 189.758 1171.14 188.353 1171.14 186.461V184.999C1171.14 183.623 1170.77 182.534 1170.02 181.731C1169.33 180.871 1167.93 179.897 1165.81 178.807L1158.84 175.195C1154.25 172.845 1151.96 169.204 1151.96 164.273V161.521ZM442.038 284.791C436.935 284.791 433.065 283.501 430.428 280.921C427.791 278.341 426.472 274.93 426.472 270.687V238.953C426.472 234.653 427.762 231.213 430.342 228.633C432.979 226.053 436.849 224.763 441.952 224.763C447.112 224.763 451.011 226.082 453.648 228.719C456.285 231.299 457.604 234.711 457.604 238.953V270.687C457.604 275.79 455.827 279.574 452.272 282.039L461.818 292.273H451.928L444.876 284.619C443.729 284.734 442.783 284.791 442.038 284.791ZM434.556 239.211V270.343C434.556 275.102 437.05 277.481 442.038 277.481C447.026 277.481 449.52 275.102 449.52 270.343V239.211C449.52 234.51 447.026 232.159 442.038 232.159C437.05 232.159 434.556 234.51 434.556 239.211ZM480.809 276.793C483.217 276.793 485.567 276.077 487.861 274.643V234.481H496.031V283.931H488.291V281.609C485.309 283.272 482.013 284.103 478.401 284.103C474.789 284.103 471.979 283.071 469.973 281.007C467.966 278.943 466.963 275.962 466.963 272.063V234.481H475.133V270.945C475.133 274.844 477.025 276.793 480.809 276.793ZM511.687 269.741V272.321C511.687 274.213 512.117 275.618 512.977 276.535C513.895 277.453 515.643 277.911 518.223 277.911C520.861 277.911 523.269 277.023 525.447 275.245V260.883L517.277 263.119C515.041 263.75 513.551 264.553 512.805 265.527C512.06 266.445 511.687 267.849 511.687 269.741ZM506.097 235.685C509.365 234.596 513.522 234.051 518.567 234.051C528.371 234.051 533.273 238.495 533.273 247.381V283.931H525.533V280.405C523.011 282.928 519.685 284.189 515.557 284.189C507.645 284.189 503.689 280.205 503.689 272.235V269.397C503.689 266.187 504.521 263.607 506.183 261.657C507.846 259.651 510.512 258.131 514.181 257.099L525.447 254.003V247.381C525.447 245.26 524.874 243.741 523.727 242.823C522.581 241.849 520.144 241.361 516.417 241.361C512.748 241.361 509.308 241.935 506.097 243.081V235.685ZM551.222 236.717C554.892 235.112 558.303 234.309 561.456 234.309C564.667 234.309 567.276 235.284 569.282 237.233C571.346 239.125 572.378 241.877 572.378 245.489V283.931H564.122V246.865C564.122 243.483 562.431 241.791 559.048 241.791C556.583 241.791 554.089 242.422 551.566 243.683V283.931H543.482V234.481H551.222V236.717ZM590.961 225.623V234.481H600.937V241.447H590.961V272.149C590.961 275.475 592.681 277.137 596.121 277.137C597.784 277.137 599.647 276.793 601.711 276.105V283.415C601.654 283.415 601.367 283.473 600.851 283.587C600.392 283.702 599.905 283.817 599.389 283.931C597.841 284.275 596.35 284.447 594.917 284.447C586.89 284.447 582.877 280.549 582.877 272.751V241.447H577.717V234.481H583.135L585.543 225.623H590.961ZM617.09 225.451C617.09 228.605 615.514 230.181 612.36 230.181C609.207 230.181 607.63 228.605 607.63 225.451C607.63 222.241 609.207 220.635 612.36 220.635C615.514 220.635 617.09 222.241 617.09 225.451ZM608.318 235.083H616.402V283.931H608.318V235.083ZM647.085 241.791H641.409C636.65 241.791 634.271 244.056 634.271 248.585V270.859C634.271 274.815 636.192 276.793 640.033 276.793C642.957 276.793 645.308 276.019 647.085 274.471V241.791ZM640.463 234.481H655.255V296.745H647.171V281.953C644.935 283.387 641.982 284.103 638.313 284.103C630.229 284.103 626.187 279.889 626.187 271.461V248.413C626.187 244.113 627.42 240.731 629.885 238.265C632.408 235.743 635.934 234.481 640.463 234.481ZM679.264 276.793C681.672 276.793 684.022 276.077 686.316 274.643V234.481H694.486V283.931H686.746V281.609C683.764 283.272 680.468 284.103 676.856 284.103C673.244 284.103 670.434 283.071 668.428 281.007C666.421 278.943 665.418 275.962 665.418 272.063V234.481H673.588V270.945C673.588 274.844 675.48 276.793 679.264 276.793ZM704.208 270.859V247.123C704.208 242.995 705.412 239.727 707.82 237.319C710.228 234.854 713.898 233.621 718.828 233.621C723.759 233.621 727.4 234.854 729.75 237.319C732.101 239.727 733.276 242.995 733.276 247.123V262.861H712.12V270.429C712.12 272.723 712.808 274.414 714.184 275.503C715.618 276.593 718.083 277.137 721.58 277.137C725.135 277.137 728.575 276.621 731.9 275.589V282.985C728.46 283.903 724.791 284.361 720.892 284.361C709.77 284.361 704.208 279.861 704.208 270.859ZM712.12 256.325H725.622V247.209C725.622 242.737 723.358 240.501 718.828 240.501C714.356 240.501 712.12 242.737 712.12 247.209V256.325ZM739.345 246.521C739.345 242.336 740.549 239.211 742.957 237.147C745.423 235.083 749.407 234.051 754.911 234.051C758.581 234.051 761.849 234.51 764.715 235.427V242.823C761.963 241.791 758.925 241.275 755.599 241.275C752.274 241.275 750.067 241.734 748.977 242.651C747.888 243.511 747.343 244.945 747.343 246.951V248.671C747.343 250.219 747.659 251.395 748.289 252.197C748.92 253 750.124 253.86 751.901 254.777L759.211 258.733C764.142 261.371 766.607 264.925 766.607 269.397V271.633C766.607 280.119 761.103 284.361 750.095 284.361C746.369 284.361 742.843 283.931 739.517 283.071V275.589C742.441 276.564 745.652 277.051 749.149 277.051C752.704 277.051 755.141 276.593 756.459 275.675C757.835 274.758 758.523 273.353 758.523 271.461V269.999C758.523 268.623 758.151 267.534 757.405 266.731C756.717 265.871 755.313 264.897 753.191 263.807L746.225 260.195C741.639 257.845 739.345 254.204 739.345 249.273V246.521Z" fill="#231F20"/>
<path d="M425.935 84.1324H432.471V108.513H440.426V113.931H425.935V84.1324ZM453.916 82.4124C455.665 82.4124 456.539 83.2294 456.539 84.8634C456.539 85.9527 456.109 87.2857 455.249 88.8624C454.418 90.4391 453.543 91.8437 452.626 93.0764H449.874L451.68 82.4124H453.916ZM480.45 113.931L479.203 107.051H473.312L472.151 113.931H466.002L471.85 84.1324H480.837L486.599 113.931H480.45ZM474.215 101.59H478.257L476.193 90.0664L474.215 101.59ZM509.572 84.1324H515.936V113.931H509.744C505.502 103.095 503.051 96.5594 502.391 94.3234C502.993 96.5881 503.294 100.487 503.294 106.019V113.931H496.93V84.1324H503.294L507.207 94.1084C508.87 98.3797 509.988 101.619 510.561 103.826C509.902 101.046 509.572 96.9751 509.572 91.6144V84.1324ZM540.628 84.1324H546.992V113.931H540.8C536.557 103.095 534.106 96.5594 533.447 94.3234C534.049 96.5881 534.35 100.487 534.35 106.019V113.931H527.986V84.1324H534.35L538.263 94.1084C539.926 98.3797 541.044 101.619 541.617 103.826C540.958 101.046 540.628 96.9751 540.628 91.6144V84.1324ZM559.042 84.1324H574.135V89.7224H565.492V96.0434H572.974V101.633H565.492V108.341H574.135V113.931H559.042V84.1324ZM566.61 77.5104H571.34L568.115 82.4554H564.718L566.61 77.5104ZM585.31 84.1324H600.403V89.7224H591.76V96.0434H599.242V101.633H591.76V108.341H600.403V113.931H585.31V84.1324ZM627.728 84.1324H634.264V113.931H627.728V84.1324ZM658.954 84.1324H665.318V113.931H659.126C654.883 103.095 652.432 96.5594 651.773 94.3234C652.375 96.5881 652.676 100.487 652.676 106.019V113.931H646.312V84.1324H652.676L656.589 94.1084C658.251 98.3797 659.369 101.619 659.943 103.826C659.283 101.046 658.954 96.9751 658.954 91.6144V84.1324ZM692.933 84.1324V89.7224H687.558V113.931H681.022V89.7224H675.647V84.1324H692.933ZM703.258 84.1324H718.351V89.7224H709.708V96.0434H717.19V101.633H709.708V108.341H718.351V113.931H703.258V84.1324ZM735.977 103.181V113.931H729.527V84.1324H739.245C741.595 84.1324 743.43 84.6914 744.749 85.8094C746.067 86.9274 746.727 88.5614 746.727 90.7114V96.2154C746.727 99.6554 745.551 101.805 743.201 102.665L747.888 113.931H740.793L736.794 103.181H735.977ZM735.977 89.6364V98.0644H738.514C739.173 98.0644 739.632 97.9211 739.89 97.6344C740.148 97.3477 740.277 96.8461 740.277 96.1294V91.2704C740.277 90.6397 740.133 90.2097 739.847 89.9804C739.56 89.7511 739.116 89.6364 738.514 89.6364H735.977ZM771.083 84.1324H777.447V113.931H771.255C767.012 103.095 764.561 96.5594 763.902 94.3234C764.504 96.5881 764.805 100.487 764.805 106.019V113.931H758.441V84.1324H764.805L768.718 94.1084C770.381 98.3797 771.499 101.619 772.072 103.826C771.413 101.046 771.083 96.9751 771.083 91.6144V84.1324ZM802.225 113.931L800.978 107.051H795.087L793.926 113.931H787.777L793.625 84.1324H802.612L808.374 113.931H802.225ZM795.99 101.59H800.032L797.968 90.0664L795.99 101.59ZM834.271 84.1324V89.7224H828.896V113.931H822.36V89.7224H816.985V84.1324H834.271ZM844.595 84.1324H851.131V113.931H844.595V84.1324ZM874.317 91.7434C874.317 90.3101 873.457 89.5934 871.737 89.5934C870.045 89.5934 869.2 90.3101 869.2 91.7434V106.32C869.2 107.754 870.045 108.47 871.737 108.47C873.457 108.47 874.317 107.754 874.317 106.32V91.7434ZM862.75 91.3994C862.75 89.0487 863.509 87.1854 865.029 85.8094C866.548 84.4047 868.784 83.7024 871.737 83.7024C874.689 83.7024 876.925 84.4047 878.445 85.8094C879.993 87.1854 880.767 89.0487 880.767 91.3994V106.664C880.767 109.015 879.993 110.893 878.445 112.297C876.925 113.673 874.689 114.361 871.737 114.361C868.784 114.361 866.548 113.673 865.029 112.297C863.509 110.893 862.75 109.015 862.75 106.664V91.3994ZM905.03 84.1324H911.394V113.931H905.202C900.959 103.095 898.508 96.5594 897.849 94.3234C898.451 96.5881 898.752 100.487 898.752 106.019V113.931H892.388V84.1324H898.752L902.665 94.1084C904.327 98.3797 905.445 101.619 906.019 103.826C905.359 101.046 905.03 96.9751 905.03 91.6144V84.1324ZM936.171 113.931L934.924 107.051H929.033L927.872 113.931H921.723L927.571 84.1324H936.558L942.32 113.931H936.171ZM929.936 101.59H933.978L931.914 90.0664L929.936 101.59ZM952.651 84.1324H959.187V108.513H967.142V113.931H952.651V84.1324ZM977.45 84.1324H992.543V89.7224H983.9V96.0434H991.382V101.633H983.9V108.341H992.543V113.931H977.45V84.1324ZM1031.18 91.0124C1031.18 90.4964 1031.05 90.1094 1030.79 89.8514C1030.56 89.5647 1030.1 89.4214 1029.41 89.4214H1026.32V108.384H1029.41C1030.59 108.384 1031.18 107.725 1031.18 106.406V91.0124ZM1019.87 84.1324H1030.32C1032.64 84.1324 1034.43 84.6914 1035.69 85.8094C1036.98 86.9274 1037.63 88.5757 1037.63 90.7544V106.922C1037.63 111.595 1035.32 113.931 1030.7 113.931H1019.87V84.1324ZM1049.24 84.1324H1064.34V89.7224H1055.69V96.0434H1063.18V101.633H1055.69V108.341H1064.34V113.931H1049.24V84.1324ZM1074.44 91.0984C1074.44 88.8051 1075.21 87.0421 1076.76 85.8094C1078.31 84.5481 1080.53 83.9174 1083.42 83.9174C1086.35 83.9174 1088.53 84.2184 1089.96 84.8204V91.0124C1088.21 90.2671 1086.22 89.8944 1083.98 89.8944C1082.84 89.8944 1082.06 90.0807 1081.66 90.4534C1081.26 90.7974 1081.06 91.2991 1081.06 91.9584V92.6034C1081.06 93.4061 1081.19 94.0081 1081.45 94.4094C1081.73 94.7821 1082.33 95.2121 1083.25 95.6994L1088.15 98.4514C1090.5 99.7414 1091.68 101.676 1091.68 104.256V106.922C1091.68 109.244 1090.82 111.036 1089.1 112.297C1087.38 113.53 1084.96 114.146 1081.83 114.146C1078.74 114.146 1076.4 113.817 1074.82 113.157V106.922C1076.77 107.754 1078.98 108.169 1081.45 108.169C1083.91 108.169 1085.14 107.467 1085.14 106.062V105.417C1085.14 104.758 1085 104.271 1084.71 103.955C1084.46 103.611 1083.95 103.239 1083.21 102.837L1078.61 100.343C1075.83 98.7954 1074.44 96.6167 1074.44 93.8074V91.0984Z" fill="#231F20"/>
<path d="M171.916 332.212C166.2 332.19 161.403 327.896 160.745 322.214C160.086 316.532 163.775 311.254 169.334 309.924C172.466 309.166 175.599 308.339 178.663 307.409C194.138 302.696 208.784 295.594 222.07 286.361C232.259 279.223 241.511 270.832 249.609 261.385C249.609 261.385 254.704 255.184 256.769 252.325C266.817 238.495 274.314 222.979 278.903 206.508C281.072 198.86 282.931 190.902 284.514 182.841C285.761 176.748 291.657 172.778 297.767 173.919C300.707 174.494 303.299 176.214 304.971 178.702C306.643 181.189 307.259 184.24 306.683 187.182C304.996 195.829 302.965 204.406 300.659 212.605C295.335 231.659 286.662 249.612 275.048 265.622C272.707 268.826 266.924 275.957 266.924 275.957C257.498 286.935 246.718 296.67 234.841 304.929C219.599 315.522 202.792 323.659 185.031 329.043C181.474 330.122 177.894 331.087 174.291 331.937C173.511 332.115 172.715 332.207 171.916 332.212Z" fill="url(#paint0_linear_4_174)"/>
<path d="M295.805 196.346C295.123 196.346 294.443 196.275 293.774 196.139C290.824 195.603 288.208 193.914 286.503 191.445C284.798 188.977 284.144 185.931 284.686 182.979C286.407 173.609 288.507 159.761 289.333 149.943L289.781 143.776C290.984 127.163 290.337 110.468 287.853 93.9976C285.804 78.2863 280.504 63.1749 272.294 49.6272C267.394 41.9091 260.816 35.3973 253.051 30.5769C249.389 28.6043 247.108 24.7768 247.112 20.615C247.117 16.4533 249.407 12.6309 253.073 10.6664C256.74 8.70194 261.188 8.91331 264.652 11.2166C275.396 17.8224 284.486 26.8018 291.227 37.4667C301.158 53.6644 307.606 71.756 310.16 90.5871C312.899 108.744 313.626 127.148 312.328 145.464L311.846 151.975C310.951 162.586 308.714 177.33 306.924 187.217C305.872 192.526 301.214 196.35 295.805 196.346Z" fill="url(#paint1_linear_4_174)"/>
<path d="M193.809 371.14C192.195 371.147 190.598 370.807 189.127 370.141C186.334 368.852 183.641 367.355 181.072 365.662C170.44 358.315 161.128 349.218 153.534 338.758C144.389 326.87 136.325 314.189 129.437 300.864C112.89 268.382 104.4 232.39 104.687 195.932C104.696 187.14 105.168 178.355 106.098 169.613C106.372 165.484 108.88 161.835 112.635 160.102C116.39 158.368 120.791 158.828 124.108 161.299C127.424 163.771 129.125 167.859 128.542 171.956C127.716 179.982 127.303 188.078 127.269 196.07C127.209 213.488 129.313 230.845 133.534 247.743C137.345 262.532 142.794 276.848 149.781 290.426C156.022 302.609 163.326 314.217 171.606 325.116C177.637 333.497 185.039 340.8 193.499 346.715C195.118 347.804 196.821 348.76 198.594 349.575C203.408 351.79 206.035 357.058 204.91 362.239C203.785 367.421 199.211 371.123 193.912 371.14H193.809Z" fill="url(#paint2_linear_4_174)"/>
<path d="M240.039 244.85H239.282C219.333 243.172 199.495 240.354 179.867 236.41L173.189 234.928C157.905 231.483 141.692 226.971 124.997 221.631C106.649 215.844 89.2997 209.402 73.3617 202.581C59.8308 196.85 46.6977 190.221 34.0503 182.738L32.4669 181.739C24.9888 177.641 18.1375 172.49 12.1227 166.444C8.72292 163.658 7.2467 159.152 8.33871 154.893C9.43072 150.633 12.8926 147.395 17.2125 146.592C21.5325 145.788 25.9257 147.566 28.4738 151.148C33.0831 155.592 38.2704 159.392 43.8954 162.448L45.5477 163.447C57.2886 170.395 69.4916 176.53 82.0708 181.808C97.217 188.319 113.843 194.485 131.503 200.066C147.716 205.199 163.551 209.505 178.008 212.846L184.411 214.259C203.097 218.001 221.98 220.681 240.969 222.285C247.024 222.759 251.621 227.942 251.37 234.016C251.12 240.089 246.113 244.876 240.039 244.85Z" fill="url(#paint3_linear_4_174)"/>
<path d="M117.458 181.016H116.219C113.207 180.688 110.451 179.166 108.569 176.79C106.687 174.414 105.834 171.383 106.202 168.373C107.7 155.118 110.069 141.976 113.293 129.032C118.491 107.327 126.694 86.4562 137.664 67.0239C146.534 51.2629 157.997 37.1125 171.571 25.1684C182.765 15.2782 195.981 7.95367 210.298 3.70666C222.86 -0.0514886 236.255 0.00846016 248.783 3.8789C253.627 5.42691 258.308 7.44607 262.759 9.90748C266.276 11.8951 268.466 15.6097 268.506 19.6518C268.544 23.694 266.424 27.4497 262.946 29.5042C259.467 31.5588 255.157 31.6 251.64 29.6123C248.488 27.8392 245.167 26.3852 241.726 25.2717C233.456 22.7539 224.626 22.7539 216.356 25.2717C205.222 28.6819 194.959 34.464 186.27 42.2206C174.616 52.4714 164.791 64.6335 157.217 78.1854C147.312 95.7761 139.908 114.664 135.22 134.303C132.205 146.287 130.02 158.465 128.68 170.75C128.132 176.549 123.279 180.988 117.458 181.016Z" fill="url(#paint4_linear_4_174)"/>
<path d="M24.7217 269.791C19.8538 269.795 15.5345 266.668 14.016 262.04C9.22347 247.385 8.19356 231.759 11.0212 216.601C14.2509 200.357 21.3345 185.128 31.6752 172.197C42.2437 158.828 54.7245 147.093 68.7146 137.369C80.0952 129.314 92.1013 122.183 104.618 116.045C108.234 114.254 112.529 114.53 115.887 116.768C119.244 119.006 121.154 122.867 120.896 126.896C120.637 130.925 118.251 134.51 114.635 136.301C103.186 141.913 92.2047 148.433 81.7955 155.799C69.6782 164.196 58.8375 174.303 49.6097 185.804C41.4512 195.87 35.842 207.759 33.2587 220.46C31.0707 231.944 31.8287 243.797 35.4617 254.909C37.409 260.835 34.1884 267.219 28.2673 269.171C27.1251 269.562 25.9287 269.771 24.7217 269.791Z" fill="url(#paint5_linear_4_174)"/>
<path d="M258.456 245.401C252.156 245.401 245.788 245.401 239.351 244.85C233.192 244.372 228.56 239.03 228.955 232.861C229.432 226.682 234.713 221.991 240.9 222.251C253.983 223.082 267.109 222.978 280.177 221.941H282.414C296.631 220.804 308.886 219.805 322.931 214.672C334.118 210.607 353.464 201.134 357.595 183.393C361.037 168.511 352.122 153.594 348.094 147.876C340.734 137.843 331.125 129.678 320.039 124.037C308.557 118.059 296.367 113.556 283.757 110.636C278.49 109.431 273.155 108.466 267.784 107.777C261.599 106.938 257.248 101.261 258.043 95.0653C258.419 92.0886 259.97 89.3865 262.35 87.5615C264.73 85.7365 267.74 84.9404 270.71 85.3507C276.838 86.143 282.931 87.2798 288.852 88.6233C303.334 91.9605 317.331 97.1353 330.504 104.022C344.793 111.305 357.155 121.87 366.579 134.854C373.739 145.189 384.961 165.617 379.591 188.525C372.844 216.601 345.994 230.105 330.469 235.755C313.567 241.921 299.247 243.058 284.067 244.298H281.829C274.222 245.091 266.408 245.401 258.456 245.401Z" fill="url(#paint6_linear_4_174)"/>
<path d="M117.768 133.717C112.433 133.752 107.801 130.046 106.662 124.83C105.524 119.614 108.188 114.312 113.052 112.118C127.305 105.603 142.05 100.224 157.148 96.0299C171.711 92.0348 186.491 88.8832 201.416 86.5908C215.992 84.3266 230.728 83.2551 245.478 83.3871C253.106 83.492 260.723 83.9864 268.301 84.8684C274.492 85.6225 278.908 91.2437 278.18 97.4423C277.863 100.438 276.349 103.178 273.983 105.039C271.617 106.901 268.599 107.727 265.616 107.329C258.828 106.527 252.003 106.079 245.168 105.986C231.672 105.812 218.185 106.803 204.859 108.948C190.827 111.123 176.931 114.102 163.241 117.871C149.327 121.712 135.743 126.666 122.621 132.684C121.098 133.376 119.441 133.729 117.768 133.717Z" fill="url(#paint7_linear_4_174)"/>
<path d="M205.513 373.999C201.175 373.933 196.879 373.129 192.811 371.622C187.276 369.271 184.541 363.002 186.582 357.342C188.623 351.682 194.728 348.605 200.487 350.332C202.539 351.2 204.783 351.509 206.993 351.228C208.163 350.987 210.435 350.47 214.532 339.343C218.662 327.665 216.907 242.886 173.224 189.214C169.279 184.372 170.003 177.247 174.842 173.299C179.68 169.351 186.8 170.076 190.745 174.918C241.623 237.615 241.692 330.283 235.84 346.956C231.606 358.91 225.719 370.416 211.743 373.379C209.694 373.804 207.606 374.011 205.513 373.999Z" fill="url(#paint8_linear_4_174)"/>
<path d="M136.735 336.76H130.504C112.832 336.54 95.3422 333.145 78.8694 326.735C63.8413 320.976 50.139 312.221 38.5942 301.002C27.5716 290.363 19.2304 277.257 14.2569 262.763C12.2512 256.846 15.4184 250.422 21.3309 248.415C27.2435 246.408 33.6625 249.577 35.6682 255.494C39.492 266.618 45.9117 276.668 54.3945 284.81C63.8231 293.829 74.9677 300.858 87.1655 305.48C101.119 310.94 115.937 313.857 130.917 314.092C144.429 314.809 157.966 313.296 170.986 309.614C176.956 307.797 183.267 311.167 185.082 317.141C186.898 323.115 183.531 329.431 177.561 331.248C164.313 335.158 150.545 337.017 136.735 336.76Z" fill="url(#paint9_linear_4_174)"/>
<path d="M181.898 193.417C178.494 193.423 175.269 191.892 173.12 189.249C123.276 127.964 67.1656 112.738 33.8438 124.726C28.6678 126.096 24.5278 129.98 22.8284 135.061C21.9196 140.876 23.958 146.763 28.2672 150.769C32.6399 155.24 32.5628 162.412 28.0951 166.788C23.6274 171.164 16.4609 171.087 12.0883 166.616C2.35169 157.151 -1.90289 143.378 0.797463 130.066C3.65459 117.802 12.6391 108.363 26.2018 103.471C64.0675 89.6913 129.885 100.302 190.642 174.953C194.574 179.798 193.851 186.914 189.024 190.868C187.017 192.52 184.497 193.422 181.898 193.417Z" fill="url(#paint10_linear_4_174)"/>
<path d="M289.402 207.817C285.937 207.762 282.483 207.417 279.075 206.784C274.478 223.143 267.006 238.553 257.01 252.291C254.945 255.15 249.816 261.385 249.85 261.385C249.884 261.385 249.196 262.005 248.921 262.35C254.407 267.94 258.602 274.666 261.21 282.055C263.137 280.022 265.272 278.162 267.096 276.026C267.096 276.026 272.914 268.93 275.254 265.691C286.882 249.701 295.555 231.757 300.865 212.709C301.416 210.745 301.795 208.609 302.311 206.577C298.064 207.447 293.737 207.863 289.402 207.817Z" fill="url(#paint11_linear_4_174)"/>
<defs>
<linearGradient id="paint0_linear_4_174" x1="235.119" y1="334.084" x2="234.705" y2="173.668" gradientUnits="userSpaceOnUse">
<stop stop-color="#FDB714"/>
<stop offset="0.24" stop-color="#D2A029"/>
<stop offset="0.56" stop-color="#FDB714"/>
<stop offset="0.88" stop-color="#CF8D2A"/>
</linearGradient>
<linearGradient id="paint1_linear_4_174" x1="280.203" y1="197.087" x2="279.727" y2="10.6441" gradientUnits="userSpaceOnUse">
<stop stop-color="#CF8D2A"/>
<stop offset="0.43" stop-color="#D2A029"/>
<stop offset="0.49" stop-color="#CBA02F"/>
<stop offset="0.57" stop-color="#B6A241"/>
<stop offset="0.68" stop-color="#94A45D"/>
<stop offset="0.79" stop-color="#65A784"/>
<stop offset="0.92" stop-color="#2AAAB6"/>
<stop offset="1" stop-color="#00ADD9"/>
</linearGradient>
<linearGradient id="paint2_linear_4_174" x1="138.37" y1="238.42" x2="186.093" y2="255.855" gradientUnits="userSpaceOnUse">
<stop offset="0.01" stop-color="#48773D"/>
<stop offset="0.08" stop-color="#447541"/>
<stop offset="0.16" stop-color="#39704E"/>
<stop offset="0.24" stop-color="#266762"/>
<stop offset="0.31" stop-color="#0C5A7F"/>
<stop offset="0.34" stop-color="#02558A"/>
<stop offset="0.58" stop-color="#193669"/>
<stop offset="0.81" stop-color="#02558A"/>
<stop offset="1" stop-color="#193669"/>
</linearGradient>
<linearGradient id="paint3_linear_4_174" x1="9.88518" y1="195.611" x2="252.205" y2="198.033" gradientUnits="userSpaceOnUse">
<stop offset="0.11" stop-color="#CF8D2A"/>
<stop offset="0.23" stop-color="#FDB714"/>
<stop offset="0.58" stop-color="#F36D25"/>
<stop offset="0.88" stop-color="#8E1937"/>
</linearGradient>
<linearGradient id="paint4_linear_4_174" x1="108.445" y1="158.958" x2="256.016" y2="15.9645" gradientUnits="userSpaceOnUse">
<stop offset="0.1" stop-color="#48773D"/>
<stop offset="0.26" stop-color="#269B48"/>
<stop offset="1" stop-color="#00ADD9"/>
</linearGradient>
<linearGradient id="paint5_linear_4_174" x1="36.5033" y1="192.265" x2="94.8429" y2="192.848" gradientUnits="userSpaceOnUse">
<stop stop-color="#017DBC"/>
<stop offset="0.47" stop-color="#02558A"/>
</linearGradient>
<linearGradient id="paint6_linear_4_174" x1="230.109" y1="229.872" x2="354.389" y2="125.885" gradientUnits="userSpaceOnUse">
<stop stop-color="#8E1937"/>
<stop offset="0.42" stop-color="#EB1C2D"/>
<stop offset="1" stop-color="#E01284"/>
</linearGradient>
<linearGradient id="paint7_linear_4_174" x1="107.016" y1="108.543" x2="279.254" y2="110.264" gradientUnits="userSpaceOnUse">
<stop stop-color="#017DBC"/>
<stop offset="0.53" stop-color="#F36D25"/>
<stop offset="0.99" stop-color="#E01284"/>
</linearGradient>
<linearGradient id="paint8_linear_4_174" x1="199.05" y1="350.856" x2="265.813" y2="235.149" gradientUnits="userSpaceOnUse">
<stop stop-color="#193669"/>
<stop offset="0.12" stop-color="#02558A"/>
<stop offset="0.26" stop-color="#017DBC"/>
<stop offset="0.53" stop-color="#3DB049"/>
<stop offset="0.54" stop-color="#3BAE49"/>
<stop offset="0.68" stop-color="#2BA048"/>
<stop offset="0.8" stop-color="#269B48"/>
<stop offset="1" stop-color="#269B48"/>
</linearGradient>
<linearGradient id="paint9_linear_4_174" x1="14.8731" y1="292.258" x2="186.633" y2="293.975" gradientUnits="userSpaceOnUse">
<stop stop-color="#017DBC"/>
<stop offset="0.53" stop-color="#EB1C2D"/>
<stop offset="0.86" stop-color="#D2A029"/>
<stop offset="1" stop-color="#EFAD14"/>
</linearGradient>
<linearGradient id="paint10_linear_4_174" x1="0.555811" y1="145.718" x2="193.828" y2="147.65" gradientUnits="userSpaceOnUse">
<stop stop-color="#CF8D2A"/>
<stop offset="0.47" stop-color="#D2A029"/>
<stop offset="0.77" stop-color="#48773D"/>
<stop offset="1" stop-color="#269B48"/>
</linearGradient>
<linearGradient id="paint11_linear_4_174" x1="274.382" y1="343.649" x2="275.623" y2="178.264" gradientUnits="userSpaceOnUse">
<stop stop-color="#FDB714"/>
<stop offset="0.24" stop-color="#D2A029"/>
<stop offset="0.56" stop-color="#FDB714"/>
<stop offset="0.88" stop-color="#CF8D2A"/>
</linearGradient>
</defs>
</svg>
