<svg width="966" height="374" viewBox="0 0 966 374" fill="none" xmlns="http://www.w3.org/2000/svg">
<path d="M171.916 332.212C166.2 332.19 161.403 327.896 160.745 322.214C160.086 316.532 163.775 311.254 169.334 309.924C172.466 309.166 175.599 308.339 178.663 307.409C194.138 302.696 208.784 295.594 222.07 286.361C232.259 279.223 241.511 270.832 249.609 261.385C249.609 261.385 254.704 255.184 256.769 252.325C266.817 238.495 274.314 222.979 278.903 206.508C281.072 198.86 282.931 190.902 284.514 182.841C285.761 176.748 291.657 172.778 297.767 173.919C300.707 174.494 303.299 176.214 304.971 178.702C306.643 181.189 307.259 184.24 306.683 187.182C304.996 195.829 302.965 204.406 300.659 212.605C295.335 231.659 286.662 249.612 275.048 265.622C272.707 268.826 266.924 275.957 266.924 275.957C257.498 286.935 246.718 296.67 234.841 304.929C219.599 315.522 202.792 323.659 185.031 329.043C181.474 330.122 177.894 331.087 174.291 331.937C173.511 332.115 172.715 332.207 171.916 332.212Z" fill="url(#paint0_linear_9_339)"/>
<path d="M295.805 196.346C295.123 196.346 294.443 196.275 293.774 196.139C290.824 195.603 288.208 193.914 286.503 191.445C284.798 188.977 284.144 185.931 284.686 182.979C286.407 173.609 288.507 159.761 289.333 149.943L289.781 143.776C290.984 127.163 290.337 110.468 287.853 93.9976C285.804 78.2863 280.504 63.1749 272.294 49.6272C267.394 41.9091 260.816 35.3973 253.051 30.5769C249.389 28.6043 247.108 24.7768 247.112 20.615C247.117 16.4533 249.407 12.6309 253.073 10.6664C256.74 8.70194 261.188 8.91331 264.652 11.2166C275.396 17.8224 284.486 26.8018 291.227 37.4667C301.158 53.6644 307.606 71.756 310.16 90.5871C312.899 108.744 313.626 127.148 312.328 145.464L311.846 151.975C310.951 162.586 308.714 177.33 306.924 187.217C305.872 192.526 301.214 196.35 295.805 196.346Z" fill="url(#paint1_linear_9_339)"/>
<path d="M193.809 371.14C192.195 371.147 190.598 370.807 189.127 370.141C186.334 368.852 183.641 367.355 181.072 365.662C170.44 358.315 161.128 349.218 153.534 338.758C144.389 326.87 136.325 314.189 129.437 300.864C112.89 268.382 104.4 232.39 104.687 195.932C104.696 187.14 105.168 178.355 106.098 169.613C106.372 165.484 108.88 161.835 112.635 160.102C116.39 158.368 120.791 158.828 124.108 161.299C127.424 163.771 129.125 167.859 128.542 171.956C127.716 179.982 127.303 188.078 127.269 196.07C127.209 213.488 129.313 230.845 133.534 247.743C137.345 262.532 142.794 276.848 149.781 290.426C156.022 302.609 163.326 314.217 171.606 325.116C177.637 333.497 185.039 340.8 193.499 346.715C195.118 347.804 196.821 348.76 198.594 349.575C203.408 351.79 206.035 357.058 204.91 362.239C203.785 367.421 199.211 371.123 193.912 371.14H193.809Z" fill="url(#paint2_linear_9_339)"/>
<path d="M240.039 244.85H239.282C219.333 243.172 199.495 240.354 179.867 236.41L173.189 234.928C157.905 231.483 141.692 226.971 124.997 221.631C106.649 215.844 89.2997 209.402 73.3617 202.581C59.8308 196.85 46.6977 190.221 34.0503 182.738L32.4669 181.739C24.9888 177.641 18.1375 172.49 12.1227 166.444C8.72292 163.658 7.2467 159.152 8.33871 154.893C9.43072 150.633 12.8926 147.395 17.2125 146.592C21.5325 145.788 25.9257 147.566 28.4738 151.148C33.0831 155.592 38.2704 159.392 43.8954 162.448L45.5477 163.447C57.2886 170.395 69.4916 176.53 82.0708 181.808C97.217 188.319 113.843 194.485 131.503 200.066C147.716 205.199 163.551 209.505 178.008 212.846L184.411 214.259C203.097 218.001 221.98 220.681 240.969 222.285C247.024 222.759 251.621 227.942 251.37 234.016C251.12 240.089 246.113 244.876 240.039 244.85Z" fill="url(#paint3_linear_9_339)"/>
<path d="M117.458 181.016H116.219C113.207 180.688 110.451 179.166 108.569 176.79C106.687 174.414 105.834 171.383 106.202 168.373C107.7 155.118 110.069 141.976 113.293 129.032C118.491 107.327 126.694 86.4562 137.664 67.0239C146.534 51.2629 157.997 37.1125 171.571 25.1684C182.765 15.2782 195.981 7.95367 210.298 3.70666C222.86 -0.0514886 236.255 0.00846016 248.783 3.8789C253.627 5.42691 258.308 7.44607 262.759 9.90748C266.276 11.8951 268.466 15.6097 268.506 19.6518C268.544 23.694 266.424 27.4497 262.946 29.5042C259.467 31.5588 255.157 31.6 251.64 29.6123C248.488 27.8392 245.167 26.3852 241.726 25.2717C233.456 22.7539 224.626 22.7539 216.356 25.2717C205.222 28.6819 194.959 34.464 186.27 42.2206C174.616 52.4714 164.791 64.6335 157.217 78.1854C147.312 95.7761 139.908 114.664 135.22 134.303C132.205 146.287 130.02 158.465 128.68 170.75C128.132 176.549 123.279 180.988 117.458 181.016Z" fill="url(#paint4_linear_9_339)"/>
<path d="M24.7217 269.791C19.8538 269.795 15.5345 266.668 14.016 262.04C9.22347 247.385 8.19356 231.759 11.0212 216.601C14.2509 200.357 21.3345 185.128 31.6752 172.197C42.2437 158.828 54.7245 147.093 68.7146 137.369C80.0952 129.314 92.1013 122.183 104.618 116.045C108.234 114.254 112.529 114.53 115.887 116.768C119.244 119.006 121.154 122.867 120.896 126.896C120.637 130.925 118.251 134.51 114.635 136.301C103.186 141.913 92.2047 148.433 81.7955 155.799C69.6782 164.196 58.8375 174.303 49.6097 185.804C41.4512 195.87 35.842 207.759 33.2587 220.46C31.0707 231.944 31.8287 243.797 35.4617 254.909C37.409 260.835 34.1884 267.219 28.2673 269.171C27.1251 269.562 25.9287 269.771 24.7217 269.791Z" fill="url(#paint5_linear_9_339)"/>
<path d="M258.456 245.401C252.156 245.401 245.788 245.401 239.351 244.85C233.192 244.372 228.56 239.03 228.955 232.861C229.432 226.682 234.713 221.991 240.9 222.251C253.983 223.082 267.109 222.978 280.177 221.941H282.414C296.631 220.804 308.886 219.805 322.931 214.672C334.118 210.607 353.464 201.134 357.595 183.393C361.037 168.511 352.122 153.594 348.094 147.876C340.734 137.843 331.125 129.678 320.039 124.037C308.557 118.059 296.367 113.556 283.757 110.636C278.49 109.431 273.155 108.466 267.784 107.777C261.599 106.938 257.248 101.261 258.043 95.0653C258.419 92.0886 259.97 89.3865 262.35 87.5615C264.73 85.7365 267.74 84.9404 270.71 85.3507C276.838 86.143 282.931 87.2798 288.852 88.6233C303.334 91.9605 317.331 97.1353 330.504 104.022C344.793 111.305 357.155 121.87 366.579 134.854C373.739 145.189 384.961 165.617 379.591 188.525C372.844 216.601 345.994 230.105 330.469 235.755C313.567 241.921 299.247 243.058 284.067 244.298H281.829C274.222 245.091 266.408 245.401 258.456 245.401Z" fill="url(#paint6_linear_9_339)"/>
<path d="M117.768 133.717C112.433 133.752 107.801 130.046 106.662 124.83C105.524 119.614 108.188 114.312 113.052 112.118C127.305 105.603 142.05 100.224 157.148 96.0299C171.711 92.0348 186.491 88.8832 201.416 86.5908C215.992 84.3266 230.728 83.2551 245.478 83.3871C253.106 83.492 260.723 83.9864 268.301 84.8684C274.492 85.6225 278.908 91.2437 278.18 97.4423C277.863 100.438 276.349 103.178 273.983 105.039C271.617 106.901 268.599 107.727 265.616 107.329C258.828 106.527 252.003 106.079 245.168 105.986C231.672 105.812 218.185 106.803 204.859 108.948C190.827 111.123 176.931 114.102 163.241 117.871C149.327 121.712 135.743 126.666 122.621 132.684C121.098 133.376 119.441 133.729 117.768 133.717Z" fill="url(#paint7_linear_9_339)"/>
<path d="M205.513 373.999C201.175 373.933 196.879 373.129 192.811 371.622C187.276 369.271 184.541 363.002 186.582 357.342C188.623 351.682 194.728 348.605 200.487 350.332C202.539 351.2 204.783 351.509 206.993 351.228C208.163 350.987 210.435 350.47 214.532 339.343C218.662 327.665 216.907 242.886 173.224 189.214C169.279 184.372 170.003 177.247 174.842 173.299C179.68 169.351 186.8 170.076 190.745 174.918C241.623 237.615 241.692 330.283 235.84 346.956C231.606 358.91 225.719 370.416 211.743 373.379C209.694 373.804 207.606 374.011 205.513 373.999Z" fill="url(#paint8_linear_9_339)"/>
<path d="M136.735 336.76H130.504C112.832 336.54 95.3422 333.145 78.8694 326.735C63.8413 320.976 50.139 312.221 38.5942 301.002C27.5716 290.363 19.2304 277.258 14.2569 262.763C12.2512 256.846 15.4184 250.422 21.3309 248.415C27.2435 246.408 33.6625 249.578 35.6682 255.495C39.492 266.618 45.9117 276.668 54.3945 284.811C63.8231 293.829 74.9677 300.858 87.1655 305.48C101.119 310.94 115.937 313.857 130.917 314.092C144.429 314.809 157.966 313.296 170.986 309.614C176.956 307.797 183.267 311.167 185.082 317.141C186.898 323.115 183.531 329.431 177.561 331.248C164.313 335.158 150.545 337.017 136.735 336.76Z" fill="url(#paint9_linear_9_339)"/>
<path d="M181.898 193.417C178.494 193.423 175.269 191.892 173.12 189.249C123.276 127.964 67.1656 112.738 33.8438 124.726C28.6678 126.096 24.5278 129.98 22.8284 135.061C21.9196 140.876 23.958 146.763 28.2672 150.769C32.6399 155.24 32.5628 162.412 28.0951 166.788C23.6274 171.164 16.4609 171.087 12.0883 166.616C2.35169 157.151 -1.90289 143.378 0.797463 130.066C3.65459 117.802 12.6391 108.363 26.2018 103.471C64.0675 89.6913 129.885 100.302 190.642 174.953C194.574 179.798 193.851 186.914 189.024 190.868C187.017 192.52 184.497 193.422 181.898 193.417Z" fill="url(#paint10_linear_9_339)"/>
<path d="M289.402 207.817C285.937 207.762 282.483 207.417 279.075 206.784C274.478 223.143 267.006 238.553 257.01 252.291C254.945 255.15 249.816 261.385 249.85 261.385C249.884 261.385 249.196 262.005 248.921 262.35C254.407 267.94 258.602 274.666 261.21 282.055C263.137 280.022 265.272 278.162 267.096 276.026C267.096 276.026 272.914 268.93 275.254 265.691C286.882 249.701 295.555 231.757 300.865 212.709C301.416 210.745 301.795 208.609 302.311 206.577C298.064 207.447 293.737 207.863 289.402 207.817Z" fill="url(#paint11_linear_9_339)"/>
<path d="M442.038 198.791C436.935 198.791 433.065 197.501 430.428 194.921C427.791 192.341 426.472 188.93 426.472 184.687V152.953C426.472 148.653 427.762 145.213 430.342 142.633C432.979 140.053 436.849 138.763 441.952 138.763C447.112 138.763 451.011 140.082 453.648 142.719C456.285 145.299 457.604 148.711 457.604 152.953V184.687C457.604 189.79 455.827 193.574 452.272 196.039L461.818 206.273H451.928L444.876 198.619C443.729 198.734 442.783 198.791 442.038 198.791ZM434.556 153.211V184.343C434.556 189.102 437.05 191.481 442.038 191.481C447.026 191.481 449.52 189.102 449.52 184.343V153.211C449.52 148.51 447.026 146.159 442.038 146.159C437.05 146.159 434.556 148.51 434.556 153.211ZM480.809 190.793C483.217 190.793 485.567 190.077 487.861 188.643V148.481H496.031V197.931H488.291V195.609C485.309 197.272 482.013 198.103 478.401 198.103C474.789 198.103 471.979 197.071 469.973 195.007C467.966 192.943 466.963 189.962 466.963 186.063V148.481H475.133V184.945C475.133 188.844 477.025 190.793 480.809 190.793ZM511.687 183.741V186.321C511.687 188.213 512.117 189.618 512.977 190.535C513.895 191.453 515.643 191.911 518.223 191.911C520.861 191.911 523.269 191.023 525.447 189.245V174.883L517.277 177.119C515.041 177.75 513.551 178.553 512.805 179.527C512.06 180.445 511.687 181.849 511.687 183.741ZM506.097 149.685C509.365 148.596 513.522 148.051 518.567 148.051C528.371 148.051 533.273 152.495 533.273 161.381V197.931H525.533V194.405C523.011 196.928 519.685 198.189 515.557 198.189C507.645 198.189 503.689 194.205 503.689 186.235V183.397C503.689 180.187 504.521 177.607 506.183 175.657C507.846 173.651 510.512 172.131 514.181 171.099L525.447 168.003V161.381C525.447 159.26 524.874 157.741 523.727 156.823C522.581 155.849 520.144 155.361 516.417 155.361C512.748 155.361 509.308 155.935 506.097 157.081V149.685ZM551.222 150.717C554.892 149.112 558.303 148.309 561.456 148.309C564.667 148.309 567.276 149.284 569.282 151.233C571.346 153.125 572.378 155.877 572.378 159.489V197.931H564.122V160.865C564.122 157.483 562.431 155.791 559.048 155.791C556.583 155.791 554.089 156.422 551.566 157.683V197.931H543.482V148.481H551.222V150.717ZM590.961 139.623V148.481H600.937V155.447H590.961V186.149C590.961 189.475 592.681 191.137 596.121 191.137C597.784 191.137 599.647 190.793 601.711 190.105V197.415C601.654 197.415 601.367 197.473 600.851 197.587C600.392 197.702 599.905 197.817 599.389 197.931C597.841 198.275 596.35 198.447 594.917 198.447C586.89 198.447 582.877 194.549 582.877 186.751V155.447H577.717V148.481H583.135L585.543 139.623H590.961ZM621.734 190.793C624.142 190.793 626.493 190.077 628.786 188.643V148.481H636.956V197.931H629.216V195.609C626.235 197.272 622.938 198.103 619.326 198.103C615.714 198.103 612.905 197.071 610.898 195.007C608.892 192.943 607.888 189.962 607.888 186.063V148.481H616.058V184.945C616.058 188.844 617.95 190.793 621.734 190.793ZM673.769 151.663C677.668 149.427 681.509 148.309 685.293 148.309C689.134 148.309 692.058 149.255 694.065 151.147C696.129 153.039 697.161 155.82 697.161 159.489V197.931H688.991V160.865C688.991 157.483 687.271 155.791 683.831 155.791C681.079 155.791 678.47 156.565 676.005 158.113C676.292 158.744 676.435 159.633 676.435 160.779V197.931H668.179V160.865C668.179 157.483 666.488 155.791 663.105 155.791C660.64 155.791 658.146 156.422 655.623 157.683V197.931H647.539V148.481H655.279V150.717C658.948 149.112 662.446 148.309 665.771 148.309C669.096 148.309 671.762 149.427 673.769 151.663ZM720.533 152.007C720.533 147.937 721.852 144.783 724.489 142.547C727.184 140.311 730.996 139.193 735.927 139.193C740.858 139.193 744.871 139.709 747.967 140.741V148.481C744.871 147.277 741.116 146.675 736.701 146.675C731.369 146.675 728.703 148.653 728.703 152.609V155.963C728.703 157.798 729.047 159.26 729.735 160.349C730.48 161.381 731.77 162.413 733.605 163.445L743.581 169.035C748.225 171.558 750.547 175.371 750.547 180.473V185.289C750.547 189.475 749.085 192.714 746.161 195.007C743.237 197.243 739.109 198.361 733.777 198.361C728.502 198.361 724.26 197.759 721.049 196.555V188.815C724.833 190.191 728.818 190.879 733.003 190.879C739.252 190.879 742.377 188.758 742.377 184.515V181.591C742.377 179.871 742.062 178.553 741.431 177.635C740.8 176.661 739.625 175.715 737.905 174.797L728.187 169.465C723.084 166.713 720.533 162.614 720.533 157.167V152.007ZM757.454 161.123C757.454 152.409 762.5 148.051 772.59 148.051C776.202 148.051 779.413 148.453 782.222 149.255V156.737C779.356 155.935 776.432 155.533 773.45 155.533C770.526 155.533 768.462 156.021 767.258 156.995C766.112 157.97 765.538 159.518 765.538 161.639V184.859C765.538 186.981 766.112 188.529 767.258 189.503C768.462 190.478 770.584 190.965 773.622 190.965C776.661 190.965 779.556 190.507 782.308 189.589V197.157C778.983 197.96 775.744 198.361 772.59 198.361C762.5 198.361 757.454 194.004 757.454 185.289V161.123ZM799.084 139.451C799.084 142.605 797.508 144.181 794.354 144.181C791.201 144.181 789.624 142.605 789.624 139.451C789.624 136.241 791.201 134.635 794.354 134.635C797.508 134.635 799.084 136.241 799.084 139.451ZM790.312 149.083H798.396V197.931H790.312V149.083ZM808.181 184.859V161.123C808.181 156.995 809.385 153.727 811.793 151.319C814.201 148.854 817.87 147.621 822.801 147.621C827.732 147.621 831.372 148.854 833.723 151.319C836.074 153.727 837.249 156.995 837.249 161.123V176.861H816.093V184.429C816.093 186.723 816.781 188.414 818.157 189.503C819.59 190.593 822.056 191.137 825.553 191.137C829.108 191.137 832.548 190.621 835.873 189.589V196.985C832.433 197.903 828.764 198.361 824.865 198.361C813.742 198.361 808.181 193.861 808.181 184.859ZM816.093 170.325H829.595V161.209C829.595 156.737 827.33 154.501 822.801 154.501C818.329 154.501 816.093 156.737 816.093 161.209V170.325ZM854.154 150.717C857.823 149.112 861.235 148.309 864.388 148.309C867.599 148.309 870.207 149.284 872.214 151.233C874.278 153.125 875.31 155.877 875.31 159.489V197.931H867.054V160.865C867.054 157.483 865.363 155.791 861.98 155.791C859.515 155.791 857.021 156.422 854.498 157.683V197.931H846.414V148.481H854.154V150.717ZM884.691 161.123C884.691 152.409 889.736 148.051 899.827 148.051C903.439 148.051 906.649 148.453 909.459 149.255V156.737C906.592 155.935 903.668 155.533 900.687 155.533C897.763 155.533 895.699 156.021 894.495 156.995C893.348 157.97 892.775 159.518 892.775 161.639V184.859C892.775 186.981 893.348 188.529 894.495 189.503C895.699 190.478 897.82 190.965 900.859 190.965C903.897 190.965 906.793 190.507 909.545 189.589V197.157C906.219 197.96 902.98 198.361 899.827 198.361C889.736 198.361 884.691 194.004 884.691 185.289V161.123ZM916.689 184.859V161.123C916.689 156.995 917.893 153.727 920.301 151.319C922.709 148.854 926.378 147.621 931.309 147.621C936.239 147.621 939.88 148.854 942.231 151.319C944.581 153.727 945.757 156.995 945.757 161.123V176.861H924.601V184.429C924.601 186.723 925.289 188.414 926.665 189.503C928.098 190.593 930.563 191.137 934.061 191.137C937.615 191.137 941.055 190.621 944.381 189.589V196.985C940.941 197.903 937.271 198.361 933.373 198.361C922.25 198.361 916.689 193.861 916.689 184.859ZM924.601 170.325H938.103V161.209C938.103 156.737 935.838 154.501 931.309 154.501C926.837 154.501 924.601 156.737 924.601 161.209V170.325ZM432.406 268.741V271.321C432.406 273.213 432.836 274.618 433.696 275.535C434.613 276.453 436.362 276.911 438.942 276.911C441.579 276.911 443.987 276.023 446.166 274.245V259.883L437.996 262.119C435.76 262.75 434.269 263.553 433.524 264.527C432.779 265.445 432.406 266.849 432.406 268.741ZM426.816 234.685C430.084 233.596 434.241 233.051 439.286 233.051C449.09 233.051 453.992 237.495 453.992 246.381V282.931H446.252V279.405C443.729 281.928 440.404 283.189 436.276 283.189C428.364 283.189 424.408 279.205 424.408 271.235V268.397C424.408 265.187 425.239 262.607 426.902 260.657C428.565 258.651 431.231 257.131 434.9 256.099L446.166 253.003V246.381C446.166 244.26 445.593 242.741 444.446 241.823C443.299 240.849 440.863 240.361 437.136 240.361C433.467 240.361 430.027 240.935 426.816 242.081V234.685ZM471.941 235.717C475.61 234.112 479.022 233.309 482.175 233.309C485.386 233.309 487.994 234.284 490.001 236.233C492.065 238.125 493.097 240.877 493.097 244.489V282.931H484.841V245.865C484.841 242.483 483.15 240.791 479.767 240.791C477.302 240.791 474.808 241.422 472.285 242.683V282.931H464.201V233.481H471.941V235.717ZM523.376 240.791H517.528C512.884 240.791 510.562 242.97 510.562 247.327V270.117C510.562 273.959 512.454 275.879 516.238 275.879C519.277 275.879 521.656 275.077 523.376 273.471V240.791ZM523.376 220.323H531.546V282.931H523.548V279.835C521.197 282.071 518.101 283.189 514.26 283.189C510.419 283.189 507.495 282.157 505.488 280.093C503.481 277.972 502.478 274.962 502.478 271.063V247.069C502.478 242.827 503.711 239.501 506.176 237.093C508.641 234.685 512.081 233.481 516.496 233.481H523.376V220.323ZM584.062 224.623V231.761H572.968V282.931H564.798V231.761H553.704V224.623H584.062ZM589.15 269.859V246.123C589.15 241.995 590.354 238.727 592.762 236.319C595.17 233.854 598.839 232.621 603.77 232.621C608.7 232.621 612.341 233.854 614.692 236.319C617.042 238.727 618.218 241.995 618.218 246.123V261.861H597.062V269.429C597.062 271.723 597.75 273.414 599.126 274.503C600.559 275.593 603.024 276.137 606.522 276.137C610.076 276.137 613.516 275.621 616.842 274.589V281.985C613.402 282.903 609.732 283.361 605.834 283.361C594.711 283.361 589.15 278.861 589.15 269.859ZM597.062 255.325H610.564V246.209C610.564 241.737 608.299 239.501 603.77 239.501C599.298 239.501 597.062 241.737 597.062 246.209V255.325ZM626.523 246.123C626.523 237.409 631.568 233.051 641.659 233.051C645.271 233.051 648.481 233.453 651.291 234.255V241.737C648.424 240.935 645.5 240.533 642.519 240.533C639.595 240.533 637.531 241.021 636.327 241.995C635.18 242.97 634.607 244.518 634.607 246.639V269.859C634.607 271.981 635.18 273.529 636.327 274.503C637.531 275.478 639.652 275.965 642.691 275.965C645.729 275.965 648.625 275.507 651.377 274.589V282.157C648.051 282.96 644.812 283.361 641.659 283.361C631.568 283.361 626.523 279.004 626.523 270.289V246.123ZM659.381 220.323H667.465V235.115C670.389 233.854 673.513 233.223 676.839 233.223C680.221 233.223 682.973 234.169 685.095 236.061C687.216 237.953 688.277 240.763 688.277 244.489V282.931H680.021V245.865C680.021 242.483 678.329 240.791 674.947 240.791C672.367 240.791 669.873 241.393 667.465 242.597V282.931H659.381V220.323ZM706.258 235.717C709.927 234.112 713.338 233.309 716.492 233.309C719.702 233.309 722.311 234.284 724.318 236.233C726.382 238.125 727.414 240.877 727.414 244.489V282.931H719.158V245.865C719.158 242.483 717.466 240.791 714.084 240.791C711.618 240.791 709.124 241.422 706.602 242.683V282.931H698.518V233.481H706.258V235.717ZM758.036 246.295C758.036 241.881 755.829 239.673 751.414 239.673C747 239.673 744.792 241.881 744.792 246.295V270.117C744.792 274.532 747 276.739 751.414 276.739C755.829 276.739 758.036 274.532 758.036 270.117V246.295ZM736.794 246.123C736.794 241.995 737.998 238.727 740.406 236.319C742.814 233.854 746.484 232.621 751.414 232.621C756.345 232.621 760.014 233.854 762.422 236.319C764.888 238.727 766.12 241.995 766.12 246.123V270.289C766.12 274.417 764.888 277.714 762.422 280.179C760.014 282.587 756.345 283.791 751.414 283.791C746.484 283.791 742.814 282.587 740.406 280.179C737.998 277.714 736.794 274.417 736.794 270.289V246.123ZM775.867 220.323H783.951V282.931H775.867V220.323ZM814.978 246.295C814.978 241.881 812.77 239.673 808.356 239.673C803.941 239.673 801.734 241.881 801.734 246.295V270.117C801.734 274.532 803.941 276.739 808.356 276.739C812.77 276.739 814.978 274.532 814.978 270.117V246.295ZM793.736 246.123C793.736 241.995 794.94 238.727 797.348 236.319C799.756 233.854 803.425 232.621 808.356 232.621C813.286 232.621 816.956 233.854 819.364 236.319C821.829 238.727 823.062 241.995 823.062 246.123V270.289C823.062 274.417 821.829 277.714 819.364 280.179C816.956 282.587 813.286 283.791 808.356 283.791C803.425 283.791 799.756 282.587 797.348 280.179C794.94 277.714 793.736 274.417 793.736 270.289V246.123ZM864.715 236.663H861.791C860.472 236.663 859.354 236.921 858.437 237.437C860.042 239.444 860.845 242.11 860.845 245.435V252.487C860.845 256.501 859.612 259.625 857.147 261.861C854.739 264.097 851.069 265.244 846.139 265.301C843.444 265.301 842.097 266.563 842.097 269.085C842.097 270.289 842.441 271.149 843.129 271.665C843.874 272.181 845.164 272.439 846.999 272.439H851.987C860.128 272.439 864.199 275.851 864.199 282.673V284.135C864.199 291.875 858.723 295.745 847.773 295.745H844.419C838.169 295.745 833.439 294.742 830.229 292.735V285.167C834.013 287.633 838.685 288.865 844.247 288.865H846.999C850.439 288.865 852.875 288.464 854.309 287.661C855.742 286.859 856.459 285.655 856.459 284.049V283.275C856.459 281.899 856.086 280.896 855.341 280.265C854.653 279.577 853.277 279.233 851.213 279.233H845.967C838.571 279.233 834.873 276.739 834.873 271.751V270.375C834.873 267.165 836.392 265.215 839.431 264.527C833.64 262.865 830.745 258.851 830.745 252.487V245.435C830.745 241.365 831.977 238.211 834.443 235.975C836.965 233.739 840.463 232.621 844.935 232.621C849.407 232.621 852.847 233.309 855.255 234.685C856.459 231.016 859.182 229.181 863.425 229.181H864.715V236.663ZM852.761 252.401V245.521C852.761 243.4 852.216 241.852 851.127 240.877C850.037 239.845 848.26 239.329 845.795 239.329C843.329 239.329 841.552 239.845 840.463 240.877C839.373 241.852 838.829 243.4 838.829 245.521V252.401C838.829 254.523 839.373 256.099 840.463 257.131C841.552 258.106 843.329 258.593 845.795 258.593C848.26 258.593 850.037 258.106 851.127 257.131C852.216 256.099 852.761 254.523 852.761 252.401ZM891.651 233.481H899.649L886.663 295.745H878.837L881.417 282.931H877.977L867.485 233.481H875.569C879.984 255.096 882.65 269.573 883.567 276.911C884.485 270.089 885.689 262.922 887.179 255.411L891.651 233.481Z" fill="#231F20"/>
<path d="M425.935 83.1324H432.471V112.931H425.935V83.1324ZM457.161 83.1324H463.525V112.931H457.333C453.09 102.095 450.639 95.5594 449.98 93.3234C450.582 95.5881 450.883 99.4867 450.883 105.019V112.931H444.519V83.1324H450.883L454.796 93.1084C456.459 97.3797 457.577 100.619 458.15 102.826C457.491 100.046 457.161 95.9751 457.161 90.6144V83.1324ZM491.141 83.1324V88.7224H485.766V112.931H479.23V88.7224H473.855V83.1324H491.141ZM501.466 83.1324H516.559V88.7224H507.916V95.0434H515.398V100.633H507.916V107.341H516.559V112.931H501.466V83.1324ZM534.184 102.181V112.931H527.734V83.1324H537.452C539.803 83.1324 541.637 83.6914 542.956 84.8094C544.275 85.9274 544.934 87.5614 544.934 89.7114V95.2154C544.934 98.6554 543.759 100.805 541.408 101.665L546.095 112.931H539L535.001 102.181H534.184ZM534.184 88.6364V97.0644H536.721C537.38 97.0644 537.839 96.9211 538.097 96.6344C538.355 96.3477 538.484 95.8461 538.484 95.1294V90.2704C538.484 89.6397 538.341 89.2097 538.054 88.9804C537.767 88.7511 537.323 88.6364 536.721 88.6364H534.184ZM569.29 83.1324H575.654V112.931H569.462C565.22 102.095 562.769 95.5594 562.109 93.3234C562.711 95.5881 563.012 99.4867 563.012 105.019V112.931H556.648V83.1324H563.012L566.925 93.1084C568.588 97.3797 569.706 100.619 570.279 102.826C569.62 100.046 569.29 95.9751 569.29 90.6144V83.1324ZM600.432 112.931L599.185 106.051H593.294L592.133 112.931H585.984L591.832 83.1324H600.819L606.581 112.931H600.432ZM594.197 100.59H598.239L596.175 89.0664L594.197 100.59ZM632.478 83.1324V88.7224H627.103V112.931H620.567V88.7224H615.192V83.1324H632.478ZM642.803 83.1324H649.339V112.931H642.803V83.1324ZM672.524 90.7434C672.524 89.3101 671.664 88.5934 669.944 88.5934C668.253 88.5934 667.407 89.3101 667.407 90.7434V105.32C667.407 106.754 668.253 107.47 669.944 107.47C671.664 107.47 672.524 106.754 672.524 105.32V90.7434ZM660.957 90.3994C660.957 88.0487 661.717 86.1854 663.236 84.8094C664.755 83.4047 666.991 82.7024 669.944 82.7024C672.897 82.7024 675.133 83.4047 676.652 84.8094C678.2 86.1854 678.974 88.0487 678.974 90.3994V105.664C678.974 108.015 678.2 109.893 676.652 111.297C675.133 112.673 672.897 113.361 669.944 113.361C666.991 113.361 664.755 112.673 663.236 111.297C661.717 109.893 660.957 108.015 660.957 105.664V90.3994ZM703.237 83.1324H709.601V112.931H703.409C699.166 102.095 696.715 95.5594 696.056 93.3234C696.658 95.5881 696.959 99.4867 696.959 105.019V112.931H690.595V83.1324H696.959L700.872 93.1084C702.535 97.3797 703.653 100.619 704.226 102.826C703.567 100.046 703.237 95.9751 703.237 90.6144V83.1324ZM734.379 112.931L733.132 106.051H727.241L726.08 112.931H719.931L725.779 83.1324H734.766L740.528 112.931H734.379ZM728.144 100.59H732.186L730.122 89.0664L728.144 100.59ZM750.859 83.1324H757.395V107.513H765.35V112.931H750.859V83.1324ZM803.502 112.931H796.966V103.686L789.871 83.1324H796.493L797.912 87.6474C799.03 91.1734 799.833 94.2981 800.32 97.0214C800.865 94.2407 801.682 91.0874 802.771 87.5614L804.147 83.1324H810.597L803.502 103.686V112.931ZM820.72 83.1324H835.813V88.7224H827.17V95.0434H834.652V100.633H827.17V107.341H835.813V112.931H820.72V83.1324ZM859.717 112.931L858.47 106.051H852.579L851.418 112.931H845.269L851.117 83.1324H860.104L865.866 112.931H859.717ZM853.482 100.59H857.524L855.46 89.0664L853.482 100.59ZM882.647 102.181V112.931H876.197V83.1324H885.915C888.266 83.1324 890.1 83.6914 891.419 84.8094C892.738 85.9274 893.397 87.5614 893.397 89.7114V95.2154C893.397 98.6554 892.222 100.805 889.871 101.665L894.558 112.931H887.463L883.464 102.181H882.647ZM882.647 88.6364V97.0644H885.184C885.843 97.0644 886.302 96.9211 886.56 96.6344C886.818 96.3477 886.947 95.8461 886.947 95.1294V90.2704C886.947 89.6397 886.804 89.2097 886.517 88.9804C886.23 88.7511 885.786 88.6364 885.184 88.6364H882.647ZM932.397 90.7434C932.397 89.3101 931.537 88.5934 929.817 88.5934C928.125 88.5934 927.28 89.3101 927.28 90.7434V105.32C927.28 106.754 928.125 107.47 929.817 107.47C931.537 107.47 932.397 106.754 932.397 105.32V90.7434ZM920.83 90.3994C920.83 88.0487 921.589 86.1854 923.109 84.8094C924.628 83.4047 926.864 82.7024 929.817 82.7024C932.769 82.7024 935.005 83.4047 936.525 84.8094C938.073 86.1854 938.847 88.0487 938.847 90.3994V105.664C938.847 108.015 938.073 109.893 936.525 111.297C935.005 112.673 932.769 113.361 929.817 113.361C926.864 113.361 924.628 112.673 923.109 111.297C921.589 109.893 920.83 108.015 920.83 105.664V90.3994ZM950.468 83.1324H965.217V88.7654H957.004V96.1184H964.572V101.88H957.004V112.931H950.468V83.1324Z" fill="#231F20"/>
<defs>
<linearGradient id="paint0_linear_9_339" x1="235.119" y1="334.084" x2="234.705" y2="173.668" gradientUnits="userSpaceOnUse">
<stop stop-color="#FDB714"/>
<stop offset="0.24" stop-color="#D2A029"/>
<stop offset="0.56" stop-color="#FDB714"/>
<stop offset="0.88" stop-color="#CF8D2A"/>
</linearGradient>
<linearGradient id="paint1_linear_9_339" x1="280.203" y1="197.087" x2="279.727" y2="10.6441" gradientUnits="userSpaceOnUse">
<stop stop-color="#CF8D2A"/>
<stop offset="0.43" stop-color="#D2A029"/>
<stop offset="0.49" stop-color="#CBA02F"/>
<stop offset="0.57" stop-color="#B6A241"/>
<stop offset="0.68" stop-color="#94A45D"/>
<stop offset="0.79" stop-color="#65A784"/>
<stop offset="0.92" stop-color="#2AAAB6"/>
<stop offset="1" stop-color="#00ADD9"/>
</linearGradient>
<linearGradient id="paint2_linear_9_339" x1="138.37" y1="238.42" x2="186.093" y2="255.855" gradientUnits="userSpaceOnUse">
<stop offset="0.01" stop-color="#48773D"/>
<stop offset="0.08" stop-color="#447541"/>
<stop offset="0.16" stop-color="#39704E"/>
<stop offset="0.24" stop-color="#266762"/>
<stop offset="0.31" stop-color="#0C5A7F"/>
<stop offset="0.34" stop-color="#02558A"/>
<stop offset="0.58" stop-color="#193669"/>
<stop offset="0.81" stop-color="#02558A"/>
<stop offset="1" stop-color="#193669"/>
</linearGradient>
<linearGradient id="paint3_linear_9_339" x1="9.88518" y1="195.611" x2="252.205" y2="198.033" gradientUnits="userSpaceOnUse">
<stop offset="0.11" stop-color="#CF8D2A"/>
<stop offset="0.23" stop-color="#FDB714"/>
<stop offset="0.58" stop-color="#F36D25"/>
<stop offset="0.88" stop-color="#8E1937"/>
</linearGradient>
<linearGradient id="paint4_linear_9_339" x1="108.445" y1="158.958" x2="256.016" y2="15.9645" gradientUnits="userSpaceOnUse">
<stop offset="0.1" stop-color="#48773D"/>
<stop offset="0.26" stop-color="#269B48"/>
<stop offset="1" stop-color="#00ADD9"/>
</linearGradient>
<linearGradient id="paint5_linear_9_339" x1="36.5033" y1="192.265" x2="94.8429" y2="192.848" gradientUnits="userSpaceOnUse">
<stop stop-color="#017DBC"/>
<stop offset="0.47" stop-color="#02558A"/>
</linearGradient>
<linearGradient id="paint6_linear_9_339" x1="230.109" y1="229.872" x2="354.389" y2="125.885" gradientUnits="userSpaceOnUse">
<stop stop-color="#8E1937"/>
<stop offset="0.42" stop-color="#EB1C2D"/>
<stop offset="1" stop-color="#E01284"/>
</linearGradient>
<linearGradient id="paint7_linear_9_339" x1="107.016" y1="108.543" x2="279.254" y2="110.264" gradientUnits="userSpaceOnUse">
<stop stop-color="#017DBC"/>
<stop offset="0.53" stop-color="#F36D25"/>
<stop offset="0.99" stop-color="#E01284"/>
</linearGradient>
<linearGradient id="paint8_linear_9_339" x1="199.05" y1="350.856" x2="265.813" y2="235.149" gradientUnits="userSpaceOnUse">
<stop stop-color="#193669"/>
<stop offset="0.12" stop-color="#02558A"/>
<stop offset="0.26" stop-color="#017DBC"/>
<stop offset="0.53" stop-color="#3DB049"/>
<stop offset="0.54" stop-color="#3BAE49"/>
<stop offset="0.68" stop-color="#2BA048"/>
<stop offset="0.8" stop-color="#269B48"/>
<stop offset="1" stop-color="#269B48"/>
</linearGradient>
<linearGradient id="paint9_linear_9_339" x1="14.8731" y1="292.258" x2="186.633" y2="293.975" gradientUnits="userSpaceOnUse">
<stop stop-color="#017DBC"/>
<stop offset="0.53" stop-color="#EB1C2D"/>
<stop offset="0.86" stop-color="#D2A029"/>
<stop offset="1" stop-color="#EFAD14"/>
</linearGradient>
<linearGradient id="paint10_linear_9_339" x1="0.555811" y1="145.718" x2="193.828" y2="147.65" gradientUnits="userSpaceOnUse">
<stop stop-color="#CF8D2A"/>
<stop offset="0.47" stop-color="#D2A029"/>
<stop offset="0.77" stop-color="#48773D"/>
<stop offset="1" stop-color="#269B48"/>
</linearGradient>
<linearGradient id="paint11_linear_9_339" x1="274.382" y1="343.649" x2="275.623" y2="178.264" gradientUnits="userSpaceOnUse">
<stop stop-color="#FDB714"/>
<stop offset="0.24" stop-color="#D2A029"/>
<stop offset="0.56" stop-color="#FDB714"/>
<stop offset="0.88" stop-color="#CF8D2A"/>
</linearGradient>
</defs>
</svg>
