<svg width="1089" height="375" viewBox="0 0 1089 375" fill="none" xmlns="http://www.w3.org/2000/svg">
<path d="M171.916 332.212C166.2 332.19 161.403 327.896 160.745 322.214C160.086 316.532 163.775 311.254 169.334 309.924C172.466 309.166 175.599 308.339 178.663 307.409C194.138 302.696 208.784 295.594 222.07 286.361C232.259 279.223 241.511 270.832 249.609 261.385C249.609 261.385 254.704 255.184 256.769 252.325C266.817 238.495 274.314 222.979 278.903 206.508C281.072 198.86 282.931 190.902 284.514 182.841C285.761 176.748 291.657 172.778 297.767 173.919C300.707 174.494 303.299 176.214 304.971 178.702C306.643 181.189 307.259 184.24 306.683 187.182C304.996 195.829 302.965 204.406 300.659 212.605C295.335 231.659 286.662 249.612 275.048 265.622C272.707 268.826 266.924 275.957 266.924 275.957C257.498 286.935 246.718 296.67 234.841 304.929C219.599 315.522 202.792 323.659 185.031 329.043C181.474 330.122 177.894 331.087 174.291 331.937C173.511 332.115 172.715 332.207 171.916 332.212Z" fill="url(#paint0_linear_8_252)"/>
<path d="M295.805 196.346C295.123 196.346 294.443 196.275 293.774 196.139C290.824 195.603 288.208 193.914 286.503 191.445C284.798 188.977 284.144 185.931 284.686 182.979C286.407 173.609 288.507 159.761 289.333 149.943L289.781 143.776C290.984 127.163 290.337 110.468 287.853 93.9976C285.804 78.2863 280.504 63.1749 272.294 49.6272C267.394 41.9091 260.816 35.3973 253.051 30.5769C249.389 28.6043 247.108 24.7768 247.112 20.615C247.117 16.4533 249.407 12.6309 253.073 10.6664C256.74 8.70194 261.188 8.91331 264.652 11.2166C275.396 17.8224 284.486 26.8018 291.227 37.4667C301.158 53.6644 307.606 71.756 310.16 90.5871C312.899 108.744 313.626 127.148 312.328 145.464L311.846 151.975C310.951 162.586 308.714 177.33 306.924 187.217C305.872 192.526 301.214 196.35 295.805 196.346Z" fill="url(#paint1_linear_8_252)"/>
<path d="M193.809 371.14C192.195 371.147 190.598 370.807 189.127 370.141C186.334 368.852 183.641 367.355 181.072 365.662C170.44 358.315 161.128 349.218 153.534 338.758C144.389 326.87 136.325 314.189 129.437 300.864C112.89 268.382 104.4 232.39 104.687 195.932C104.696 187.14 105.168 178.355 106.098 169.613C106.372 165.484 108.88 161.835 112.635 160.102C116.39 158.368 120.791 158.828 124.108 161.299C127.424 163.771 129.125 167.859 128.542 171.956C127.716 179.982 127.303 188.078 127.269 196.07C127.209 213.488 129.313 230.845 133.534 247.743C137.345 262.532 142.794 276.848 149.781 290.426C156.022 302.609 163.326 314.217 171.606 325.116C177.637 333.497 185.039 340.8 193.499 346.715C195.118 347.804 196.821 348.76 198.594 349.575C203.408 351.79 206.035 357.058 204.91 362.239C203.785 367.421 199.211 371.123 193.912 371.14H193.809Z" fill="url(#paint2_linear_8_252)"/>
<path d="M240.039 244.85H239.282C219.333 243.172 199.495 240.354 179.867 236.41L173.189 234.928C157.905 231.483 141.692 226.971 124.997 221.631C106.649 215.844 89.2997 209.402 73.3617 202.581C59.8308 196.85 46.6977 190.221 34.0503 182.738L32.4669 181.739C24.9888 177.641 18.1375 172.49 12.1227 166.444C8.72292 163.658 7.2467 159.152 8.33871 154.893C9.43072 150.633 12.8926 147.395 17.2125 146.592C21.5325 145.788 25.9257 147.566 28.4738 151.148C33.0831 155.592 38.2704 159.392 43.8954 162.448L45.5477 163.447C57.2886 170.395 69.4916 176.53 82.0708 181.808C97.217 188.319 113.843 194.485 131.503 200.066C147.716 205.199 163.551 209.505 178.008 212.846L184.411 214.259C203.097 218.001 221.98 220.681 240.969 222.285C247.024 222.759 251.621 227.942 251.37 234.016C251.12 240.089 246.113 244.876 240.039 244.85Z" fill="url(#paint3_linear_8_252)"/>
<path d="M117.458 181.016H116.219C113.207 180.688 110.451 179.166 108.569 176.79C106.687 174.414 105.834 171.383 106.202 168.373C107.7 155.118 110.069 141.976 113.293 129.032C118.491 107.327 126.694 86.4562 137.664 67.0239C146.534 51.2629 157.997 37.1125 171.571 25.1684C182.765 15.2782 195.981 7.95367 210.298 3.70666C222.86 -0.0514886 236.255 0.00846016 248.783 3.8789C253.627 5.42691 258.308 7.44607 262.759 9.90748C266.276 11.8951 268.466 15.6097 268.506 19.6518C268.544 23.694 266.424 27.4497 262.946 29.5042C259.467 31.5588 255.157 31.6 251.64 29.6123C248.488 27.8392 245.167 26.3852 241.726 25.2717C233.456 22.7539 224.626 22.7539 216.356 25.2717C205.222 28.6819 194.959 34.464 186.27 42.2206C174.616 52.4714 164.791 64.6335 157.217 78.1854C147.312 95.7761 139.908 114.664 135.22 134.303C132.205 146.287 130.02 158.465 128.68 170.75C128.132 176.549 123.279 180.988 117.458 181.016Z" fill="url(#paint4_linear_8_252)"/>
<path d="M24.7217 269.791C19.8538 269.795 15.5345 266.668 14.016 262.04C9.22347 247.385 8.19356 231.759 11.0212 216.601C14.2509 200.357 21.3345 185.128 31.6752 172.197C42.2437 158.828 54.7245 147.093 68.7146 137.369C80.0952 129.314 92.1013 122.183 104.618 116.045C108.234 114.254 112.529 114.53 115.887 116.768C119.244 119.006 121.154 122.867 120.896 126.896C120.637 130.925 118.251 134.51 114.635 136.301C103.186 141.913 92.2047 148.433 81.7955 155.799C69.6782 164.196 58.8375 174.303 49.6097 185.804C41.4512 195.87 35.842 207.759 33.2587 220.46C31.0707 231.944 31.8287 243.797 35.4617 254.909C37.409 260.835 34.1884 267.219 28.2673 269.171C27.1251 269.562 25.9287 269.771 24.7217 269.791Z" fill="url(#paint5_linear_8_252)"/>
<path d="M258.456 245.401C252.156 245.401 245.788 245.401 239.351 244.85C233.192 244.372 228.56 239.03 228.955 232.861C229.432 226.682 234.713 221.991 240.9 222.251C253.983 223.082 267.109 222.978 280.177 221.941H282.414C296.631 220.804 308.886 219.805 322.931 214.672C334.118 210.607 353.464 201.134 357.595 183.393C361.037 168.511 352.122 153.594 348.094 147.876C340.734 137.843 331.125 129.678 320.039 124.037C308.557 118.059 296.367 113.556 283.757 110.636C278.49 109.431 273.155 108.466 267.784 107.777C261.599 106.938 257.248 101.261 258.043 95.0653C258.419 92.0886 259.97 89.3865 262.35 87.5615C264.73 85.7365 267.74 84.9404 270.71 85.3507C276.838 86.143 282.931 87.2798 288.852 88.6233C303.334 91.9605 317.331 97.1353 330.504 104.022C344.793 111.305 357.155 121.87 366.579 134.854C373.739 145.189 384.961 165.617 379.591 188.525C372.844 216.601 345.994 230.105 330.469 235.755C313.567 241.921 299.247 243.058 284.067 244.298H281.829C274.222 245.091 266.408 245.401 258.456 245.401Z" fill="url(#paint6_linear_8_252)"/>
<path d="M117.768 133.717C112.433 133.752 107.801 130.046 106.662 124.83C105.524 119.614 108.188 114.312 113.052 112.118C127.305 105.603 142.05 100.224 157.148 96.0299C171.711 92.0348 186.491 88.8832 201.416 86.5908C215.992 84.3266 230.728 83.2551 245.478 83.3871C253.106 83.492 260.723 83.9864 268.301 84.8684C274.492 85.6225 278.908 91.2437 278.18 97.4423C277.863 100.438 276.349 103.178 273.983 105.039C271.617 106.901 268.599 107.727 265.616 107.329C258.828 106.527 252.003 106.079 245.168 105.986C231.672 105.812 218.185 106.803 204.859 108.948C190.827 111.123 176.931 114.102 163.241 117.871C149.327 121.712 135.743 126.666 122.621 132.684C121.098 133.376 119.441 133.729 117.768 133.717Z" fill="url(#paint7_linear_8_252)"/>
<path d="M205.513 373.999C201.175 373.933 196.879 373.129 192.811 371.622C187.276 369.271 184.541 363.002 186.582 357.342C188.623 351.682 194.728 348.605 200.487 350.332C202.539 351.2 204.783 351.509 206.993 351.228C208.163 350.987 210.435 350.47 214.532 339.343C218.662 327.665 216.907 242.886 173.224 189.214C169.279 184.372 170.003 177.247 174.842 173.299C179.68 169.351 186.8 170.076 190.745 174.918C241.623 237.615 241.692 330.283 235.84 346.956C231.606 358.91 225.719 370.416 211.743 373.379C209.694 373.804 207.606 374.011 205.513 373.999Z" fill="url(#paint8_linear_8_252)"/>
<path d="M136.735 336.76H130.504C112.832 336.54 95.3422 333.145 78.8694 326.735C63.8413 320.976 50.139 312.221 38.5942 301.002C27.5716 290.363 19.2304 277.258 14.2569 262.763C12.2512 256.846 15.4184 250.422 21.3309 248.415C27.2435 246.408 33.6625 249.578 35.6682 255.495C39.492 266.618 45.9117 276.668 54.3945 284.811C63.8231 293.829 74.9677 300.858 87.1655 305.48C101.119 310.94 115.937 313.857 130.917 314.092C144.429 314.809 157.966 313.296 170.986 309.614C176.956 307.797 183.267 311.167 185.082 317.141C186.898 323.115 183.531 329.431 177.561 331.248C164.313 335.158 150.545 337.017 136.735 336.76Z" fill="url(#paint9_linear_8_252)"/>
<path d="M181.898 193.417C178.494 193.423 175.269 191.892 173.12 189.249C123.276 127.964 67.1656 112.738 33.8438 124.726C28.6678 126.096 24.5278 129.98 22.8284 135.061C21.9196 140.876 23.958 146.763 28.2672 150.769C32.6399 155.24 32.5628 162.412 28.0951 166.788C23.6274 171.164 16.4609 171.087 12.0883 166.616C2.35169 157.151 -1.90289 143.378 0.797463 130.066C3.65459 117.802 12.6391 108.363 26.2018 103.471C64.0675 89.6913 129.885 100.302 190.642 174.953C194.574 179.798 193.851 186.914 189.024 190.868C187.017 192.52 184.497 193.422 181.898 193.417Z" fill="url(#paint10_linear_8_252)"/>
<path d="M289.402 207.817C285.937 207.762 282.483 207.417 279.075 206.784C274.478 223.143 267.006 238.553 257.01 252.291C254.945 255.15 249.816 261.385 249.85 261.385C249.884 261.385 249.196 262.005 248.921 262.35C254.407 267.94 258.602 274.666 261.21 282.055C263.137 280.022 265.272 278.162 267.096 276.026C267.096 276.026 272.914 268.93 275.254 265.691C286.882 249.701 295.555 231.757 300.865 212.709C301.416 210.745 301.795 208.609 302.311 206.577C298.064 207.447 293.737 207.863 289.402 207.817Z" fill="url(#paint11_linear_8_252)"/>
<path d="M426.472 152.093C426.472 148.023 427.848 144.869 430.6 142.633C433.352 140.34 437.509 139.193 443.07 139.193C446.739 139.193 450.122 139.623 453.218 140.483V147.965C449.835 146.991 446.51 146.503 443.242 146.503C439.974 146.503 437.709 147.019 436.448 148.051C435.244 149.083 434.642 150.631 434.642 152.695V184.945C434.642 186.952 435.273 188.471 436.534 189.503C437.795 190.535 440.117 191.051 443.5 191.051C446.883 191.051 450.208 190.593 453.476 189.675V196.985C450.495 197.903 446.997 198.361 442.984 198.361C431.976 198.361 426.472 194.061 426.472 185.461V152.093ZM470.454 139.451C470.454 142.605 468.877 144.181 465.724 144.181C462.57 144.181 460.994 142.605 460.994 139.451C460.994 136.241 462.57 134.635 465.724 134.635C468.877 134.635 470.454 136.241 470.454 139.451ZM461.682 149.083H469.766V197.931H461.682V149.083ZM479.55 184.859V161.123C479.55 156.995 480.754 153.727 483.162 151.319C485.57 148.854 489.239 147.621 494.17 147.621C499.101 147.621 502.741 148.854 505.092 151.319C507.443 153.727 508.618 156.995 508.618 161.123V176.861H487.462V184.429C487.462 186.723 488.15 188.414 489.526 189.503C490.959 190.593 493.425 191.137 496.922 191.137C500.477 191.137 503.917 190.621 507.242 189.589V196.985C503.802 197.903 500.133 198.361 496.234 198.361C485.111 198.361 479.55 193.861 479.55 184.859ZM487.462 170.325H500.964V161.209C500.964 156.737 498.699 154.501 494.17 154.501C489.698 154.501 487.462 156.737 487.462 161.209V170.325ZM525.523 150.717C529.193 149.112 532.604 148.309 535.757 148.309C538.968 148.309 541.577 149.284 543.583 151.233C545.647 153.125 546.679 155.877 546.679 159.489V197.931H538.423V160.865C538.423 157.483 536.732 155.791 533.349 155.791C530.884 155.791 528.39 156.422 525.867 157.683V197.931H517.783V148.481H525.523V150.717ZM556.06 161.123C556.06 152.409 561.105 148.051 571.196 148.051C574.808 148.051 578.019 148.453 580.828 149.255V156.737C577.961 155.935 575.037 155.533 572.056 155.533C569.132 155.533 567.068 156.021 565.864 156.995C564.717 157.97 564.144 159.518 564.144 161.639V184.859C564.144 186.981 564.717 188.529 565.864 189.503C567.068 190.478 569.189 190.965 572.228 190.965C575.267 190.965 578.162 190.507 580.914 189.589V197.157C577.589 197.96 574.349 198.361 571.196 198.361C561.105 198.361 556.06 194.004 556.06 185.289V161.123ZM597.69 139.451C597.69 142.605 596.113 144.181 592.96 144.181C589.807 144.181 588.23 142.605 588.23 139.451C588.23 136.241 589.807 134.635 592.96 134.635C596.113 134.635 597.69 136.241 597.69 139.451ZM588.918 149.083H597.002V197.931H588.918V149.083ZM612.72 183.741V186.321C612.72 188.213 613.15 189.618 614.01 190.535C614.928 191.453 616.676 191.911 619.256 191.911C621.894 191.911 624.302 191.023 626.48 189.245V174.883L618.31 177.119C616.074 177.75 614.584 178.553 613.838 179.527C613.093 180.445 612.72 181.849 612.72 183.741ZM607.13 149.685C610.398 148.596 614.555 148.051 619.6 148.051C629.404 148.051 634.306 152.495 634.306 161.381V197.931H626.566V194.405C624.044 196.928 620.718 198.189 616.59 198.189C608.678 198.189 604.722 194.205 604.722 186.235V183.397C604.722 180.187 605.554 177.607 607.216 175.657C608.879 173.651 611.545 172.131 615.214 171.099L626.48 168.003V161.381C626.48 159.26 625.907 157.741 624.76 156.823C623.614 155.849 621.177 155.361 617.45 155.361C613.781 155.361 610.341 155.935 607.13 157.081V149.685ZM680.935 148.481H688.933L675.947 210.745H668.121L670.701 197.931H667.261L656.769 148.481H664.853C669.267 170.096 671.933 184.573 672.851 191.911C673.768 185.089 674.972 177.922 676.463 170.411L680.935 148.481ZM737.501 139.623V146.761H726.407V197.931H718.237V146.761H707.143V139.623H737.501ZM742.589 184.859V161.123C742.589 156.995 743.793 153.727 746.201 151.319C748.609 148.854 752.279 147.621 757.209 147.621C762.14 147.621 765.781 148.854 768.131 151.319C770.482 153.727 771.657 156.995 771.657 161.123V176.861H750.501V184.429C750.501 186.723 751.189 188.414 752.565 189.503C753.999 190.593 756.464 191.137 759.961 191.137C763.516 191.137 766.956 190.621 770.281 189.589V196.985C766.841 197.903 763.172 198.361 759.273 198.361C748.151 198.361 742.589 193.861 742.589 184.859ZM750.501 170.325H764.003V161.209C764.003 156.737 761.739 154.501 757.209 154.501C752.737 154.501 750.501 156.737 750.501 161.209V170.325ZM779.962 161.123C779.962 152.409 785.008 148.051 795.098 148.051C798.71 148.051 801.921 148.453 804.73 149.255V156.737C801.864 155.935 798.94 155.533 795.958 155.533C793.034 155.533 790.97 156.021 789.766 156.995C788.62 157.97 788.046 159.518 788.046 161.639V184.859C788.046 186.981 788.62 188.529 789.766 189.503C790.97 190.478 793.092 190.965 796.13 190.965C799.169 190.965 802.064 190.507 804.816 189.589V197.157C801.491 197.96 798.252 198.361 795.098 198.361C785.008 198.361 779.962 194.004 779.962 185.289V161.123ZM820.56 150.717C824.23 149.112 827.641 148.309 830.794 148.309C834.005 148.309 836.614 149.284 838.62 151.233C840.684 153.125 841.716 155.877 841.716 159.489V197.931H833.46V160.865C833.46 157.483 831.769 155.791 828.386 155.791C825.921 155.791 823.427 156.422 820.904 157.683V197.931H812.82V148.481H820.56V150.717ZM872.339 161.295C872.339 156.881 870.132 154.673 865.717 154.673C861.302 154.673 859.095 156.881 859.095 161.295V185.117C859.095 189.532 861.302 191.739 865.717 191.739C870.132 191.739 872.339 189.532 872.339 185.117V161.295ZM851.097 161.123C851.097 156.995 852.301 153.727 854.709 151.319C857.117 148.854 860.786 147.621 865.717 147.621C870.648 147.621 874.317 148.854 876.725 151.319C879.19 153.727 880.423 156.995 880.423 161.123V185.289C880.423 189.417 879.19 192.714 876.725 195.179C874.317 197.587 870.648 198.791 865.717 198.791C860.786 198.791 857.117 197.587 854.709 195.179C852.301 192.714 851.097 189.417 851.097 185.289V161.123ZM890.17 135.323H898.254V197.931H890.17V135.323ZM929.28 161.295C929.28 156.881 927.073 154.673 922.658 154.673C918.244 154.673 916.036 156.881 916.036 161.295V185.117C916.036 189.532 918.244 191.739 922.658 191.739C927.073 191.739 929.28 189.532 929.28 185.117V161.295ZM908.038 161.123C908.038 156.995 909.242 153.727 911.65 151.319C914.058 148.854 917.728 147.621 922.658 147.621C927.589 147.621 931.258 148.854 933.666 151.319C936.132 153.727 937.364 156.995 937.364 161.123V185.289C937.364 189.417 936.132 192.714 933.666 195.179C931.258 197.587 927.589 198.791 922.658 198.791C917.728 198.791 914.058 197.587 911.65 195.179C909.242 192.714 908.038 189.417 908.038 185.289V161.123ZM979.017 151.663H976.093C974.775 151.663 973.657 151.921 972.739 152.437C974.345 154.444 975.147 157.11 975.147 160.435V167.487C975.147 171.501 973.915 174.625 971.449 176.861C969.041 179.097 965.372 180.244 960.441 180.301C957.747 180.301 956.399 181.563 956.399 184.085C956.399 185.289 956.743 186.149 957.431 186.665C958.177 187.181 959.467 187.439 961.301 187.439H966.289C974.431 187.439 978.501 190.851 978.501 197.673V199.135C978.501 206.875 973.026 210.745 962.075 210.745H958.721C952.472 210.745 947.742 209.742 944.531 207.735V200.167C948.315 202.633 952.988 203.865 958.549 203.865H961.301C964.741 203.865 967.178 203.464 968.611 202.661C970.045 201.859 970.761 200.655 970.761 199.049V198.275C970.761 196.899 970.389 195.896 969.643 195.265C968.955 194.577 967.579 194.233 965.515 194.233H960.269C952.873 194.233 949.175 191.739 949.175 186.751V185.375C949.175 182.165 950.695 180.215 953.733 179.527C947.943 177.865 945.047 173.851 945.047 167.487V160.435C945.047 156.365 946.28 153.211 948.745 150.975C951.268 148.739 954.765 147.621 959.237 147.621C963.709 147.621 967.149 148.309 969.557 149.685C970.761 146.016 973.485 144.181 977.727 144.181H979.017V151.663ZM967.063 167.401V160.521C967.063 158.4 966.519 156.852 965.429 155.877C964.34 154.845 962.563 154.329 960.097 154.329C957.632 154.329 955.855 154.845 954.765 155.877C953.676 156.852 953.131 158.4 953.131 160.521V167.401C953.131 169.523 953.676 171.099 954.765 172.131C955.855 173.106 957.632 173.593 960.097 173.593C962.563 173.593 964.34 173.106 965.429 172.131C966.519 171.099 967.063 169.523 967.063 167.401ZM990.732 135.323H997.612L992.108 144.697H987.292L990.732 135.323ZM985.744 149.083H993.828V197.931H985.744V149.083ZM1009.55 183.741V186.321C1009.55 188.213 1009.98 189.618 1010.84 190.535C1011.75 191.453 1013.5 191.911 1016.08 191.911C1018.72 191.911 1021.13 191.023 1023.31 189.245V174.883L1015.14 177.119C1012.9 177.75 1011.41 178.553 1010.66 179.527C1009.92 180.445 1009.55 181.849 1009.55 183.741ZM1003.96 149.685C1007.22 148.596 1011.38 148.051 1016.43 148.051C1026.23 148.051 1031.13 152.495 1031.13 161.381V197.931H1023.39V194.405C1020.87 196.928 1017.54 198.189 1013.42 198.189C1005.5 198.189 1001.55 194.205 1001.55 186.235V183.397C1001.55 180.187 1002.38 177.607 1004.04 175.657C1005.71 173.651 1008.37 172.131 1012.04 171.099L1023.31 168.003V161.381C1023.31 159.26 1022.73 157.741 1021.59 156.823C1020.44 155.849 1018 155.361 1014.28 155.361C1010.61 155.361 1007.17 155.935 1003.96 157.081V149.685ZM426.472 237.093C426.472 233.023 427.848 229.869 430.6 227.633C433.352 225.34 437.509 224.193 443.07 224.193C446.739 224.193 450.122 224.623 453.218 225.483V232.965C449.835 231.991 446.51 231.503 443.242 231.503C439.974 231.503 437.709 232.019 436.448 233.051C435.244 234.083 434.642 235.631 434.642 237.695V269.945C434.642 271.952 435.273 273.471 436.534 274.503C437.795 275.535 440.117 276.051 443.5 276.051C446.883 276.051 450.208 275.593 453.476 274.675V281.985C450.495 282.903 446.997 283.361 442.984 283.361C431.976 283.361 426.472 279.061 426.472 270.461V237.093ZM475.098 275.793C477.506 275.793 479.856 275.077 482.15 273.643V233.481H490.32V282.931H482.58V280.609C479.598 282.272 476.302 283.103 472.69 283.103C469.078 283.103 466.268 282.071 464.262 280.007C462.255 277.943 461.252 274.962 461.252 271.063V233.481H469.422V269.945C469.422 273.844 471.314 275.793 475.098 275.793ZM514.232 220.323H521.112L515.608 229.697H510.792L514.232 220.323ZM505.976 268.741V271.321C505.976 273.213 506.406 274.618 507.266 275.535C508.184 276.453 509.932 276.911 512.512 276.911C515.15 276.911 517.558 276.023 519.736 274.245V259.883L511.566 262.119C509.33 262.75 507.84 263.553 507.094 264.527C506.349 265.445 505.976 266.849 505.976 268.741ZM500.386 234.685C503.654 233.596 507.811 233.051 512.856 233.051C522.66 233.051 527.562 237.495 527.562 246.381V282.931H519.822V279.405C517.3 281.928 513.974 283.189 509.846 283.189C501.934 283.189 497.978 279.205 497.978 271.235V268.397C497.978 265.187 498.81 262.607 500.472 260.657C502.135 258.651 504.801 257.131 508.47 256.099L519.736 253.003V246.381C519.736 244.26 519.163 242.741 518.016 241.823C516.87 240.849 514.433 240.361 510.706 240.361C507.037 240.361 503.597 240.935 500.386 242.081V234.685ZM545.511 235.717C549.181 234.112 552.592 233.309 555.745 233.309C558.956 233.309 561.565 234.284 563.571 236.233C565.635 238.125 566.667 240.877 566.667 244.489V282.931H558.411V245.865C558.411 242.483 556.72 240.791 553.337 240.791C550.872 240.791 548.378 241.422 545.855 242.683V282.931H537.771V233.481H545.511V235.717ZM585.25 224.623V233.481H595.226V240.447H585.25V271.149C585.25 274.475 586.97 276.137 590.41 276.137C592.073 276.137 593.936 275.793 596 275.105V282.415C595.943 282.415 595.656 282.473 595.14 282.587C594.682 282.702 594.194 282.817 593.678 282.931C592.13 283.275 590.64 283.447 589.206 283.447C581.18 283.447 577.166 279.549 577.166 271.751V240.447H572.006V233.481H577.424L579.832 224.623H585.25ZM611.379 224.451C611.379 227.605 609.803 229.181 606.649 229.181C603.496 229.181 601.919 227.605 601.919 224.451C601.919 221.241 603.496 219.635 606.649 219.635C609.803 219.635 611.379 221.241 611.379 224.451ZM602.607 234.083H610.691V282.931H602.607V234.083ZM620.476 246.123C620.476 237.409 625.521 233.051 635.612 233.051C639.224 233.051 642.435 233.453 645.244 234.255V241.737C642.377 240.935 639.453 240.533 636.472 240.533C633.548 240.533 631.484 241.021 630.28 241.995C629.133 242.97 628.56 244.518 628.56 246.639V269.859C628.56 271.981 629.133 273.529 630.28 274.503C631.484 275.478 633.605 275.965 636.644 275.965C639.683 275.965 642.578 275.507 645.33 274.589V282.157C642.005 282.96 638.765 283.361 635.612 283.361C625.521 283.361 620.476 279.004 620.476 270.289V246.123ZM658.408 268.741V271.321C658.408 273.213 658.838 274.618 659.698 275.535C660.615 276.453 662.364 276.911 664.944 276.911C667.581 276.911 669.989 276.023 672.168 274.245V259.883L663.998 262.119C661.762 262.75 660.271 263.553 659.526 264.527C658.781 265.445 658.408 266.849 658.408 268.741ZM652.818 234.685C656.086 233.596 660.243 233.051 665.288 233.051C675.092 233.051 679.994 237.495 679.994 246.381V282.931H672.254V279.405C669.731 281.928 666.406 283.189 662.278 283.189C654.366 283.189 650.41 279.205 650.41 271.235V268.397C650.41 265.187 651.241 262.607 652.904 260.657C654.567 258.651 657.233 257.131 660.902 256.099L672.168 253.003V246.381C672.168 244.26 671.595 242.741 670.448 241.823C669.301 240.849 666.865 240.361 663.138 240.361C659.469 240.361 656.029 240.935 652.818 242.081V234.685Z" fill="#231F20"/>
<path d="M438.663 112.931L437.416 106.051H431.525L430.364 112.931H424.215L430.063 83.1324H439.05L444.812 112.931H438.663ZM432.428 100.59H436.47L434.406 89.0664L432.428 100.59Z" fill="#231F20"/>
<path d="M467.785 83.1324H474.149V112.931H467.957C463.714 102.095 461.263 95.5594 460.604 93.3234C461.206 95.5881 461.507 99.4867 461.507 105.019V112.931H455.143V83.1324H461.507L465.42 93.1084C467.083 97.3797 468.201 100.619 468.774 102.826C468.115 100.046 467.785 95.9751 467.785 90.6144V83.1324ZM461.98 81.2834V81.4124H458.583V81.3264C458.64 78.2304 459.916 76.6824 462.41 76.6824C463.27 76.6824 464.173 76.9691 465.119 77.5424C466.065 78.0871 466.653 78.3594 466.882 78.3594C467.484 78.3594 467.785 77.8434 467.785 76.8114V76.6394H471.182V76.8544C471.153 78.2591 470.824 79.3627 470.193 80.1654C469.562 80.9681 468.616 81.3694 467.355 81.3694C466.581 81.3694 465.707 81.0971 464.732 80.5524C463.757 79.9791 463.141 79.6924 462.883 79.6924C462.281 79.6924 461.98 80.2227 461.98 81.2834Z" fill="#231F20"/>
<path d="M497.336 90.7434C497.336 89.3101 496.476 88.5934 494.756 88.5934C493.064 88.5934 492.219 89.3101 492.219 90.7434V105.32C492.219 106.754 493.064 107.47 494.756 107.47C496.476 107.47 497.336 106.754 497.336 105.32V90.7434ZM485.769 90.3994C485.769 88.0487 486.528 86.1854 488.048 84.8094C489.567 83.4047 491.803 82.7024 494.756 82.7024C497.708 82.7024 499.944 83.4047 501.464 84.8094C503.012 86.1854 503.786 88.0487 503.786 90.3994V105.664C503.786 108.015 503.012 109.893 501.464 111.297C499.944 112.673 497.708 113.361 494.756 113.361C491.803 113.361 489.567 112.673 488.048 111.297C486.528 109.893 485.769 108.015 485.769 105.664V90.3994Z" fill="#231F20"/>
<path d="M531.555 83.1324H538.091V112.931H531.555V83.1324Z" fill="#231F20"/>
<path d="M562.781 83.1324H569.145V112.931H562.953C558.711 102.095 556.26 95.5594 555.6 93.3234C556.202 95.5881 556.503 99.4867 556.503 105.019V112.931H550.139V83.1324H556.503L560.416 93.1084C562.079 97.3797 563.197 100.619 563.77 102.826C563.111 100.046 562.781 95.9751 562.781 90.6144V83.1324Z" fill="#231F20"/>
<path d="M596.761 83.1324V88.7224H591.386V112.931H584.85V88.7224H579.475V83.1324H596.761Z" fill="#231F20"/>
<path d="M607.086 83.1324H622.179V88.7224H613.536V95.0434H621.018V100.633H613.536V107.341H622.179V112.931H607.086V83.1324Z" fill="#231F20"/>
<path d="M639.805 102.181V112.931H633.355V83.1324H643.073C645.423 83.1324 647.258 83.6914 648.577 84.8094C649.895 85.9274 650.555 87.5614 650.555 89.7114V95.2154C650.555 98.6554 649.379 100.805 647.029 101.665L651.716 112.931H644.621L640.622 102.181H639.805ZM639.805 88.6364V97.0644H642.342C643.001 97.0644 643.46 96.9211 643.718 96.6344C643.976 96.3477 644.105 95.8461 644.105 95.1294V90.2704C644.105 89.6397 643.961 89.2097 643.675 88.9804C643.388 88.7511 642.944 88.6364 642.342 88.6364H639.805Z" fill="#231F20"/>
<path d="M674.911 83.1324H681.275V112.931H675.083C670.84 102.095 668.389 95.5594 667.73 93.3234C668.332 95.5881 668.633 99.4867 668.633 105.019V112.931H662.269V83.1324H668.633L672.546 93.1084C674.208 97.3797 675.326 100.619 675.9 102.826C675.24 100.046 674.911 95.9751 674.911 90.6144V83.1324Z" fill="#231F20"/>
<path d="M706.052 112.931L704.805 106.051H698.914L697.753 112.931H691.604L697.452 83.1324H706.439L712.201 112.931H706.052ZM699.817 100.59H703.859L701.795 89.0664L699.817 100.59Z" fill="#231F20"/>
<path d="M722.103 90.1844C722.103 87.8911 722.891 86.1137 724.467 84.8524C726.073 83.5624 728.481 82.9174 731.691 82.9174C733.813 82.9174 735.619 83.1181 737.109 83.5194V89.4534C735.504 88.9661 733.913 88.7224 732.336 88.7224C730.788 88.7224 729.785 88.9087 729.327 89.2814C728.868 89.6254 728.638 90.1414 728.638 90.8294V105.277C728.638 106.653 729.714 107.341 731.863 107.341C734.042 107.341 735.834 107.126 737.238 106.696V112.501C735.69 112.931 733.813 113.146 731.605 113.146C728.395 113.146 726.001 112.516 724.424 111.254C722.876 109.993 722.103 108.216 722.103 105.922V90.1844Z" fill="#231F20"/>
<path d="M748.423 83.1324H754.959V112.931H748.423V83.1324Z" fill="#231F20"/>
<path d="M778.144 90.7434C778.144 89.3101 777.284 88.5934 775.564 88.5934C773.873 88.5934 773.027 89.3101 773.027 90.7434V105.32C773.027 106.754 773.873 107.47 775.564 107.47C777.284 107.47 778.144 106.754 778.144 105.32V90.7434ZM766.577 90.3994C766.577 88.0487 767.337 86.1854 768.856 84.8094C770.376 83.4047 772.612 82.7024 775.564 82.7024C778.517 82.7024 780.753 83.4047 782.272 84.8094C783.82 86.1854 784.594 88.0487 784.594 90.3994V105.664C784.594 108.015 783.82 109.893 782.272 111.297C780.753 112.673 778.517 113.361 775.564 113.361C772.612 113.361 770.376 112.673 768.856 111.297C767.337 109.893 766.577 108.015 766.577 105.664V90.3994Z" fill="#231F20"/>
<path d="M808.857 83.1324H815.221V112.931H809.029C804.787 102.095 802.336 95.5594 801.676 93.3234C802.278 95.5881 802.579 99.4867 802.579 105.019V112.931H796.215V83.1324H802.579L806.492 93.1084C808.155 97.3797 809.273 100.619 809.846 102.826C809.187 100.046 808.857 95.9751 808.857 90.6144V83.1324Z" fill="#231F20"/>
<path d="M839.999 112.931L838.752 106.051H832.861L831.7 112.931H825.551L831.399 83.1324H840.386L846.148 112.931H839.999ZM833.764 100.59H837.806L835.742 89.0664L833.764 100.59Z" fill="#231F20"/>
<path d="M856.479 83.1324H863.015V107.513H870.97V112.931H856.479V83.1324Z" fill="#231F20"/>
<path d="M908.736 90.0124C908.736 89.4964 908.607 89.1094 908.349 88.8514C908.119 88.5647 907.661 88.4214 906.973 88.4214H903.877V107.384H906.973C908.148 107.384 908.736 106.725 908.736 105.406V90.0124ZM897.427 83.1324H907.876C910.198 83.1324 911.989 83.6914 913.251 84.8094C914.541 85.9274 915.186 87.5757 915.186 89.7544V105.922C915.186 110.595 912.878 112.931 908.263 112.931H897.427V83.1324Z" fill="#231F20"/>
<path d="M926.803 83.1324H941.896V88.7224H933.253V95.0434H940.735V100.633H933.253V107.341H941.896V112.931H926.803V83.1324Z" fill="#231F20"/>
<path d="M969.22 83.1324H975.756V107.513H983.711V112.931H969.22V83.1324Z" fill="#231F20"/>
<path d="M1006.75 112.931L1005.5 106.051H999.609L998.448 112.931H992.299L998.147 83.1324H1007.13L1012.9 112.931H1006.75ZM1000.51 100.59H1004.55L1002.49 89.0664L1000.51 100.59Z" fill="#231F20"/>
<defs>
<linearGradient id="paint0_linear_8_252" x1="235.119" y1="334.084" x2="234.705" y2="173.668" gradientUnits="userSpaceOnUse">
<stop stop-color="#FDB714"/>
<stop offset="0.24" stop-color="#D2A029"/>
<stop offset="0.56" stop-color="#FDB714"/>
<stop offset="0.88" stop-color="#CF8D2A"/>
</linearGradient>
<linearGradient id="paint1_linear_8_252" x1="280.203" y1="197.087" x2="279.727" y2="10.6441" gradientUnits="userSpaceOnUse">
<stop stop-color="#CF8D2A"/>
<stop offset="0.43" stop-color="#D2A029"/>
<stop offset="0.49" stop-color="#CBA02F"/>
<stop offset="0.57" stop-color="#B6A241"/>
<stop offset="0.68" stop-color="#94A45D"/>
<stop offset="0.79" stop-color="#65A784"/>
<stop offset="0.92" stop-color="#2AAAB6"/>
<stop offset="1" stop-color="#00ADD9"/>
</linearGradient>
<linearGradient id="paint2_linear_8_252" x1="138.37" y1="238.42" x2="186.093" y2="255.855" gradientUnits="userSpaceOnUse">
<stop offset="0.01" stop-color="#48773D"/>
<stop offset="0.08" stop-color="#447541"/>
<stop offset="0.16" stop-color="#39704E"/>
<stop offset="0.24" stop-color="#266762"/>
<stop offset="0.31" stop-color="#0C5A7F"/>
<stop offset="0.34" stop-color="#02558A"/>
<stop offset="0.58" stop-color="#193669"/>
<stop offset="0.81" stop-color="#02558A"/>
<stop offset="1" stop-color="#193669"/>
</linearGradient>
<linearGradient id="paint3_linear_8_252" x1="9.88518" y1="195.611" x2="252.205" y2="198.033" gradientUnits="userSpaceOnUse">
<stop offset="0.11" stop-color="#CF8D2A"/>
<stop offset="0.23" stop-color="#FDB714"/>
<stop offset="0.58" stop-color="#F36D25"/>
<stop offset="0.88" stop-color="#8E1937"/>
</linearGradient>
<linearGradient id="paint4_linear_8_252" x1="108.445" y1="158.958" x2="256.016" y2="15.9645" gradientUnits="userSpaceOnUse">
<stop offset="0.1" stop-color="#48773D"/>
<stop offset="0.26" stop-color="#269B48"/>
<stop offset="1" stop-color="#00ADD9"/>
</linearGradient>
<linearGradient id="paint5_linear_8_252" x1="36.5033" y1="192.265" x2="94.8429" y2="192.848" gradientUnits="userSpaceOnUse">
<stop stop-color="#017DBC"/>
<stop offset="0.47" stop-color="#02558A"/>
</linearGradient>
<linearGradient id="paint6_linear_8_252" x1="230.109" y1="229.872" x2="354.389" y2="125.885" gradientUnits="userSpaceOnUse">
<stop stop-color="#8E1937"/>
<stop offset="0.42" stop-color="#EB1C2D"/>
<stop offset="1" stop-color="#E01284"/>
</linearGradient>
<linearGradient id="paint7_linear_8_252" x1="107.016" y1="108.543" x2="279.254" y2="110.264" gradientUnits="userSpaceOnUse">
<stop stop-color="#017DBC"/>
<stop offset="0.53" stop-color="#F36D25"/>
<stop offset="0.99" stop-color="#E01284"/>
</linearGradient>
<linearGradient id="paint8_linear_8_252" x1="199.05" y1="350.856" x2="265.813" y2="235.149" gradientUnits="userSpaceOnUse">
<stop stop-color="#193669"/>
<stop offset="0.12" stop-color="#02558A"/>
<stop offset="0.26" stop-color="#017DBC"/>
<stop offset="0.53" stop-color="#3DB049"/>
<stop offset="0.54" stop-color="#3BAE49"/>
<stop offset="0.68" stop-color="#2BA048"/>
<stop offset="0.8" stop-color="#269B48"/>
<stop offset="1" stop-color="#269B48"/>
</linearGradient>
<linearGradient id="paint9_linear_8_252" x1="14.8731" y1="292.258" x2="186.633" y2="293.975" gradientUnits="userSpaceOnUse">
<stop stop-color="#017DBC"/>
<stop offset="0.53" stop-color="#EB1C2D"/>
<stop offset="0.86" stop-color="#D2A029"/>
<stop offset="1" stop-color="#EFAD14"/>
</linearGradient>
<linearGradient id="paint10_linear_8_252" x1="0.555811" y1="145.718" x2="193.828" y2="147.65" gradientUnits="userSpaceOnUse">
<stop stop-color="#CF8D2A"/>
<stop offset="0.47" stop-color="#D2A029"/>
<stop offset="0.77" stop-color="#48773D"/>
<stop offset="1" stop-color="#269B48"/>
</linearGradient>
<linearGradient id="paint11_linear_8_252" x1="274.382" y1="343.649" x2="275.623" y2="178.264" gradientUnits="userSpaceOnUse">
<stop stop-color="#FDB714"/>
<stop offset="0.24" stop-color="#D2A029"/>
<stop offset="0.56" stop-color="#FDB714"/>
<stop offset="0.88" stop-color="#CF8D2A"/>
</linearGradient>
</defs>
</svg>
